<?xml version="1.0" encoding="UTF-8" standalone="no"?>
<!-- Created with Inkscape (http://www.inkscape.org/) -->

<svg
   xmlns:dc="http://purl.org/dc/elements/1.1/"
   xmlns:cc="http://creativecommons.org/ns#"
   xmlns:rdf="http://www.w3.org/1999/02/22-rdf-syntax-ns#"
   xmlns:svg="http://www.w3.org/2000/svg"
   xmlns="http://www.w3.org/2000/svg"
   xmlns:sodipodi="http://sodipodi.sourceforge.net/DTD/sodipodi-0.dtd"
   xmlns:inkscape="http://www.inkscape.org/namespaces/inkscape"
   width="714.98346"
   height="1102.4017"
   id="svg4039"
   version="1.1"
   inkscape:version="0.91 r13725"
   sodipodi:docname="institution_logo.svg">
  <defs
     id="defs4041" />
  <sodipodi:namedview
     id="base"
     pagecolor="#ffffff"
     bordercolor="#666666"
     borderopacity="1.0"
     inkscape:pageopacity="0.0"
     inkscape:pageshadow="2"
     inkscape:zoom="0.35"
     inkscape:cx="-39.055087"
     inkscape:cy="597.87279"
     inkscape:document-units="px"
     inkscape:current-layer="layer1"
     showgrid="false"
     borderlayer="false"
     fit-margin-top="0"
     fit-margin-left="0"
     fit-margin-right="0"
     fit-margin-bottom="0"
     inkscape:window-width="1440"
     inkscape:window-height="837"
     inkscape:window-x="1358"
     inkscape:window-y="-8"
     inkscape:window-maximized="1"
     showguides="true"
     inkscape:guide-bbox="true" />
  <metadata
     id="metadata4044">
    <rdf:RDF>
      <cc:Work
         rdf:about="">
        <dc:format>image/svg+xml</dc:format>
        <dc:type
           rdf:resource="http://purl.org/dc/dcmitype/StillImage" />
        <dc:title></dc:title>
      </cc:Work>
    </rdf:RDF>
  </metadata>
  <g
     inkscape:label="Layer 1"
     inkscape:groupmode="layer"
     id="layer1"
     transform="translate(-654.45028,-283.25406)">
    <g
       id="g4141"
       transform="translate(15.96664,0)">
      <path
         style="fill:#96c124"
         d="m 739.33108,1159.7136 c -18.34688,-5.9417 -31.25565,-20.5071 -37.46603,-42.2742 -3.21497,-11.2683 -3.21497,-34.3146 0,-45.583 6.62951,-23.2361 21.39599,-38.485 41.95633,-43.3269 9.08714,-2.14 27.4129,-1.4045 35.35617,1.419 17.15064,6.0962 27.76145,19.5972 31.93473,40.6331 1.03175,5.2006 0.97629,6.0806 -0.44888,7.1227 -1.94251,1.4204 -29.44431,3.0334 -30.55268,1.792 -0.41658,-0.4666 -1.26021,-3.458 -1.87472,-6.6474 -2.21142,-11.4777 -7.12213,-17.5317 -15.93598,-19.6462 -10.67651,-2.5612 -20.02189,3.6302 -24.06764,15.9452 -4.84603,14.751 -4.92912,39.5265 -0.17518,52.2325 4.69299,12.5431 18.14131,18.273 29.72566,12.6651 5.43131,-2.6292 8.99798,-7.2404 11.76014,-15.204 l 2.14825,-6.1936 13.9016,0.2472 c 17.35634,0.3087 17.44633,0.368 15.04739,9.9182 -4.91661,19.5732 -17.90306,32.7448 -37.21318,37.7439 -9.47734,2.4536 -25.10927,2.0668 -34.09598,-0.8436 z m 351.93092,0.4093 c -14.2892,-3.7433 -24.5433,-11.4087 -30.5481,-22.8358 -2.0034,-3.8124 -3.6425,-8.0685 -3.6425,-9.4579 0,-2.9408 1.0451,-3.362 16.9204,-6.8189 9.9887,-2.1751 10.4652,-2.1942 11.5,-0.4621 5.6249,9.415 6.5888,10.4575 12.23,13.2274 5.0799,2.4944 6.9681,2.8672 14.3496,2.8338 12.9685,-0.059 20,-4.4912 20,-12.6073 0,-8.0233 -5.4341,-11.0599 -28.5,-15.9255 -11.1622,-2.3546 -24.1665,-7.941 -29.6088,-12.7194 -1.9663,-1.7264 -5.1061,-5.9672 -6.9775,-9.4241 -3.2534,-6.0096 -3.4028,-6.7456 -3.4081,-16.7852 -0.01,-9.7397 0.2256,-10.9881 3.1875,-17.2407 5.7786,-12.1986 17.5408,-21.1486 31.1977,-23.7386 7.5914,-1.4397 21.4234,-1.2373 29.2829,0.4285 13.3065,2.8202 23.595,9.9858 29.751,20.7208 5.0768,8.853 4.9359,9.0635 -9.1747,13.711 -13.7531,4.5297 -11.6922,4.9047 -18.0445,-3.2836 -4.1972,-5.4102 -9.2922,-7.5974 -17.6978,-7.5974 -11.4805,0 -17.4622,3.7681 -17.4622,11 0,7.271 3.8548,9.6877 21.4545,13.4506 6.875,1.4698 14.75,3.3815 17.5,4.248 16.0761,5.0658 26.4788,15.1938 30.096,29.3014 4.2769,16.6801 -5.5247,37.3561 -21.5612,45.4824 -13.0186,6.597 -35.297,8.5656 -50.8442,4.4926 z m -259.57386,-1.5314 c -0.33921,-0.8839 -0.61674,-29.8882 -0.61674,-64.454 0,-55.8001 0.1762,-63.0229 1.57143,-64.4182 1.35418,-1.3542 5.39788,-1.5678 29.25,-1.5456 42.83927,0.04 53.00229,1.6657 62.46143,9.992 19.84999,17.4726 17.62948,48.6495 -4.45804,62.5928 -2.19412,1.3851 -3.76001,3.0518 -3.47974,3.7039 0.28028,0.652 2.28588,5.4605 4.4569,10.6855 2.17102,5.225 7.15087,17.0851 11.06635,26.3557 3.91547,9.2707 6.87033,17.2582 6.56634,17.75 -0.90364,1.4621 -33.00583,1.128 -34.17373,-0.3557 -0.54118,-0.6875 -3.59023,-8 -6.77567,-16.25 -3.18544,-8.25 -7.41455,-19.05 -9.39803,-24 l -3.60632,-9 -10.49046,0 -10.49046,0 -0.5,25 -0.5,25 -15.13326,0.2754 c -13.14131,0.2392 -15.21444,0.064 -15.75,-1.3318 z m 66.06382,-76.0376 c 9.48678,-7.0459 9.45704,-19.7294 -0.0629,-26.8442 -2.51212,-1.8774 -4.16089,-2.0618 -18.43824,-2.0618 l -15.67942,0 -0.2787,14.454 c -0.15329,7.9497 -0.0427,15.0689 0.24565,15.8205 0.41951,1.0932 3.61042,1.3023 15.95926,1.046 13.81037,-0.2868 15.73166,-0.5409 18.25435,-2.4145 z m 59.7789,76.344 c -0.26277,-0.6875 -0.36114,-30.05 -0.21861,-65.25 l 0.25915,-64 45.8853,-0.2602 c 33.0475,-0.1874 46.2671,0.057 47.25,0.8725 1.8042,1.4973 1.9461,21.9063 0.1647,23.6877 -0.8806,0.8806 -9.2735,1.2 -31.5308,1.2 l -30.33076,0 0.28078,12.25 0.28078,12.25 24,0.5 24,0.5 0.2808,12.25 c 0.1544,6.7375 0.1544,12.342 0,12.4543 -0.1544,0.1124 -11.0808,0.4499 -24.2808,0.75 l -24,0.5457 0,13.5 0,13.5 29.9158,0.2651 c 20.035,0.1776 30.3564,0.6309 31.25,1.3725 1.389,1.1528 1.9784,20.0201 0.7272,23.2806 -0.5414,1.411 -5.6209,1.5818 -47.0314,1.5818 -36.21802,0 -46.52941,-0.2748 -46.90214,-1.25 z m 249.00904,0 c -0.2578,-0.6875 -0.5812,-23.975 -0.7186,-51.75 l -0.2499,-50.5 -15.4773,-0.2773 c -8.5125,-0.1525 -15.844,-0.644 -16.2923,-1.0923 -0.4483,-0.4483 -0.9133,-6.1366 -1.0334,-12.6407 -0.1616,-8.7544 0.1277,-12.1715 1.1138,-13.1576 1.0711,-1.0711 10.4136,-1.3321 47.6892,-1.3321 40.8095,0 46.5452,0.1881 47.9286,1.5714 1.2289,1.229 1.5714,3.8588 1.5714,12.0658 0,5.7718 -0.4658,11.3647 -1.0352,12.4285 -0.9549,1.7844 -2.2338,1.9343 -16.5,1.9343 l -15.4648,0 0,50.4182 c 0,27.73 -0.2731,51.13 -0.607,52 -0.516,1.3446 -2.8448,1.5818 -15.5314,1.5818 -11.0228,0 -15.0469,-0.3268 -15.3931,-1.25 z M 991.5714,966.2688 c -15.16034,-5.46658 -28.17511,-17.18359 -36.7893,-33.1209 -3.47907,-6.43669 -5.02988,-10.51894 -10.2571,-27 -3.42289,-10.79213 -7.80637,-19.52982 -10.77268,-21.47342 -1.27096,-0.83276 -4.41065,-1.80193 -6.97708,-2.1537 -4.33446,-0.5941 -4.941,-0.39134 -8.53056,2.85161 -8.61797,7.78581 -24.17521,16.69363 -38.00303,21.7599 -16.01653,5.86817 -29.2905,17.9371 -31.62515,28.75414 -0.38443,1.7812 -1.12926,3.50447 -1.65517,3.8295 -1.80357,1.11467 -12.5861,-11.4124 -16.808,-19.52744 -5.97692,-11.48839 -8.08193,-20.73908 -8.08193,-35.51689 0,-6.68601 0.52423,-14.82653 1.16496,-18.09004 0.64072,-3.26351 1.19457,-11.05972 1.23077,-17.3249 l 0.0658,-11.39125 -4.95339,-4.35875 c -2.72435,-2.39732 -5.64654,-4.35876 -6.49373,-4.35876 -2.10486,0 -12.50259,13.15036 -18.13184,22.93197 -7.17824,12.4732 -9.38825,20.40437 -9.35367,33.56803 0.0204,7.75025 0.50595,12.18173 1.64367,15 0.88813,2.2 2.2048,5.44533 2.92593,7.21183 0.72114,1.76651 1.00595,3.51705 0.63291,3.89009 -1.87002,1.87002 -33.09696,-23.16561 -50.26371,-40.29803 -23.42026,-23.37342 -46.94084,-52.81558 -54.96565,-68.80389 -5.96878,-11.89197 -7.84344,-19.59112 -7.79166,-32 0.10238,-24.53477 12.70193,-49.93914 38.03961,-76.69896 7.37081,-7.78451 8.24837,-9.11737 8.23469,-12.50705 -0.008,-2.08669 -0.37366,-4.35839 -0.81163,-5.04821 -0.43797,-0.68982 -4.36858,-2.9925 -8.73469,-5.11705 -10.14171,-4.93498 -18.04789,-10.82076 -30.35509,-22.59796 -16.60421,-15.88915 -26.96554,-21.29788 -38.70043,-20.20206 -3.77573,0.35258 -6.56265,0.18938 -6.93053,-0.40586 -0.33842,-0.54757 1.50409,-5.36672 4.09445,-10.70922 3.90522,-8.05429 6.01902,-10.99482 12.37404,-17.21363 11.71538,-11.46426 20.78724,-16.2137 41.96461,-21.96991 12.88916,-3.50339 24.71798,-8.61465 27.93975,-12.07281 3.54652,-3.80674 2.80269,-7.30084 -3.18268,-14.9504 -6.62857,-8.4716 -13.41451,-21.55134 -17.57033,-33.86641 -5.12925,-15.19964 -8.8374,-21.93791 -16.1442,-29.33641 -5.21614,-5.28161 -7.59672,-6.94366 -11.27045,-7.86872 -2.56163,-0.64502 -4.65751,-1.7561 -4.65751,-2.46907 0,-1.9325 8.63597,-9.16783 15.4836,-12.97237 16.27037,-9.03981 38.25322,-11.20882 59.90443,-5.91066 3.36158,0.8226 11.28697,1.7301 17.61197,2.01667 12.67535,0.5743 15.31914,-0.13269 17.93691,-4.79657 1.35143,-2.40775 1.30565,-3.42963 -0.46978,-10.48554 -2.0157,-8.01081 -2.30967,-18.05184 -1.50246,-51.3178 0.40273,-16.59678 -1.74903,-23.97175 -9.07652,-31.10895 l -4.93955,-4.81127 2.28064,-1.49433 c 6.55947,-4.29793 25.64364,-5.81155 38.95538,-3.08965 9.37305,1.91654 24.62961,9.47478 36.31538,17.99097 15.42572,11.24174 29.84155,16.87573 37.07339,14.48901 1.78736,-0.58988 3.51073,-1.7526 3.8297,-2.58382 0.67161,-1.7502 -4.56279,-15.78753 -9.66511,-25.91939 -10.12077,-20.09717 -27.77453,-34.35733 -44.7272,-36.12923 -10.49236,-1.09667 -9.37019,-3.00321 5.48922,-9.32598 31.18444,-13.26918 72.09218,-23.33029 111.93942,-27.53109 18.36786,-1.93639 23.44209,-1.87354 34.90475,0.43233 29.91563,6.01793 52.44563,30.54492 66.67193,72.5814 2.0475,6.05 4.0566,12.575 4.4646,14.5 1.6952,7.99767 5.9575,8.92212 13.749,2.98202 7.4113,-5.6502 17.9113,-10.46111 34.9922,-16.03266 8.097,-2.64115 17.4582,-6.26054 20.8026,-8.0431 7.2688,-3.87423 15.4684,-12.48152 17.11,-17.96081 0.6501,-2.17 1.7017,-3.94545 2.3367,-3.94545 3.2468,0 11.7988,12.61694 15.5861,22.99433 5.7225,15.68014 5.8376,31.39394 0.3844,52.50567 -1.4207,5.5 -2.841,14.37566 -3.1563,19.72368 l -0.5733,9.72369 4.1403,4.14034 c 3.6669,3.66685 4.5125,4.06509 7.394,3.48226 1.7895,-0.36195 8.9826,-0.91621 15.9847,-1.23169 10.4282,-0.46983 15.178,-0.16956 26.2586,1.66003 18.3684,3.03289 30.708,2.60742 38.7697,-1.33679 3.131,-1.53186 6.5558,-3.88237 7.6106,-5.22336 2.9473,-3.74695 4.7307,-3.07179 6.1063,2.31184 3.1851,12.46496 1.9841,28.61028 -3.0931,41.58273 -2.8852,7.37181 -10.1177,18.65556 -17.6037,27.4643 -10.744,12.64234 -16.2808,21.7966 -16.2779,26.91313 8e-4,1.53441 0.7883,4.32195 1.75,6.19454 1.5176,2.95516 2.6066,3.63035 8.2484,5.1138 12.7523,3.35308 22.4242,8.07581 36.181,17.66688 11.9823,8.35394 26.1408,14.26978 34.2311,14.30275 1.6017,0.007 5.3087,-0.74359 8.2379,-1.66693 2.9291,-0.92334 5.6098,-1.39469 5.9571,-1.04745 1.2077,1.20775 -2.6734,15.21133 -6.1864,22.32106 -7.8856,15.95915 -19.3732,26.17271 -42.044,37.38116 -20.8325,10.29957 -30.2567,18.17384 -31.9632,26.70666 -0.4894,2.44674 -0.22,3.3408 1.2299,4.08191 3.9534,2.02074 15.4058,3.4494 27.8566,3.47504 22.2989,0.0459 35.4794,-4.97209 47.5942,-18.11989 4.2602,-4.62338 7.268,-7.14498 7.8293,-6.56366 1.825,1.89007 -1.9325,28.82511 -7.037,50.44397 -7.8172,33.10778 -23.1849,74.57992 -34.1628,92.19312 -9.8262,15.7656 -25.8557,27.28013 -44.2237,31.76749 -18.7599,4.5831 -46.6927,3.26313 -72.6017,-3.4308 -2.209,-0.57074 -3.6752,0.27256 -9.7157,5.58806 l -7.1141,6.26024 0.6013,10.56095 c 0.7282,12.78979 -0.4443,20.5533 -5.9747,39.56094 -3.6355,12.49497 -4.0792,15.18252 -4.1275,25 -0.057,11.56241 -0.025,11.67339 6.2046,21.6933 0.921,1.48132 1.3126,3.05632 0.8702,3.5 -0.4424,0.44369 -5.4478,0.95887 -11.1231,1.14484 -22.3371,0.73198 -39.2744,-7.56702 -60.8014,-29.79168 -14.7643,-15.24285 -24.5847,-21.32381 -29.4477,-18.23461 -0.6764,0.42968 -3.9403,6.16029 -7.2531,12.73469 -5.9497,11.80757 -8.6862,15.52923 -24.263,32.99831 -4.953,5.55466 -9.2186,11.6198 -11.8302,16.82102 -3.95381,7.87431 -4.07372,8.40293 -3.75408,16.54943 0.19766,5.03787 -0.0712,8.53434 -0.66982,8.71191 -0.55,0.16313 -3.25,-0.51471 -6,-1.50631 z m -7.70349,-37.20842 c 3.20695,-5.81251 7.70756,-11.6573 15.70349,-20.39363 9.4047,-10.27552 16.4747,-19.45429 16.4895,-21.40774 0.01,-1.11459 -1.2239,-1.24618 -6.2395,-0.66632 -3.4375,0.39742 -15.45468,0.9271 -26.70485,1.17707 -11.25016,0.24997 -20.57537,0.57503 -20.72269,0.72235 -0.14732,0.14732 2.0139,7.32851 4.80271,15.9582 4.8803,15.10162 11.20136,27.69759 13.89953,27.69759 0.58758,0 1.83489,-1.38939 2.77181,-3.08752 z M 1117.0746,899.3979 c 0.01,-5.14324 3.0442,-20.15813 6.0643,-29.96916 3.4852,-11.32221 5.4345,-23.17886 4.04,-24.57332 -0.5811,-0.58113 -4.8535,1.44954 -11.2717,5.35746 -5.6847,3.46132 -16.2983,9.1457 -23.5858,12.63195 -7.2875,3.48626 -13.25,6.69484 -13.25,7.13019 0,1.76758 22.9192,24.36693 28.5,28.10231 7.2502,4.85271 9.4987,5.16517 9.5032,1.32057 z m -262.4127,-3.77342 c 3.78787,-2.48788 10.49209,-5.97259 14.89827,-7.74379 12.32171,-4.9531 23.98224,-11.06892 24.27657,-12.73279 0.18583,-1.05059 -2.36084,-2.49439 -8.5,-4.81897 -4.82094,-1.82543 -15.22307,-6.50379 -23.11586,-10.39637 -15.59075,-7.68905 -16.08628,-7.71313 -16.1521,-0.78466 -0.0183,1.925 -0.62715,7.55 -1.35303,12.5 -1.9167,13.07061 -0.94477,28.5 1.79528,28.5 0.69511,0 4.363,-2.03554 8.15087,-4.52342 z m 149.4095,-39.90439 c 30.1397,-3.39453 55.1473,-10.90607 82,-24.63037 16.9356,-8.6557 41.6,-25.64173 40.7847,-28.08778 -0.1916,-0.57464 -7.084,-4.04895 -15.3165,-7.72067 -16.4486,-7.33613 -42.3496,-20.61257 -53.9437,-27.65062 -4.0838,-2.47908 -8.053,-4.74831 -8.8203,-5.04275 -0.9266,-0.35559 -4.994,4.34734 -12.1136,14.0064 -17.3664,23.56083 -47.37601,58.5536 -50.2152,58.5536 -1.85491,0 -1.76229,-1.16878 1.04307,-13.16134 11.6947,-49.99347 15.77223,-88.84652 15.47323,-147.43926 -0.1069,-20.95533 0.1322,-38.62903 0.5314,-39.2749 0.3991,-0.64586 3.9547,-2.79717 7.9013,-4.78068 42.3008,-21.25997 101.0012,-58.88933 139.5414,-89.45173 18.1563,-14.39792 17.8418,-14.17415 18.4751,-13.14949 0.9121,1.47577 -10.5402,34.17763 -24.7715,70.73458 -3.6349,9.33745 -6.4122,17.48998 -6.1717,18.11673 1.4331,3.7347 65.7663,38.32461 68.9833,37.09013 2.1223,-0.81438 2.619,-5.67949 2.619,-25.65004 0,-28.54933 -2.8173,-46.30621 -11.6671,-73.534 -3.9979,-12.30015 -17.6462,-40.35723 -25.6988,-52.8293 -17.0511,-26.40917 -45.7121,-53.9243 -74.1341,-71.17025 -11.0688,-6.71636 -32.4245,-16.74341 -34.205,-16.06017 -1.0854,0.41653 -1.3195,1.54468 -0.8947,4.31192 1.7753,11.56434 2.9076,28.76483 3.4683,52.68593 l 0.6314,26.93812 3,0.68023 c 1.65,0.37413 8.4,1.21319 15,1.86459 30.4902,3.00926 76.2489,11.75852 77.236,14.76783 0.2406,0.7335 -2.4113,2.00048 -6.923,3.30763 -56.1188,16.25882 -120.1035,45.12024 -166.12677,74.93432 -5.15284,3.33803 -10.05532,6.06915 -10.89441,6.06915 -0.83909,0 -8.22302,-4.1298 -16.40872,-9.17734 -45.94548,-28.3313 -101.03946,-56.01381 -145.3831,-73.04917 -15.47015,-5.94312 -17.93139,-7.17544 -16.73021,-8.37661 1.33883,-1.33884 45.42898,-9.20212 80.02142,-14.27147 7.03516,-1.03097 13.10104,-2.18433 13.47972,-2.56301 1.27891,-1.27891 1.47159,-41.63795 0.27575,-57.76054 -1.23557,-16.65842 -1.60581,-18.80186 -3.24768,-18.80186 -1.97178,0 -23.52093,11.0502 -32.211,16.5175 -28.45485,17.90217 -53.96864,42.93034 -71.85006,70.4825 -15.02102,23.1448 -26.20327,49.99241 -31.6546,76 -3.7842,18.05392 -4.58122,26.31591 -4.58229,47.5 -10e-4,21.7282 0.88714,32.5 2.6799,32.5 0.57038,0 4.97389,-2.88956 9.78559,-6.42125 12.85292,-9.43379 30.61981,-21.00613 46.78346,-30.47208 7.8375,-4.5899 14.25,-8.9104 14.25,-9.60112 0,-0.69073 -1.62449,-4.79954 -3.60997,-9.13071 -12.05786,-26.30316 -30.43018,-77.73469 -28.46891,-79.69596 0.52554,-0.52554 6.60069,4.25684 14.73652,11.60064 42.04378,37.95077 92.92723,72.96701 141.1464,97.1321 l 9.30405,4.66274 -0.68121,29.71282 c -1.14377,49.88916 2.05929,101.68781 9.16498,148.21282 1.38601,9.075 2.75017,17.2875 3.03147,18.25 1.14528,3.91878 -2.73801,1.35094 -9.82983,-6.5 -8.60055,-9.52117 -35.10437,-41.17264 -45.21769,-54 -3.79425,-4.8125 -7.31924,-8.75 -7.8333,-8.75 -2.13846,0 -37.48359,20.05508 -47.24251,26.80574 -14.39614,9.95842 -20.5,14.63308 -20.5,15.70001 0,1.90077 2.46276,3.64022 22,15.53864 34.34257,20.91504 53.86044,27.59817 96,32.87143 18.15154,2.27144 31.98084,2.46055 48,0.65637 z M 719.45353,623.6479 c 0.21372,-12.65 0.67102,-23.9 1.01623,-25 0.3452,-1.1 0.27126,-2.54063 -0.16433,-3.20139 -0.80897,-1.22716 -1.02602,-1.17466 -25.23403,6.1039 -9.04793,2.72042 -19.33734,8.27668 -19.73851,10.65876 -0.13787,0.81865 2.17067,2.89473 5.35635,4.81699 3.07925,1.85805 9.93743,7.50152 15.2404,12.54104 13.79547,13.11013 19.39499,17.65166 21.38854,17.34735 1.59084,-0.24285 1.78146,-2.31985 2.13535,-23.26665 z m 529.74987,-2.99808 c 3.2827,-1.92394 9.0259,-4.79909 12.7627,-6.38923 11.3534,-4.83129 24.1063,-13.81667 24.1042,-16.98315 -7e-4,-1.06619 -2.68,-2.83197 -7.75,-5.1077 -4.2619,-1.91298 -13.0216,-6.9588 -19.4661,-11.21292 -13.4313,-8.86636 -18.8493,-11.80892 -21.743,-11.80892 -1.1219,0 -2.0394,0.1125 -2.039,0.25 5e-4,0.1375 0.6953,3.57856 1.544,7.6468 2.4336,11.66522 4.4552,28.73711 4.4552,37.62295 0,7.27771 0.4062,9.48025 1.7484,9.48025 0.2283,0 3.1009,-1.57414 6.3836,-3.49808 z m -508.64425,-97.4727 c 3.17445,-7.57009 14.49335,-28.8742 19.55705,-36.80973 1.27873,-2.00396 1.27329,-2.39623 -0.0448,-3.23469 -0.825,-0.5248 -2.74535,-0.96107 -4.26745,-0.96949 -1.52209,-0.008 -7.14709,-0.97712 -12.5,-2.15267 -10.88569,-2.39061 -29.42259,-3.0726 -31.34208,-1.15311 -0.84229,0.84229 -0.23138,2.62254 2.38877,6.96109 4.14148,6.85766 5.69866,10.42054 10.39175,23.77668 4.6814,13.3229 9.31188,22.5527 11.31442,22.5527 0.40728,0 2.43333,-4.03685 4.50234,-8.97078 z m 475.38555,-19.85125 c 1.1052,-1.55212 5.1503,-6.54065 8.9892,-11.08562 7.2025,-8.52729 14.1375,-20.29466 14.1375,-23.98858 0,-1.98805 -0.5133,-2.10377 -9.3306,-2.10377 -5.1318,0 -14.2443,-0.89317 -20.25,-1.98481 -11.3724,-2.06716 -25.4194,-2.67811 -25.4194,-1.10557 0,0.50029 2.9564,4.87509 6.5698,9.72177 3.6134,4.84668 9.5339,13.77485 13.1567,19.84038 9.3527,15.65919 8.9025,15.26236 12.1468,10.7062 z M 808.63431,431.04938 c 4.01725,-4.23805 20.0838,-16.25301 30.63806,-22.91188 4.78553,-3.01928 8.72303,-6.0154 8.75,-6.65804 0.027,-0.64264 -1.63847,-2.17899 -3.70097,-3.41411 -2.0625,-1.23512 -8.06208,-5.31017 -13.3324,-9.05567 -10.09238,-7.17243 -20.96079,-12.82164 -25.31841,-13.16007 l -2.59729,-0.20171 -0.54034,29.25 c -0.51726,28.00037 -0.46121,29.25 1.31196,29.25 1.01876,0 3.17399,-1.39434 4.78939,-3.09852 z m 328.86399,-28.14371 c 1.4975,-6.45823 3.1392,-14.55823 3.6481,-18 1.0885,-7.36157 0.2404,-16.75777 -1.5126,-16.75777 -0.664,0 -3.6496,1.31827 -6.6348,2.9295 -6.5404,3.53014 -13.4834,6.15813 -25.2351,9.55168 -10.3149,2.97867 -18.6925,6.97962 -18.6925,8.92709 0,0.75601 1.9125,2.13813 4.25,3.07137 5.6248,2.24568 21.1714,11.00896 31.7466,17.8948 4.6731,3.04282 8.769,5.21586 9.102,4.82898 0.333,-0.38688 1.8307,-5.98742 3.3283,-12.44565 z"
         id="path4080"
         inkscape:connector-curvature="0"
         sodipodi:nodetypes="sssssssssssssscssssssssssssssscssssssssssssscssssscsssssscccccscssscscsssscsssscccccscscccssssssscssssssssscscssssssssssssssscssssssssssscssssssssssssssssssssscsssssssssssssssssssscssssssssssssscscsssssssssssscsssssssssssscssscsssssssssssssssscsssssssssssssssscssssssssssssscssssssssssssssssssssssssscsssssssssssssssssssssssssssssssssscssssssssssssssssscssscsssssssssssss" />
      <path
         style="fill:#007c31"
         d="m 739.33108,1158.7136 c -18.07218,-5.8527 -30.27038,-19.6535 -36.48127,-41.2742 -1.87187,-6.5162 -2.23823,-10.2467 -2.23823,-22.7915 0,-17.1172 1.70616,-25.0819 8.0874,-37.7533 7.07093,-14.041 21.55775,-24.9828 36.87242,-27.8494 8.62218,-1.614 26.60363,-0.5732 33.73308,1.9524 15.9964,5.6667 27.33117,20.0578 30.75494,39.0476 1.31994,7.321 0.85417,8.0621 -5.08246,8.0874 -1.97694,0.01 -8.32995,0.3051 -14.1178,0.6592 l -10.52337,0.6439 -1.04943,-5.8939 c -1.45136,-8.1513 -2.56411,-10.6677 -6.78153,-15.3359 -4.25941,-4.7147 -11.68605,-7.4615 -17.38818,-6.4312 -12.27882,2.2185 -18.82715,12.8114 -21.13108,34.1827 -2.01156,18.6592 1.4692,37.0931 8.33716,44.1531 12.87072,13.2306 32.88479,7.1365 38.35448,-11.6786 l 1.62305,-5.5831 13.58768,0.6517 c 7.47323,0.3584 14.00852,1.0725 14.52289,1.5868 0.58028,0.5803 0.29996,3.4642 -0.73861,7.5987 -4.755,18.9298 -16.84608,31.3855 -35.75473,36.833 -8.8035,2.5363 -25.46605,2.1483 -34.58641,-0.8054 z m 350.58792,0.062 c -14.3928,-4.2604 -23.337,-11.4019 -28.9658,-23.1276 -4.8192,-10.0393 -5.1187,-9.7166 12.5539,-13.5276 8.1981,-1.7679 11.0372,-2.0537 11.3412,-1.1418 1.5564,4.6694 7.2161,10.9191 12.1524,13.4194 4.7728,2.4175 6.5612,2.75 14.7899,2.75 7.3429,0 10.1937,-0.4251 13.2261,-1.9721 5.413,-2.7615 8.0547,-6.4611 8.0547,-11.2804 0,-3.2742 -0.6672,-4.6448 -3.75,-7.7037 -3.9087,-3.8785 -7.4507,-5.0948 -27.75,-9.5296 -9.1899,-2.0077 -20.8999,-7.0789 -26.3939,-11.4301 -2.0784,-1.6462 -5.3125,-5.826 -7.1869,-9.2886 -3.2597,-6.0214 -3.4083,-6.7526 -3.4136,-16.7955 -0.01,-9.7346 0.2266,-10.9902 3.1801,-17.2248 5.4776,-11.563 17.0985,-20.3246 30.2008,-22.7699 12.6201,-2.3553 31.3679,-0.481 40.7842,4.0773 9.2369,4.4715 21.841,19.5357 20.113,24.0387 -0.3065,0.7987 -5.2207,2.9369 -10.9205,4.7516 -5.6997,1.8147 -10.8434,3.4958 -11.4303,3.7357 -0.5869,0.2399 -2.54,-1.8369 -4.3402,-4.6151 -4.5376,-7.0027 -10.5505,-9.9935 -20.0916,-9.9935 -3.8859,0 -8.5134,0.617 -10.2832,1.3711 -10.6054,4.5189 -10.9639,15.7872 -0.6728,21.1437 1.3998,0.7285 8.1498,2.4978 15,3.9317 25.4789,5.3332 34.372,9.9425 42.0236,21.7811 9.6441,14.9214 6.5786,35.3059 -7.2806,48.412 -6.4558,6.1051 -11.0546,8.5959 -20.9157,11.3286 -10.6391,2.9482 -29.4555,2.7881 -40.0248,-0.3406 z m -257.18093,-0.2943 c -0.36667,-0.3666 -0.66667,-29.0766 -0.66667,-63.8 0,-47.7703 0.29201,-63.4253 1.2,-64.3333 0.87715,-0.8771 8.7466,-1.1953 29.25,-1.1827 41.53237,0.026 52.14665,1.6658 61.259,9.4656 12.85284,11.0016 17.01355,31.2188 9.49147,46.12 -3.02049,5.9835 -10.06906,13.4688 -14.64727,15.5548 -1.34375,0.6123 -2.66128,1.6816 -2.92785,2.3762 -0.26657,0.6947 3.35928,10.4213 8.05745,21.6146 4.69817,11.1933 9.80155,23.354 11.34085,27.0237 1.53929,3.6696 2.53868,6.9321 2.22087,7.25 -0.31782,0.3178 -7.69681,0.5778 -16.39777,0.5778 l -15.81991,0 -1.51741,-3.6317 c -0.83458,-1.9974 -4.43354,-11.3349 -7.9977,-20.75 -3.56415,-9.4151 -7.49985,-19.1433 -8.746,-21.6183 l -2.26573,-4.5 -10.41821,-0.2868 c -7.66142,-0.211 -10.63427,0.054 -11.23469,1 -0.44906,0.7077 -0.82337,12.1993 -0.83179,25.5368 l -0.0153,24.25 -14.33333,0 c -7.88334,0 -14.63334,-0.3 -15.00001,-0.6667 z m 61.50106,-73.3632 c 7.11205,-1.9753 12.84706,-11.7473 11.40515,-19.4333 -0.90275,-4.8121 -6.74574,-11.2127 -11.42134,-12.5114 -5.28378,-1.4676 -29.44563,-1.3313 -30.95154,0.1746 -1.67494,1.6749 -1.67494,29.9251 0,31.6 1.50837,1.5084 25.67165,1.6411 30.96773,0.1701 z m 64.07492,9.7899 0.25735,-64.26 46,0 46,0 0.2823,10.6007 c 0.2135,8.0158 -0.051,10.8773 -1.0842,11.7349 -0.935,0.776 -10.8129,1.2178 -31.2823,1.3993 l -29.9158,0.2651 -0.27988,12.75 c -0.15393,7.0125 -0.15393,12.842 0,12.9543 0.15394,0.1124 11.07988,0.4499 24.27988,0.75 l 24,0.5457 0,11.5 0,11.5 -24,0.5 -24,0.5 -0.27746,14.25 c -0.1526,7.8375 -0.1526,14.3462 0,14.4637 0.1526,0.1175 14.22746,0.455 31.27746,0.75 l 31,0.5363 0,11.5 0,11.5 -46.2573,0.26 -46.2574,0.26 z m 248.75735,13.4667 c 0,-38.1985 -0.2981,-51.1248 -1.2,-52.0267 -0.8237,-0.8237 -5.7778,-1.2 -15.8,-1.2 -10.0222,0 -14.9763,-0.3763 -15.8,-1.2 -0.7824,-0.7824 -1.2,-4.8889 -1.2,-11.8 0,-6.9111 0.4176,-11.0176 1.2,-11.8 0.8986,-0.8986 12.7778,-1.2 47.3,-1.2 34.5222,0 46.4014,0.3014 47.3,1.2 1.354,1.354 1.6898,21.4809 0.3925,23.5228 -0.5444,0.8568 -5.4044,1.3058 -16.2347,1.5 l -15.4578,0.2772 -0.5,51.5 -0.5,51.5 -14.75,0.2767 -14.75,0.2768 z M 780.42649,904.5276 c -26.3844,-18.87798 -57.59822,-50.4106 -80.60574,-81.42899 -13.90404,-18.74522 -18.6833,-28.86117 -20.74319,-43.90571 -3.14533,-22.97219 7.15341,-49.38632 29.64957,-76.045 10.80523,-12.80455 25.86131,-27.88513 35.02152,-35.07852 20.38824,-16.01059 46.12742,-33.36423 68.11145,-45.92148 8.22875,-4.70025 13.1454,-8.10667 13.17079,-9.12516 0.0223,-0.89383 -1.58008,-5.16883 -3.56081,-9.5 -10.29756,-22.51723 -28.39868,-71.54314 -28.39868,-76.91631 0,-2.34917 0.89052,-1.80406 7.98287,4.8865 38.71732,36.52396 94.59084,75.54508 143.81791,100.43999 l 11.30078,5.71498 -0.68057,29 c -1.11311,47.43113 2.12446,101.78282 8.60745,144.5 3.23925,21.34383 3.30737,22 2.28397,22 -1.54759,0 -23.75193,-25.819 -49.23498,-57.25 -5.68547,-7.0125 -10.79562,-12.75 -11.35589,-12.75 -2.65792,0 -33.0682,17.48991 -49.76489,28.62136 -14.0338,9.35614 -25.40242,18.72313 -41.00888,33.7886 -15.3929,14.85932 -25.81278,31.43678 -29.44635,46.84754 -2.6985,11.44497 -1.55038,24.95154 2.84281,33.44284 3.1018,5.99528 1.97562,5.80912 -7.98914,-1.32064 z M 986.0714,832.73656 c 0,-0.22623 1.08831,-5.06373 2.41847,-10.75 2.88345,-12.32644 6.0279,-27.86669 7.454,-36.83866 2.64325,-16.62928 3.14175,-20.07995 4.11723,-28.5 3.3276,-28.72108 4.0927,-45.0043 3.8764,-82.5 l -0.222,-38.5 6.428,-3.36194 c 37.8852,-19.81478 80.4565,-45.92173 113.9279,-69.86668 13.174,-9.42449 36.1874,-27.16487 40.2396,-31.01952 1.5067,-1.43333 3.0736,-2.27204 3.4818,-1.8638 1.0996,1.09959 -8.1951,27.83822 -22.9264,65.95404 -7.874,20.37317 -8.0129,20.8837 -6.1751,22.69144 3.5834,3.52476 28.9656,18.11628 46.8801,26.95003 18.0759,8.91336 47.0868,19.43175 62.4751,22.65139 10.3529,2.16611 32.9735,1.8061 41.8973,-0.66681 12.7242,-3.52605 22.9724,-10.04669 29.0157,-18.46186 5.3482,-7.44726 5.584,-5.83092 2.4793,16.99371 -4.1157,30.25668 -16.2789,70.98059 -31.1618,104.33398 -13.5762,30.42476 -31.6745,44.76211 -62.1245,49.21448 -10.8926,1.59271 -31.4209,0.71231 -45.0811,-1.9334 -5.775,-1.11851 -13.2,-2.55099 -16.5,-3.18331 -7.9646,-1.52609 -30.3547,-8.55693 -35.171,-11.04422 -2.1059,-1.08758 -6.754,-3.13979 -10.329,-4.56046 -11.8581,-4.71229 -42.2981,-19.82842 -57.6739,-28.6402 -8.3369,-4.77778 -15.4242,-8.68687 -15.7497,-8.68687 -0.3255,0 -5.1772,6.1875 -10.7817,13.75 -16.6741,22.49955 -28.9328,37.28369 -42.70293,51.5 -5.73964,5.92563 -8.09177,7.76817 -8.09177,6.33866 z m -20,-240.55278 c -42.82607,-27.66417 -112.21306,-62.0119 -162.41722,-80.39926 -1.25372,-0.45918 -1.57763,-1.04177 -0.93596,-1.68344 0.99994,-0.99994 4.87606,-1.7816 34.85318,-7.02849 17.33908,-3.03486 21.69039,-3.72323 43.30299,-6.85048 6.76665,-0.97911 12.8346,-2.3118 13.48435,-2.96155 2.77267,-2.77267 1.73417,-64.2873 -1.31027,-77.61266 -0.50263,-2.2 -2.09199,-10.3 -3.53191,-18 -3.12942,-16.73465 -4.19502,-20.6224 -8.50811,-31.04084 -8.29159,-20.02869 -20.3171,-34.21093 -35.0142,-41.29389 -4.63257,-2.23256 -10.79545,-4.36739 -13.69529,-4.74405 -2.89985,-0.37666 -5.50324,-1.05827 -5.78532,-1.51468 -1.82124,-2.94682 41.05482,-18.29996 69.14212,-24.75856 12.3043,-2.82934 36.0531,-6.79613 54.41564,-9.08911 29.02046,-3.62387 49.62102,2.18895 67.3998,19.01805 16.1112,15.25059 25.255,32.25549 36.0039,66.95725 4.698,15.16699 7.4868,28.80561 8.6695,42.3976 0.5298,6.08753 1.4462,15.07137 2.0366,19.9641 0.5903,4.89272 1.3697,21.75798 1.7318,37.47834 l 0.6584,28.58248 4.5,0.65856 c 2.475,0.3622 9.675,1.19692 16,1.85493 14.8347,1.54329 51.1958,7.47345 61.5,10.03008 4.4,1.09171 9.0125,2.22183 10.25,2.51139 3.5312,0.82623 2.653,2.14944 -2.2452,3.38282 -8.7139,2.19419 -39.0844,12.39026 -52.9614,17.78035 -38.9633,15.13411 -87.618,39.65887 -115.0345,57.98396 -4.3951,2.93767 -8.8951,5.30039 -10,5.25048 -1.10489,-0.0499 -6.7339,-3.14293 -12.5089,-6.87338 z"
         id="path4078"
         inkscape:connector-curvature="0"
         sodipodi:nodetypes="ssssssscscsssssscssssssssssssssssscssssscssssssssssssssssssscscssscssscssssssssccccssscscscccccsssccccccsssssssssscccccssssssscsssscssssssssssssssscssscssssssssssssssssssssssssssssssssssssscsssssssss" />
    </g>
    <text
       xml:space="preserve"
       style="font-style:normal;font-variant:normal;font-weight:bold;font-stretch:normal;font-size:89.41954041px;line-height:125%;font-family:Tunga;-inkscape-font-specification:'Tunga Bold';text-align:center;letter-spacing:0px;word-spacing:0px;text-anchor:middle;fill:#007c31;fill-opacity:1;stroke:none;stroke-width:1px;stroke-linecap:butt;stroke-linejoin:miter;stroke-opacity:1"
       x="1012.2795"
       y="1255.8927"
       id="text4135"
       sodipodi:linespacing="125%"><tspan
         sodipodi:role="line"
         x="1012.2795"
         y="1255.8927"
         id="tspan4139">Loughborough</tspan></text>
    <rect
       style="opacity:1;fill:#96c124;fill-opacity:1;fill-rule:nonzero;stroke:none;stroke-width:0.5;stroke-linecap:round;stroke-linejoin:miter;stroke-miterlimit:4;stroke-dasharray:none;stroke-dashoffset:0;stroke-opacity:1"
       id="rect4147"
       width="569.47491"
       height="5.7142849"
       x="716.74304"
       y="1174.1447"
       ry="0.50187194" />
    <text
       sodipodi:linespacing="125%"
       id="text4140"
       y="1355.8927"
       x="1012.2795"
       style="font-style:normal;font-variant:normal;font-weight:bold;font-stretch:normal;font-size:89.41954041px;line-height:125%;font-family:Tunga;-inkscape-font-specification:'Tunga Bold';text-align:center;letter-spacing:0px;word-spacing:0px;text-anchor:middle;fill:#007c31;fill-opacity:1;stroke:none;stroke-width:1px;stroke-linecap:butt;stroke-linejoin:miter;stroke-opacity:1"
       xml:space="preserve"><tspan
         id="tspan4144"
         y="1355.8927"
         x="1012.2795"
         sodipodi:role="line">University</tspan></text>
  </g>
</svg>
