<?xml version="1.0" encoding="UTF-8" standalone="no"?>
<!-- Created with Inkscape (http://www.inkscape.org/) -->

<svg
   xmlns:dc="http://purl.org/dc/elements/1.1/"
   xmlns:cc="http://creativecommons.org/ns#"
   xmlns:rdf="http://www.w3.org/1999/02/22-rdf-syntax-ns#"
   xmlns:svg="http://www.w3.org/2000/svg"
   xmlns="http://www.w3.org/2000/svg"
   xmlns:xlink="http://www.w3.org/1999/xlink"
   xmlns:sodipodi="http://sodipodi.sourceforge.net/DTD/sodipodi-0.dtd"
   xmlns:inkscape="http://www.inkscape.org/namespaces/inkscape"
   width="240"
   height="240"
   id="svg2"
   version="1.1"
   inkscape:version="0.91 r13725"
   sodipodi:docname="logo.svg"
   inkscape:export-filename="C:\Users\karl\Desktop\logo.png"
   inkscape:export-xdpi="149.87285"
   inkscape:export-ydpi="149.87285">
  <defs
     id="defs4">
    <linearGradient
       gradientTransform="matrix(0.950226,0,0,0.868966,0.142211,18.84154)"
       gradientUnits="userSpaceOnUse"
       xlink:href="#linearGradient28888"
       id="linearGradient28894"
       y2="102.36218"
       x2="634.28571"
       y1="102.36218"
       x1="2.8571429" />
    <linearGradient
       id="linearGradient28888">
      <stop
         id="stop28890"
         offset="0"
         style="stop-color:black;stop-opacity:1" />
      <stop
         id="stop29799"
         offset="0.05"
         style="stop-color:#35005e;stop-opacity:1" />
      <stop
         id="stop28896"
         offset="0.1"
         style="stop-color:#5000a2;stop-opacity:1" />
      <stop
         id="stop29801"
         offset="0.15000001"
         style="stop-color:#4a00d3;stop-opacity:1" />
      <stop
         id="stop28898"
         offset="0.2"
         style="stop-color:#2802e9;stop-opacity:1" />
      <stop
         id="stop29803"
         offset="0.25"
         style="stop-color:#0e3af8;stop-opacity:1" />
      <stop
         id="stop28900"
         offset="0.30000001"
         style="stop-color:#018de6;stop-opacity:1" />
      <stop
         id="stop29805"
         offset="0.35000002"
         style="stop-color:#00cea0;stop-opacity:1" />
      <stop
         id="stop28902"
         offset="0.40000001"
         style="stop-color:#00d24a;stop-opacity:1" />
      <stop
         id="stop29807"
         offset="0.44999999"
         style="stop-color:#00bc0d;stop-opacity:1" />
      <stop
         id="stop28904"
         offset="0.5"
         style="stop-color:#00b700;stop-opacity:1" />
      <stop
         id="stop29809"
         offset="0.55000001"
         style="stop-color:#00bc0d;stop-opacity:1" />
      <stop
         id="stop28906"
         offset="0.60000002"
         style="stop-color:#65d200;stop-opacity:1" />
      <stop
         id="stop29811"
         offset="0.64999998"
         style="stop-color:#bad600;stop-opacity:1" />
      <stop
         id="stop28908"
         offset="0.69999999"
         style="stop-color:#f9b700;stop-opacity:1" />
      <stop
         id="stop29813"
         offset="0.75"
         style="stop-color:#ff7a00;stop-opacity:1" />
      <stop
         id="stop28910"
         offset="0.80000001"
         style="stop-color:#f40;stop-opacity:1" />
      <stop
         id="stop29815"
         offset="0.85000002"
         style="stop-color:#ff2501;stop-opacity:1" />
      <stop
         id="stop28912"
         offset="0.89999998"
         style="stop-color:#d00e00;stop-opacity:1" />
      <stop
         id="stop29817"
         offset="0.94999999"
         style="stop-color:#7b0200;stop-opacity:1" />
      <stop
         id="stop28892"
         offset="1"
         style="stop-color:black;stop-opacity:1" />
    </linearGradient>
    <linearGradient
       inkscape:collect="always"
       xlink:href="#linearGradient28888"
       id="linearGradient3143"
       gradientUnits="userSpaceOnUse"
       gradientTransform="matrix(0,-0.10726637,1.7821122,0,-61.90982,153.65898)"
       x1="2.8571429"
       y1="102.36218"
       x2="634.28571"
       y2="102.36218" />
    <linearGradient
       inkscape:collect="always"
       xlink:href="#linearGradient28888"
       id="linearGradient4236"
       gradientUnits="userSpaceOnUse"
       gradientTransform="matrix(0,-0.10726637,1.7821122,0,-61.90982,966.02116)"
       x1="2.8571429"
       y1="102.36218"
       x2="634.28571"
       y2="102.36218" />
  </defs>
  <sodipodi:namedview
     id="base"
     pagecolor="#ffffff"
     bordercolor="#666666"
     borderopacity="1.0"
     inkscape:pageopacity="0"
     inkscape:pageshadow="2"
     inkscape:zoom="1.4"
     inkscape:cx="170.67317"
     inkscape:cy="143.78047"
     inkscape:document-units="px"
     inkscape:current-layer="layer1"
     showgrid="false"
     inkscape:window-width="1440"
     inkscape:window-height="837"
     inkscape:window-x="1358"
     inkscape:window-y="-8"
     inkscape:window-maximized="1"
     borderlayer="true" />
  <metadata
     id="metadata7">
    <rdf:RDF>
      <cc:Work
         rdf:about="">
        <dc:format>image/svg+xml</dc:format>
        <dc:type
           rdf:resource="http://purl.org/dc/dcmitype/StillImage" />
        <dc:title></dc:title>
      </cc:Work>
    </rdf:RDF>
  </metadata>
  <g
     inkscape:label="Layer 1"
     inkscape:groupmode="layer"
     id="layer1"
     transform="translate(0,-812.36218)">
    <rect
       style="opacity:1;fill:#cccccc;fill-opacity:1;stroke:none;stroke-width:10;stroke-miterlimit:4;stroke-dasharray:none;stroke-dashoffset:0;stroke-opacity:1"
       id="rect4277"
       width="230.00002"
       height="232.14285"
       x="5.7142854"
       y="816.64789"
       ry="24.285713" />
    <text
       xml:space="preserve"
       style="font-style:normal;font-variant:normal;font-weight:normal;font-stretch:normal;font-size:130.52461243px;line-height:125%;font-family:'Bauhaus 93';-inkscape-font-specification:'Bauhaus 93, ';letter-spacing:0px;word-spacing:0px;fill:#ffffff;fill-opacity:1;stroke:#000000;stroke-width:3.97923708;stroke-miterlimit:4;stroke-dasharray:none;stroke-opacity:1;"
       x="-1.3480512"
       y="811.22443"
       id="text3145"
       sodipodi:linespacing="125%"
       transform="scale(0.77443732,1.2912601)"><tspan
         sodipodi:role="line"
         id="tspan3147"
         x="-1.3480512"
         y="811.22443"
         style="font-style:normal;font-variant:normal;font-weight:normal;font-stretch:normal;font-family:'Bauhaus 93';-inkscape-font-specification:'Bauhaus 93, ';fill:#ffffff;stroke:#000000;stroke-width:3.97923708;stroke-miterlimit:4;stroke-dasharray:none;stroke-opacity:1;fill-opacity:1;">d</tspan></text>
    <path
       style="color:#000000;display:inline;overflow:visible;visibility:visible;fill:url(#linearGradient3143);fill-opacity:1;fill-rule:nonzero;stroke:none;stroke-width:0.30000001;marker:none"
       d="M 109.40234 110.8457 C 109.24792 110.8196 109.19622 110.90421 109.19922 110.9043 C 109.20285 110.9044 109.34364 110.89181 109.45312 110.88281 C 109.44282 110.88031 109.41234 110.8477 109.40234 110.8457 z "
       id="path4234"
       transform="translate(0,812.36218)" />
    <path
       style="color:#000000;display:inline;overflow:visible;visibility:visible;fill:url(#linearGradient3143);fill-opacity:1;fill-rule:nonzero;stroke:none;stroke-width:0.30000001;marker:none"
       d="M 55.880859 85.617188 C 55.524553 87.572304 55.03537 89.494441 54.751953 91.265625 C 54.721433 91.456235 54.704684 91.521634 54.708984 91.490234 L 54.707031 91.5 C 54.474926 93.13646 54.308287 94.820501 54.117188 96.488281 C 54.231493 96.380681 54.309816 96.317321 54.425781 96.207031 C 56.006961 94.703354 57.701926 93.371173 59.488281 92.21875 C 61.274636 91.066327 63.152021 90.093319 65.103516 89.308594 C 67.055011 88.523868 69.07965 87.927928 71.15625 87.527344 C 73.23285 87.126759 75.361767 86.921875 77.523438 86.921875 C 80.487228 86.921875 82.826841 87.119234 85.119141 87.646484 C 87.411441 88.173734 89.656434 89.030869 92.433594 90.349609 L 92.435547 90.349609 C 94.360147 91.263419 95.804154 92.061102 97.154297 93.017578 C 98.504439 93.974054 99.76072 95.089328 101.3125 96.632812 C 103.27247 98.582613 104.99307 100.71352 106.40625 102.94336 C 107.11284 104.05828 107.74186 105.19815 108.28711 106.35156 C 108.83236 107.50497 109.29268 108.67286 109.66016 109.84375 C 109.76405 110.17491 109.88345 110.47409 109.99805 110.77148 C 110.40844 110.69373 110.85275 110.60873 111.37891 110.4375 L 111.39453 110.43359 L 111.41016 110.42773 C 112.57871 110.06844 113.80409 109.82414 115.25781 109.67188 C 116.71153 109.51961 118.39359 109.45939 120.47461 109.46289 L 120.47852 109.46289 C 122.92043 109.46299 124.59861 109.53253 126.06641 109.74414 C 127.5342 109.95575 128.79162 110.30942 130.39648 110.87695 L 130.39844 110.87695 C 131.19607 111.15947 131.89069 111.3697 132.5 111.54297 C 132.87715 109.82024 133.76241 107.65283 134.87891 105.49023 C 135.9954 103.32764 137.34314 101.16987 138.65039 99.462891 L 138.65234 99.462891 C 140.00534 97.696561 141.79836 95.912829 143.7832 94.304688 C 145.76805 92.696546 147.94471 91.263997 150.06445 90.201172 L 150.06641 90.201172 C 151.65093 89.406799 153.41174 88.750157 155.27344 88.238281 C 157.13514 87.726406 159.09797 87.357962 161.08789 87.142578 C 163.07781 86.927194 165.09525 86.863884 167.06445 86.958984 C 169.03365 87.054085 170.95438 87.308936 172.75391 87.728516 C 174.84572 88.216481 177.11723 89.042693 179.25781 90.052734 C 181.3984 91.062776 183.40806 92.256639 184.97461 93.480469 C 184.95041 93.296569 184.93085 93.109031 184.90625 92.925781 L 184.90234 92.884766 L 184.89844 92.841797 C 184.90904 92.958827 184.92548 93.080677 184.89258 92.841797 C 184.52577 90.508246 184.08898 88.254613 183.625 85.617188 L 55.880859 85.617188 z "
       id="path4232"
       transform="translate(0,812.36218)" />
    <path
       style="color:#000000;display:inline;overflow:visible;visibility:visible;fill:url(#linearGradient3143);fill-opacity:1;fill-rule:nonzero;stroke:none;stroke-width:0.30000001;marker:none"
       d="M 183.6582 153.34766 C 183.91912 151.86106 184.26719 150.44311 184.49414 148.93164 L 184.49414 148.91992 L 184.51367 148.78516 C 184.61791 148.08762 184.69912 147.36899 184.79492 146.66406 C 184.39233 146.92651 184.22787 147.00532 183.72852 147.3418 L 183.72656 147.3418 C 182.06217 148.46312 180.33235 149.4177 178.55859 150.21094 C 176.78484 151.00418 174.96653 151.63473 173.12305 152.10352 C 171.27957 152.57231 169.41263 152.87937 167.53906 153.02734 C 165.6655 153.17532 163.78588 153.16529 161.92188 152.99609 C 160.05787 152.8269 158.20934 152.50032 156.39453 152.01758 C 154.57972 151.53484 152.79824 150.89616 151.07227 150.10352 C 149.34629 149.31087 147.67562 148.36259 146.07812 147.26367 C 144.48063 146.16475 142.95672 144.91523 141.52734 143.51367 C 140.43556 142.44316 139.44656 141.36356 138.55078 140.25977 C 137.655 139.15597 136.85237 138.02788 136.13281 136.85742 C 135.41325 135.68696 134.77601 134.47362 134.21289 133.20312 C 133.64977 131.93263 133.16083 130.60509 132.73438 129.20117 C 132.28425 127.71953 131.97132 126.92725 131.70312 126.49023 C 131.43494 126.05322 131.18828 125.81539 130.42383 125.26758 L 130.42383 125.26562 C 129.15652 124.3572 127.53433 123.63578 125.74023 123.14648 C 123.94614 122.65719 121.98014 122.40001 120.02344 122.41406 L 119.83008 122.41797 C 118.00753 122.45814 116.21198 122.71441 114.5918 123.20898 C 112.75625 123.76989 111.91623 124.22148 111.47852 124.68164 C 111.0408 125.14179 110.70697 125.87953 110.35156 127.60352 C 109.90338 129.77748 108.98565 132.21851 107.78711 134.58203 C 106.58856 136.94555 105.1092 139.23154 103.53711 141.09375 C 101.94971 142.97397 100.21016 144.63457 98.355469 146.07617 C 96.500775 147.51777 94.530435 148.73983 92.478516 149.74023 C 90.426596 150.74064 88.294311 151.51953 86.115234 152.07617 C 83.936158 152.63281 81.710775 152.96782 79.474609 153.07812 C 77.238444 153.18843 74.990764 153.07494 72.767578 152.73633 C 70.544392 152.39771 68.345216 151.83308 66.205078 151.04297 C 64.06494 150.25286 61.983115 149.23636 59.996094 147.99219 C 58.009072 146.74801 56.117352 145.27699 54.353516 143.57617 C 54.754691 146.88853 55.268392 150.12075 55.789062 153.34766 L 183.6582 153.34766 z "
       id="path4230"
       transform="translate(0,812.36218)" />
    <path
       style="color:#000000;display:inline;overflow:visible;visibility:visible;fill:url(#linearGradient4236);fill-opacity:1;fill-rule:nonzero;stroke:none;stroke-width:0.30000001;marker:none"
       d="m 51.492188,915.22546 c -0.436205,5.39196 -0.69336,10.88352 -0.69336,16.48242 0,6.06539 0.282887,12.01412 0.792969,17.83399 0.249651,-0.0325 0.57933,-0.16516 0.724609,-0.14258 0.279182,0.0434 0.43136,0.10946 0.558594,0.16406 0.254467,0.10926 0.398757,0.20423 0.550781,0.30469 0.304048,0.20091 0.592493,0.42903 0.927735,0.70898 0.670484,0.55991 1.485755,1.31133 2.34375,2.16797 1.564094,1.56158 3.244305,2.91442 5.007812,4.06055 1.763507,1.14613 3.610736,2.08503 5.511719,2.81836 1.900982,0.73333 3.855511,1.26082 5.832031,1.58398 1.97652,0.32317 3.974725,0.44178 5.964844,0.35742 1.990118,-0.0843 3.972278,-0.37209 5.914058,-0.86132 1.94179,-0.48924 3.84233,-1.1808 5.67383,-2.07227 1.83151,-0.89147 3.59267,-1.98237 5.25196,-3.27344 1.65928,-1.29106 3.21744,-2.78072 4.64257,-4.46875 1.30549,-1.54639 2.6247,-3.65413 3.70313,-5.78711 1.07843,-2.13298 1.91606,-4.2912 2.25586,-5.93945 0.20381,-0.98862 0.4378,-1.88928 0.77148,-2.69922 0.33368,-0.80994 0.76706,-1.52916 1.36914,-2.16211 0.60209,-0.63294 1.29776,-1.11199 2.09961,-1.50976 0.80185,-0.39778 1.70989,-0.71428 2.73438,-1.02735 1.40788,-0.42976 2.89559,-0.52262 4.36914,-0.66601 l 0,-0.29297 1.95312,-0.0332 0,-0.002 c 2.36127,-0.041 4.72984,0.23519 6.94727,0.83594 1.10872,0.30038 2.17954,0.68219 3.19336,1.14648 1.01381,0.4643 1.96999,1.0101 2.84961,1.64063 0.93282,0.66847 1.74942,1.39257 2.35351,2.37695 0.6041,0.98439 0.97005,2.07035 1.44532,3.63477 l 0.002,0 c 0.77015,2.53539 1.7128,4.71273 2.96289,6.74609 1.25009,2.03337 2.80762,3.92276 4.80664,5.88282 1.26657,1.24191 2.61367,2.35091 4.02344,3.32421 1.40977,0.97331 2.8828,1.81211 4.40234,2.51368 1.51954,0.70156 3.08576,1.26666 4.68164,1.69335 1.59588,0.4267 3.22059,0.71457 4.85938,0.86329 1.63879,0.14871 3.29118,0.15779 4.93945,0.0254 1.64827,-0.1324 3.29365,-0.40563 4.91797,-0.82227 1.62432,-0.41663 3.22798,-0.97764 4.79492,-1.68164 1.56694,-0.704 3.09614,-1.55239 4.57227,-2.54687 1.50925,-1.01699 2.59778,-1.72449 3.46484,-2.19922 0.43353,-0.23737 0.80021,-0.42159 1.25781,-0.56055 0.22881,-0.0695 0.53787,-0.16644 0.90625,-0.16406 0.0694,4.4e-4 0.16471,0.0737 0.23828,0.082 0.77219,-7.1092 1.31055,-14.35794 1.31055,-21.85352 0,-6.96163 -0.4524,-13.71731 -1.12109,-20.34961 -0.25299,0.053 -0.53145,0.14127 -0.71094,0.1211 -0.59075,-0.0664 -0.9577,-0.24796 -1.33984,-0.44727 -0.76428,-0.39862 -1.53029,-0.96757 -2.44141,-1.74219 -1.08331,-0.92055 -2.98086,-2.04018 -5.06055,-3.03515 -2.07968,-0.99497 -4.34149,-1.86527 -6.1582,-2.28906 -1.51693,-0.35355 -3.20235,-0.55777 -4.95703,-0.625 -1.75468,-0.0672 -3.57803,0.004 -5.375,0.19921 -1.79698,0.19535 -3.56713,0.51503 -5.21094,0.94922 -1.6438,0.4342 -3.16186,0.98155 -4.45703,1.63086 -1.79236,0.89868 -3.75735,2.2206 -5.54688,3.67188 -1.78952,1.45128 -3.40357,3.03193 -4.49218,4.45312 -1.08591,1.41795 -2.34377,3.57396 -3.38086,5.61524 -1.0371,2.04128 -1.85343,3.96783 -2.06055,4.93164 -0.11407,0.53114 -0.25956,1.02822 -0.43555,1.48047 -0.088,0.22613 -0.17909,0.43936 -0.3125,0.67382 -0.1334,0.23446 -0.18288,0.51094 -0.86328,0.92579 -0.816,0.49799 -1.03512,0.31559 -1.25195,0.30859 -0.21715,-0.007 -0.37475,-0.0307 -0.54102,-0.0586 -0.33252,-0.0558 -0.67823,-0.13647 -1.07617,-0.24219 -0.79588,-0.21146 -1.77756,-0.52003 -2.81836,-0.88867 -1.51092,-0.53431 -2.46483,-0.82938 -3.63867,-0.99219 -1.17384,-0.16281 -2.5676,-0.19336 -4.95703,-0.19336 l -0.002,0 -0.002,0 c -2.00125,-0.004 -3.52036,0.0552 -4.76562,0.18359 -1.24526,0.12835 -2.21666,0.32619 -3.125,0.60547 l 0.0293,-0.01 c -0.89141,0.29009 -1.73453,0.48716 -2.47266,0.58984 -0.36907,0.0514 -0.70252,0.0818 -1.07813,0.0684 -0.18761,-0.007 -0.40127,0.0596 -0.68164,0.002 -0.28037,-0.0576 -0.62746,-0.2392 -1.08593,-0.73828 0,0 -0.002,-0.002 -0.002,-0.002 -0.33046,-0.35907 -0.38728,-0.53009 -0.49804,-0.74414 -0.11231,-0.21704 -0.21359,-0.44456 -0.31836,-0.69336 -0.20954,-0.4976 -0.4229,-1.07556 -0.60938,-1.66992 -0.61667,-1.96492 -1.57936,-3.98885 -2.82617,-5.95704 -1.24681,-1.96818 -2.77776,-3.8806 -4.53125,-5.62499 -1.4844,-1.47647 -2.51329,-2.41988 -3.62891,-3.21094 -1.11561,-0.79106 -2.31794,-1.42977 -4.14843,-2.29883 -2.65243,-1.2596 -4.54758,-2.02095 -6.48243,-2.4668 -1.93484,-0.44584 -3.90939,-0.57617 -6.722652,-0.57617 -1.912663,0 -3.791185,0.17883 -5.619141,0.5293 -1.827957,0.35047 -3.605239,0.87255 -5.320313,1.5625 -1.715073,0.68994 -3.367392,1.54798 -4.941406,2.5664 -1.574014,1.01843 -3.069833,2.19729 -4.474609,3.53321 -0.990549,0.94208 -1.930313,1.79646 -2.671875,2.43554 -0.370781,0.31954 -0.688496,0.58247 -0.966797,0.79493 -0.139151,0.10623 -0.263216,0.19882 -0.421875,0.29882 -0.07933,0.05 -0.164348,0.10127 -0.306641,0.16797 -0.142292,0.0667 -0.276324,0.20703 -0.90039,0.20703 -0.149805,0 -0.26633,-0.096 -0.408203,-0.13281 z"
       id="path4226"
       inkscape:connector-curvature="0" />
    <path
       style="fill:#333333;stroke:none;stroke-width:3.97923708;stroke-miterlimit:4;stroke-dasharray:none;stroke-opacity:1"
       d="M 118.62109 122.47656 C 117.21881 122.58337 115.85174 122.82045 114.5918 123.20508 C 112.75625 123.76598 111.91623 124.21763 111.47852 124.67773 C 111.0408 125.13793 110.70697 125.87561 110.35156 127.59961 C 109.90338 129.77361 108.98565 132.21462 107.78711 134.57812 C 106.58856 136.94163 105.1092 139.22764 103.53711 141.08984 C 101.94971 142.97004 100.21016 144.63067 98.355469 146.07227 C 96.500775 147.51387 94.530435 148.73593 92.478516 149.73633 C 90.426596 150.73673 88.294311 151.51567 86.115234 152.07227 C 83.936158 152.62897 81.710775 152.96392 79.474609 153.07422 C 77.238444 153.18452 74.990764 153.07422 72.767578 152.73242 C 70.544392 152.39382 68.345216 151.82926 66.205078 151.03906 C 64.06494 150.24896 61.983115 149.23238 59.996094 147.98828 C 58.009072 146.74408 56.117352 145.27317 54.353516 143.57227 C 54.909457 148.16247 55.484676 152.74308 56.34375 157.11328 C 57.482975 162.90798 58.877742 168.49639 60.503906 173.83789 C 62.13007 179.17929 63.986595 184.27348 66.048828 189.08008 C 68.111061 193.88668 70.378739 198.4054 72.826172 202.5957 C 74.049888 204.6908 75.318428 206.70311 76.628906 208.62891 C 77.939384 210.55471 79.292712 212.39442 80.683594 214.14062 C 82.074476 215.88683 83.501556 217.5397 84.962891 219.0957 C 86.424225 220.6517 87.918897 222.11105 89.445312 223.46875 C 90.971728 224.82655 92.52911 226.08288 94.115234 227.23438 C 95.701359 228.38587 97.316568 229.43194 98.957031 230.36914 C 100.59749 231.30644 102.26371 232.13471 103.95312 232.84961 C 105.64256 233.56451 107.35486 234.16569 109.08789 234.65039 C 110.82092 235.13499 112.57445 235.50175 114.3457 235.74805 C 116.11695 235.99445 117.90683 236.12109 119.71094 236.12109 C 120.71751 236.12109 121.71746 236.06852 122.71484 235.99023 C 122.67287 235.53747 121.29352 220.56031 120.48047 208.35547 C 120.01912 208.38486 119.6098 208.39977 119.21484 208.37695 L 119.21094 208.37695 L 119.20703 208.37695 C 115.29307 208.13665 111.55327 207.59957 107.96289 206.75977 C 106.1677 206.33977 104.40846 205.84488 102.68555 205.27148 C 100.96263 204.69798 99.275527 204.04766 97.619141 203.31836 C 95.962755 202.58896 94.337792 201.78028 92.742188 200.89258 C 91.146581 200.00478 89.579635 199.03678 88.039062 197.98828 C 84.957917 195.89118 81.981435 193.4715 79.085938 190.7168 C 77.569322 189.2741 75.956589 187.56718 74.398438 185.79688 C 72.840285 184.02657 71.336716 182.19284 70.035156 180.49414 C 68.733456 178.79524 67.641246 177.24456 66.884766 175.97266 C 66.589646 175.47656 66.388089 175.0398 66.193359 174.5918 L 65.953125 174.57227 L 65.953125 174.00781 C 65.872055 173.76811 65.789025 173.53655 65.765625 173.18945 C 65.744785 172.88025 65.845605 172.40418 66.09375 171.92578 C 66.3332 171.50278 66.906395 170.94768 67.328125 170.83008 C 67.788035 170.70198 67.908359 170.75195 67.943359 170.75195 L 67.943359 170.75391 L 69.933594 170.75391 L 69.933594 171.2793 C 70.006014 171.3073 70.062578 171.30789 70.142578 171.33789 C 70.916988 171.62129 71.845911 171.99678 72.832031 172.42578 C 75.506308 173.58918 78.26513 174.6559 81.089844 175.625 C 83.914557 176.594 86.805336 177.46427 89.740234 178.23438 C 92.675132 179.00437 95.655327 179.67373 98.660156 180.24023 C 101.66499 180.80673 104.69401 181.27061 107.72852 181.62891 C 110.76302 181.98721 113.80224 182.24112 116.82617 182.38672 C 118.4165 182.46329 120.0011 182.50488 121.58008 182.52148 C 122.71707 175.42036 123.99609 168.2793 123.99609 168.2793 L 114.9043 157.41992 L 118.62109 122.47656 z "
       transform="translate(0,812.36218)"
       id="path4179" />
    <path
       style="fill:#010101;stroke:none;stroke-width:3.97923708;stroke-miterlimit:4;stroke-dasharray:none;stroke-opacity:1"
       d="M 109.40234 110.8457 C 109.24792 110.8196 109.19622 110.90421 109.19922 110.9043 C 109.20285 110.9044 109.34364 110.89181 109.45312 110.88281 C 109.44282 110.88031 109.41234 110.8477 109.40234 110.8457 z "
       id="path4175"
       transform="translate(0,812.36218)" />
    <path
       style="fill:#333333;stroke:none;stroke-width:4;stroke-miterlimit:4;stroke-dasharray:none;stroke-opacity:1;fill-opacity:1"
       d="m 119.36523,815.15124 c -1.58876,0.0141 -3.16404,0.1264 -4.72656,0.33203 -1.56252,0.20564 -3.11168,0.50486 -4.64453,0.89649 -1.53285,0.39163 -3.04907,0.87513 -4.54883,1.44726 -1.49975,0.57214 -2.98207,1.23333 -4.44531,1.98047 -2.926475,1.49429 -5.77727,3.33274 -8.537109,5.49414 -2.75984,2.16141 -5.430299,4.64511 -7.996094,7.42969 l -0.183594,1.03906 -0.732422,0 c -0.67145,0.84313 -1.418992,1.76741 -2.701172,3.32813 -2.029082,2.47025 -4.02347,5.268 -5.951171,8.32617 -1.927703,3.05817 -3.787245,6.37682 -5.546876,9.89258 -1.75963,3.51576 -3.418492,7.22729 -4.943359,11.07031 -1.524867,3.84302 -2.917212,7.81747 -4.140625,11.85742 l -0.002,0.008 -0.002,0.008 c -0.04185,0.13439 -0.05202,0.15459 -0.04102,0.11719 l -0.0039,0.0156 c -0.306213,1.0155 -0.593645,2.03991 -0.884766,3.08594 l 0,0.004 c -0.183044,0.66323 -0.363273,1.32922 -0.539062,1.99805 -8e-4,0.003 -0.0012,0.009 -0.002,0.0117 l -0.002,0.004 c -0.02644,0.10491 -0.05912,0.24819 -0.09961,0.41211 l -0.002,0.004 0,0.002 c -1.424623,5.67976 -2.948406,13.53166 -3.9375,19.7129 -0.03052,0.19061 -0.04727,0.256 -0.04297,0.2246 l -0.002,0.01 c -0.232105,1.63646 -0.398744,3.3205 -0.589843,4.98828 0.114305,-0.1076 0.192628,-0.17096 0.308593,-0.28125 1.58118,-1.50368 3.276145,-2.83586 5.0625,-3.98828 1.786355,-1.15242 3.66374,-2.12543 5.615235,-2.91016 1.951495,-0.78472 3.976134,-1.38066 6.052734,-1.78125 2.0766,-0.40058 4.205517,-0.60546 6.367188,-0.60546 2.96379,0 5.303403,0.19735 7.595703,0.7246 2.2923,0.52725 4.537293,1.38439 7.314453,2.70313 l 0.002,0 c 1.9246,0.91381 3.368607,1.71149 4.71875,2.66797 1.350142,0.95647 2.606423,2.07175 4.158207,3.61523 1.95997,1.9498 3.68057,4.08071 5.09375,6.31055 0.70659,1.11492 1.33561,2.25479 1.88086,3.4082 0.54525,1.15341 1.00557,2.3213 1.37305,3.49219 0.10389,0.33116 0.22329,0.63034 0.33789,0.92773 0.41039,-0.0777 0.8547,-0.16275 1.38086,-0.33398 l 0.0156,-0.004 0.0156,-0.006 c 1.16855,-0.35929 2.39393,-0.60359 3.84765,-0.75585 1.31194,-0.13742 2.85282,-0.19092 4.66211,-0.19922 -0.10601,-1.37758 -2.73775,-35.79235 -2.49023,-55.59375 0.24994,-19.99505 3.44743,-50.4241 3.51367,-51.05274 -0.41065,-0.013 -0.82013,-0.0352 -1.23242,-0.0352 l -0.34571,0 0,-0.002 z"
       id="path4173"
       inkscape:connector-curvature="0" />
    <text
       sodipodi:linespacing="125%"
       id="text3149"
       y="704.10339"
       x="245.3015"
       style="font-style:normal;font-variant:normal;font-weight:normal;font-stretch:normal;font-size:132.0460968px;line-height:125%;font-family:'Bauhaus 93';-inkscape-font-specification:'Bauhaus 93, ';letter-spacing:0px;word-spacing:0px;fill:#ffffff;fill-opacity:1;stroke:#000000;stroke-width:3.97923708;stroke-miterlimit:4;stroke-dasharray:none;stroke-opacity:1;"
       xml:space="preserve"
       transform="scale(0.75168161,1.3303505)"><tspan
         style="font-style:normal;font-variant:normal;font-weight:normal;font-stretch:normal;font-family:'Bauhaus 93';-inkscape-font-specification:'Bauhaus 93, ';fill:#ffffff;stroke:#000000;stroke-width:3.97923708;stroke-miterlimit:4;stroke-dasharray:none;stroke-opacity:1;fill-opacity:1;"
         y="704.10339"
         x="245.3015"
         id="tspan3151"
         sodipodi:role="line">A</tspan></text>
    <path
       style="fill:#000000;fill-rule:evenodd;stroke:none;stroke-width:4;stroke-linecap:butt;stroke-linejoin:miter;stroke-opacity:1;stroke-miterlimit:4;stroke-dasharray:none;fill-opacity:1"
       d="m 122.69727,1048.1512 c 1.87406,-0.1475 3.7593,-0.2141 5.5957,-0.6289 2.81646,-0.636 5.58441,-1.581 8.29101,-2.8164 2.7066,-1.2353 5.35262,-2.7608 7.92383,-4.5586 2.57121,-1.7977 5.06823,-3.866 7.47852,-6.1894 2.41028,-2.3234 4.7332,-4.9007 6.95703,-7.7129 2.22383,-2.8122 4.34753,-5.8609 6.35937,-9.125 2.01185,-3.2641 3.91122,-6.7445 5.68555,-10.4238 1.77433,-3.6793 3.42426,-7.55572 4.93555,-11.61332 0.26046,-0.6994 0.51948,-1.40561 0.76758,-2.10351 l 0.004,-0.0117 0.004,-0.0117 c 0.0289,-0.079 0.0572,-0.15754 0.0859,-0.24414 l 0.006,-0.0176 0.008,-0.0195 c 0.0522,-0.1473 0.11099,-0.32473 0.17969,-0.51953 0.21735,-0.6235 0.43208,-1.26681 0.64843,-1.91211 l -0.002,0.01 c 0.0748,-0.2272 0.14131,-0.41838 0.19531,-0.58398 l 0.002,0 c 0.20184,-0.6122 0.39873,-1.24728 0.60351,-1.89648 1.30473,-4.1342 2.47061,-8.41998 3.48633,-12.83789 1.01572,-4.41792 1.88128,-8.96792 2.58203,-13.63477 l 0,-0.0117 0.0195,-0.13476 c 0.10424,-0.69754 0.18545,-1.41617 0.28125,-2.1211 -0.40259,0.26245 -0.56705,0.34126 -1.0664,0.67774 l -0.002,0 c -1.66439,1.12132 -3.39421,2.0759 -5.16797,2.86914 -1.77375,0.79324 -3.59206,1.42379 -5.43554,1.89258 -1.84348,0.46879 -3.71042,0.77585 -5.58399,0.92382 -1.87356,0.14798 -3.75319,0.1379 -5.61718,-0.0312 -1.86402,-0.16919 -3.71254,-0.49577 -5.52735,-0.97851 -1.81481,-0.48274 -3.59629,-1.12142 -5.32226,-1.91406 -1.72598,-0.79265 -3.39665,-1.74093 -4.99415,-2.83985 -1.59748,-1.09892 -3.1214,-2.34844 -4.55078,-3.75 -1.09178,-1.07051 -2.08078,-2.15011 -2.97656,-3.25391 -0.89578,-1.10379 -1.69841,-2.23188 -2.41797,-3.40234 -0.71956,-1.17046 -1.3568,-2.3838 -1.91992,-3.6543 -0.56312,-1.27049 -1.05206,-2.59803 -1.47851,-4.00195 -0.45014,-1.48164 -0.76306,-2.27392 -1.03126,-2.71094 -0.26818,-0.43701 -0.51484,-0.67484 -1.27929,-1.22265 l 0,-0.002 c -1.26731,-0.90842 -2.8895,-1.62984 -4.6836,-2.11914 -1.79409,-0.48929 -3.76009,-0.74647 -5.71679,-0.73242 l 0,-0.006 -0.19336,0.004 c -0.42535,0.009 -0.80214,0.15039 -1.22266,0.18359 l -3.70312,34.81836 9.09179,10.85938 c 0,0 -1.19782,6.95339 -2.34765,14.16797 1.39447,0.0137 2.80247,0.0841 4.18359,0.0508 2.9731,-0.072 5.91095,-0.25328 8.79297,-0.54688 2.88202,-0.2937 5.7083,-0.69865 8.45898,-1.21875 4.38242,-0.8285 9.5514,-2.23421 14.26954,-3.79101 2.35906,-0.7784 4.60428,-1.59509 6.58398,-2.39649 1.9797,-0.8014 3.69291,-1.58639 4.98438,-2.30469 0.59781,-0.3324 1.19301,-0.60433 1.75976,-0.80273 0.28338,-0.099 0.55592,-0.18108 0.86524,-0.23828 0.30929,-0.057 0.60716,-0.18646 1.3457,0.0566 l 0.004,0 0.004,0 c 0.64701,0.2154 1.22584,0.93039 1.37109,1.43359 0.1452,0.5033 0.0935,0.81812 0.0527,1.07032 -0.0816,0.5043 -0.22332,0.82175 -0.39063,1.18945 -0.3346,0.7355 -0.81957,1.5628 -1.44336,2.5332 -1.24756,1.9408 -3.03908,4.38323 -5.01171,6.76953 -1.40208,1.6965 -2.86349,3.31316 -4.37696,4.84762 -1.51346,1.5345 -3.07808,2.9861 -4.6914,4.3516 -1.61333,1.3654 -3.27491,2.6448 -4.97657,3.8339 -1.70165,1.1892 -3.44419,2.2873 -5.22265,3.293 -1.77846,1.0057 -3.59181,1.9193 -5.43555,2.7344 -1.84374,0.8151 -3.71774,1.5331 -5.61523,2.1504 -1.89749,0.6173 -3.81811,1.1326 -5.75782,1.5449 -1.93971,0.4123 -3.89873,0.7218 -5.86914,0.9219 -1.38024,0.1396 -2.75187,0.2578 -3.86328,0.3398 -0.52872,0.039 -0.79353,0.029 -1.16797,0.051 0.80904,12.2063 2.14665,26.9436 2.19532,27.4687 z"
       id="path4250"
       inkscape:connector-curvature="0" />
    <path
       style="fill:#010101;stroke:none;stroke-width:2;stroke-miterlimit:4;stroke-dasharray:none;stroke-opacity:1"
       d="M 120.94336 2.8261719 C 120.87712 3.4548119 117.67963 33.883856 117.42969 53.878906 C 117.18217 73.680306 119.81391 108.09508 119.91992 109.47266 C 120.11545 109.47176 120.27165 109.46255 120.47461 109.46289 L 120.47852 109.46289 C 122.92043 109.46299 124.59861 109.53249 126.06641 109.74414 C 127.5342 109.95575 128.79162 110.30942 130.39648 110.87695 L 130.39844 110.87695 C 131.19607 111.15947 131.89069 111.3697 132.5 111.54297 C 132.87715 109.82024 133.76241 107.65283 134.87891 105.49023 C 135.9954 103.32764 137.34314 101.16987 138.65039 99.462891 L 138.65234 99.462891 C 140.00534 97.696561 141.79836 95.912827 143.7832 94.304688 C 145.76805 92.696547 147.94471 91.264002 150.06445 90.201172 L 150.06641 90.201172 C 151.65093 89.406802 153.41174 88.750161 155.27344 88.238281 C 157.13514 87.726411 159.09797 87.357958 161.08789 87.142578 C 163.07781 86.927188 165.09525 86.863884 167.06445 86.958984 C 169.03365 87.054084 170.95438 87.308936 172.75391 87.728516 C 174.84572 88.216476 177.11723 89.042694 179.25781 90.052734 C 181.3984 91.062784 183.40806 92.256639 184.97461 93.480469 C 184.95262 93.313389 184.9337 93.143705 184.91211 92.976562 C 184.91194 92.974574 184.9105 92.962388 184.91016 92.958984 C 184.90996 92.961518 184.90694 92.945733 184.89258 92.841797 C 184.21053 88.502717 183.09243 82.025193 182.53516 79.408203 C 181.60262 75.029393 180.48269 70.672809 179.20898 66.417969 C 177.93528 62.163129 176.50737 58.009089 174.95703 54.037109 C 173.40669 50.065129 171.73511 46.274361 169.97266 42.744141 C 168.2102 39.213921 166.35731 35.945195 164.44727 33.015625 C 162.91185 30.660465 160.96512 27.925516 159.22266 25.628906 C 157.48019 23.332306 155.7822 21.355922 155.35352 20.976562 C 154.54725 20.263243 153.65828 19.251872 153.00977 18.351562 L 153.00781 18.347656 L 153.00391 18.34375 C 152.96981 18.29565 152.9901 18.319856 152.9668 18.285156 C 150.4901 15.800496 147.92412 13.588372 145.28125 11.669922 C 142.63838 9.7514719 139.91922 8.1261469 137.13281 6.8105469 C 134.3464 5.4949369 131.49326 4.4905731 128.58594 3.8144531 C 127.13228 3.4763931 125.66519 3.2201481 124.18555 3.0488281 C 123.11183 2.9245092 122.02953 2.8605182 120.94336 2.8261719 z "
       transform="translate(0,812.36218)"
       id="path4269" />
  </g>
</svg>
