<?xml version="1.0" encoding="UTF-8" standalone="no"?>
<!-- Created with Inkscape (http://www.inkscape.org/) -->

<svg
   xmlns:dc="http://purl.org/dc/elements/1.1/"
   xmlns:cc="http://creativecommons.org/ns#"
   xmlns:rdf="http://www.w3.org/1999/02/22-rdf-syntax-ns#"
   xmlns:svg="http://www.w3.org/2000/svg"
   xmlns="http://www.w3.org/2000/svg"
   xmlns:xlink="http://www.w3.org/1999/xlink"
   xmlns:sodipodi="http://sodipodi.sourceforge.net/DTD/sodipodi-0.dtd"
   xmlns:inkscape="http://www.inkscape.org/namespaces/inkscape"
   width="240"
   height="240"
   id="svg2"
   version="1.1"
   inkscape:version="0.91 r13725"
   sodipodi:docname="logo.svg"
   inkscape:export-filename="C:\Users\karl\Desktop\logo.png"
   inkscape:export-xdpi="75"
   inkscape:export-ydpi="75">
  <defs
     id="defs4">
    <linearGradient
       gradientTransform="matrix(0.950226,0,0,0.868966,0.142211,18.84154)"
       gradientUnits="userSpaceOnUse"
       xlink:href="#linearGradient28888"
       id="linearGradient28894"
       y2="102.36218"
       x2="634.28571"
       y1="102.36218"
       x1="2.8571429" />
    <linearGradient
       id="linearGradient28888">
      <stop
         id="stop28890"
         offset="0"
         style="stop-color:black;stop-opacity:1" />
      <stop
         id="stop29799"
         offset="0.05"
         style="stop-color:#35005e;stop-opacity:1" />
      <stop
         id="stop28896"
         offset="0.1"
         style="stop-color:#5000a2;stop-opacity:1" />
      <stop
         id="stop29801"
         offset="0.15000001"
         style="stop-color:#4a00d3;stop-opacity:1" />
      <stop
         id="stop28898"
         offset="0.2"
         style="stop-color:#2802e9;stop-opacity:1" />
      <stop
         id="stop29803"
         offset="0.25"
         style="stop-color:#0e3af8;stop-opacity:1" />
      <stop
         id="stop28900"
         offset="0.30000001"
         style="stop-color:#018de6;stop-opacity:1" />
      <stop
         id="stop29805"
         offset="0.35000002"
         style="stop-color:#00cea0;stop-opacity:1" />
      <stop
         id="stop28902"
         offset="0.40000001"
         style="stop-color:#00d24a;stop-opacity:1" />
      <stop
         id="stop29807"
         offset="0.44999999"
         style="stop-color:#00bc0d;stop-opacity:1" />
      <stop
         id="stop28904"
         offset="0.5"
         style="stop-color:#00b700;stop-opacity:1" />
      <stop
         id="stop29809"
         offset="0.55000001"
         style="stop-color:#00bc0d;stop-opacity:1" />
      <stop
         id="stop28906"
         offset="0.60000002"
         style="stop-color:#65d200;stop-opacity:1" />
      <stop
         id="stop29811"
         offset="0.64999998"
         style="stop-color:#bad600;stop-opacity:1" />
      <stop
         id="stop28908"
         offset="0.69999999"
         style="stop-color:#f9b700;stop-opacity:1" />
      <stop
         id="stop29813"
         offset="0.75"
         style="stop-color:#ff7a00;stop-opacity:1" />
      <stop
         id="stop28910"
         offset="0.80000001"
         style="stop-color:#f40;stop-opacity:1" />
      <stop
         id="stop29815"
         offset="0.85000002"
         style="stop-color:#ff2501;stop-opacity:1" />
      <stop
         id="stop28912"
         offset="0.89999998"
         style="stop-color:#d00e00;stop-opacity:1" />
      <stop
         id="stop29817"
         offset="0.94999999"
         style="stop-color:#7b0200;stop-opacity:1" />
      <stop
         id="stop28892"
         offset="1"
         style="stop-color:black;stop-opacity:1" />
    </linearGradient>
    <linearGradient
       inkscape:collect="always"
       xlink:href="#linearGradient28888"
       id="linearGradient3143"
       gradientUnits="userSpaceOnUse"
       gradientTransform="matrix(0,-0.10726637,1.7821122,0,-61.90981,966.02115)"
       x1="2.8571429"
       y1="102.36218"
       x2="634.28571"
       y2="102.36218" />
  </defs>
  <sodipodi:namedview
     id="base"
     pagecolor="#ffffff"
     bordercolor="#666666"
     borderopacity="1.0"
     inkscape:pageopacity="0"
     inkscape:pageshadow="2"
     inkscape:zoom="1.979899"
     inkscape:cx="23.086597"
     inkscape:cy="121.68492"
     inkscape:document-units="px"
     inkscape:current-layer="layer1"
     showgrid="false"
     inkscape:window-width="1366"
     inkscape:window-height="705"
     inkscape:window-x="-8"
     inkscape:window-y="-8"
     inkscape:window-maximized="1"
     borderlayer="true" />
  <metadata
     id="metadata7">
    <rdf:RDF>
      <cc:Work
         rdf:about="">
        <dc:format>image/svg+xml</dc:format>
        <dc:type
           rdf:resource="http://purl.org/dc/dcmitype/StillImage" />
        <dc:title></dc:title>
      </cc:Work>
    </rdf:RDF>
  </metadata>
  <g
     inkscape:label="Layer 1"
     inkscape:groupmode="layer"
     id="layer1"
     transform="translate(0,-812.36218)">
    <path
       style="color:#000000;display:inline;overflow:visible;visibility:visible;fill:url(#linearGradient3143);fill-opacity:1;fill-rule:nonzero;stroke:none;stroke-width:0.30000001;marker:none"
       d="m 53.626289,897.9792 c -1.83825,10.69181 -2.826698,22.01125 -2.826698,33.72917 0,11.81804 1.004094,23.23021 2.872536,34.00199 l 132.136723,0 c 1.86845,-10.77178 2.87254,-22.18395 2.87254,-34.00199 0,-11.71792 -0.98845,-23.03736 -2.82671,-33.72917 l -132.228391,0 z"
       id="rect3096"
       inkscape:connector-curvature="0" />
    <path
       style="fill:#010101;stroke:#ffffff;stroke-width:3.97923708;stroke-miterlimit:4;stroke-dasharray:none;stroke-opacity:1"
       d="m 119.71022,813.14172 c -13.64893,0 -26.376886,6.81683 -37.083223,18.59603 -0.0081,0 -0.0071,0 -0.01494,0.045 -0.01969,0 -0.04183,0.045 -0.06115,0.0628 -0.661837,0.84739 -1.688418,2.10319 -3.239241,3.9909 -8.359535,10.17711 -15.989915,25.46054 -20.948131,41.83357 -0.01358,0.0436 -0.03226,0.0907 -0.0458,0.13439 -0.315692,1.04627 -0.608152,2.09052 -0.901488,3.14452 -0.186862,0.67701 -0.370424,1.35738 -0.55006,2.04113 -0.03592,0.14111 -0.07111,0.29567 -0.106962,0.4408 -1.448167,5.77362 -2.974813,13.64516 -3.972659,19.8811 -0.0129,0.0806 -0.03328,0.16126 -0.04587,0.2419 -0.409474,2.88379 -0.754523,5.82099 -1.039006,8.7834 -1.22e-4,0.0436 -1.7e-5,0.0537 0,0.0773 5.4e-4,0.62157 0.05714,0.95251 0.198646,0.95251 0.204824,0 1.955365,-1.51026 3.89626,-3.35618 5.971913,-5.6792 13.578727,-8.73871 21.727387,-8.73871 5.777401,0 8.626938,0.65719 14.057098,3.2359 3.755694,1.78309 5.290892,2.87573 8.327304,5.89592 3.713465,3.69419 6.502015,8.09059 7.853645,12.39728 0.33406,1.06476 0.78361,2.13252 0.99317,2.3583 0.20954,0.22847 1.66607,0.0436 3.23924,-0.46836 2.07733,-0.63871 4.39646,-0.88432 8.4801,-0.87693 4.83326,0 6.143,0.19823 9.25935,1.30027 1.99398,0.70625 3.78403,1.18302 3.98792,1.05836 0.20388,-0.12431 0.5177,-0.93741 0.70285,-1.79955 0.57725,-2.68622 3.40756,-8.20684 5.8062,-11.33892 2.44161,-3.18752 6.81407,-6.73152 10.72617,-8.69302 5.75966,-2.88749 14.71246,-3.85983 21.34541,-2.31328 4.03432,0.9411 9.43801,3.52015 12.05549,5.74507 1.69143,1.43802 2.81244,2.0139 3.05589,1.60265 -0.16218,-1.45718 -0.34192,-2.91603 -0.53479,-4.35373 -0.004,-0.0436 -0.0112,-0.0638 -0.0149,-0.0907 -0.68601,-4.36785 -1.79941,-10.83327 -2.38359,-13.57661 -3.77591,-17.73009 -10.53381,-35.05125 -18.3659,-47.06389 -3.14075,-4.81756 -7.86306,-11.04474 -9.44271,-12.44265 -0.60143,-0.5321 -1.52032,-1.56614 -2.04744,-2.29792 -0.0546,-0.0766 -0.0905,-0.14381 -0.13756,-0.21133 C 144.2792,819.05622 132.392,813.16235 119.71089,813.16235 Z m 0.0764,119.64819 c -1.97811,0.0436 -3.94847,0.31919 -5.77563,0.87694 -3.88452,1.18704 -4.84453,2.195 -5.60756,5.89624 -0.78798,3.82221 -3.50925,9.20037 -6.38682,12.60897 -12.116367,14.35139 -33.427615,15.25587 -46.724565,1.98031 -1.645918,-1.64332 -3.145528,-2.89521 -3.330921,-2.78198 -0.0927,0.0571 -0.149204,0.33263 -0.168084,0.74152 0.0025,0.0436 -0.0025,0.0504 0,0.0773 0.609667,6.06089 1.475284,11.96487 2.597509,17.67364 9.214347,46.86965 34.978883,80.61225 65.319661,80.61225 24.39162,0 45.82243,-21.7966 58.07721,-54.69917 0.26188,-0.70322 0.52581,-1.41854 0.77925,-2.13151 0.0359,-0.0975 0.0713,-0.19823 0.10697,-0.30575 0.0619,-0.17471 0.12197,-0.35547 0.18337,-0.52918 0.22292,-0.63938 0.44092,-1.29086 0.65701,-1.93529 0.0653,-0.19823 0.13399,-0.39142 0.19865,-0.58966 0.20937,-0.63502 0.40842,-1.27743 0.61117,-1.92016 2.65188,-8.40273 4.74079,-17.40721 6.15762,-26.88039 4.9e-4,0 -4.9e-4,0 0,-0.0436 0.29071,-1.94537 0.54518,-3.9146 0.77925,-5.89659 -0.35642,-0.24864 -1.65971,0.49827 -4.64494,2.50983 -12.56208,8.4632 -28.91224,6.97545 -39.69603,-3.59844 -4.18259,-4.10107 -6.6584,-8.12721 -8.28147,-13.47043 -0.92538,-3.04606 -1.35861,-3.75768 -3.05588,-4.97397 -3.04903,-2.18559 -7.44388,-3.32594 -11.79575,-3.25035 z m -51.843174,52.3251 c 0.490202,0.0436 2.184192,0.66559 4.094893,1.49683 21.798073,9.48326 48.943981,12.68525 71.416181,8.43598 8.99677,-1.70077 20.84167,-5.59823 26.43345,-8.70813 1.00442,-0.55842 2.07081,-0.93439 2.3836,-0.83157 0.70621,0.23519 -2.47853,5.18799 -6.3257,9.84209 -10.92324,13.21649 -25.42882,21.42329 -40.61279,22.96509 -2.72437,0.2756 -5.42826,0.4738 -6.00483,0.4408 -15.25197,-0.9364 -27.569804,-6.3629 -38.870932,-17.1146 -5.831138,-5.54674 -13.537352,-15.60219 -12.636108,-16.4939 0.01799,-0.0436 0.05223,-0.0436 0.122243,-0.0436 z"
       id="path3108"
       inkscape:connector-curvature="0" />
    <text
       xml:space="preserve"
       style="font-style:normal;font-weight:normal;font-size:84.83730316px;line-height:125%;font-family:Sans;letter-spacing:0px;word-spacing:0px;fill:#000000;fill-opacity:1;stroke:#ffffff;stroke-width:3.97923708;stroke-miterlimit:4;stroke-dasharray:none;stroke-opacity:1"
       x="-0.37876207"
       y="751.41028"
       id="text3145"
       sodipodi:linespacing="125%"
       transform="scale(0.77443732,1.2912601)"><tspan
         sodipodi:role="line"
         id="tspan3147"
         x="-0.37876207"
         y="751.41028"
         style="font-family:'Rockwell Extra Bold';-inkscape-font-specification:'Rockwell Extra Bold';fill:#000000;stroke:#ffffff;stroke-width:3.97923708;stroke-miterlimit:4;stroke-dasharray:none;stroke-opacity:1">d</tspan></text>
    <text
       sodipodi:linespacing="125%"
       id="text3149"
       y="729.12347"
       x="251.19293"
       style="font-style:normal;font-weight:normal;font-size:82.34448242px;line-height:125%;font-family:Sans;letter-spacing:0px;word-spacing:0px;fill:#000000;fill-opacity:1;stroke:#ffffff;stroke-width:3.97923708;stroke-miterlimit:4;stroke-dasharray:none;stroke-opacity:1"
       xml:space="preserve"
       transform="scale(0.75168161,1.3303505)"><tspan
         style="font-family:'Rockwell Extra Bold';-inkscape-font-specification:'Rockwell Extra Bold';fill:#000000;stroke:#ffffff;stroke-width:3.97923708;stroke-miterlimit:4;stroke-dasharray:none;stroke-opacity:1"
         y="729.12347"
         x="251.19293"
         id="tspan3151"
         sodipodi:role="line">A</tspan></text>
  </g>
</svg>
