<?xml version="1.0" encoding="UTF-8" standalone="no"?>
<!-- Created with Inkscape (http://www.inkscape.org/) -->

<svg
   xmlns:dc="http://purl.org/dc/elements/1.1/"
   xmlns:cc="http://creativecommons.org/ns#"
   xmlns:rdf="http://www.w3.org/1999/02/22-rdf-syntax-ns#"
   xmlns:svg="http://www.w3.org/2000/svg"
   xmlns="http://www.w3.org/2000/svg"
   xmlns:sodipodi="http://sodipodi.sourceforge.net/DTD/sodipodi-0.dtd"
   xmlns:inkscape="http://www.inkscape.org/namespaces/inkscape"
   width="69.277"
   height="69.723999"
   id="svg2"
   version="1.1"
   inkscape:version="0.48.4 r9939"
   sodipodi:docname="focus.svg">
  <defs
     id="defs4" />
  <sodipodi:namedview
     id="base"
     pagecolor="#ffffff"
     bordercolor="#666666"
     borderopacity="1.0"
     inkscape:pageopacity="0.0"
     inkscape:pageshadow="2"
     inkscape:zoom="3.959798"
     inkscape:cx="-1.7616443"
     inkscape:cy="31.255396"
     inkscape:document-units="px"
     inkscape:current-layer="layer1"
     showgrid="false"
     fit-margin-top="0"
     fit-margin-left="0"
     fit-margin-right="0"
     fit-margin-bottom="0"
     inkscape:window-width="1280"
     inkscape:window-height="962"
     inkscape:window-x="-8"
     inkscape:window-y="-8"
     inkscape:window-maximized="1" />
  <metadata
     id="metadata7">
    <rdf:RDF>
      <cc:Work
         rdf:about="">
        <dc:format>image/svg+xml</dc:format>
        <dc:type
           rdf:resource="http://purl.org/dc/dcmitype/StillImage" />
        <dc:title></dc:title>
      </cc:Work>
    </rdf:RDF>
  </metadata>
  <g
     inkscape:label="Layer 1"
     inkscape:groupmode="layer"
     id="layer1"
     transform="translate(-295.3615,-151.7859)">
    <path
       inkscape:connector-curvature="0"
       id="path5688"
       d="m 295.72124,217.6783 c -0.088,-0.088 -0.15995,-0.69467 -0.15995,-1.3482 l 0,-1.18823 3.37605,-3.48143 c 1.85683,-1.9148 3.28579,-3.5717 3.17548,-3.682 -0.11034,-0.11035 -1.44058,-0.23134 -2.95616,-0.26893 l -2.75561,-0.0684 0,-1.19966 0,-1.19965 5.45846,-0.0645 5.45845,-0.0645 0,1.28536 0,1.28537 -3.23908,3.37534 c -1.7815,1.85643 -3.23909,3.49037 -3.23909,3.63099 0,0.16526 1.16629,0.27922 3.29906,0.32238 l 3.29908,0.0667 0.072,1.37961 0.0719,1.37962 -5.85032,0 c -3.21769,0 -5.92231,-0.0719 -6.01028,-0.15995 z m 57.21689,-3.07681 c 1.16949,-1.78023 2.12634,-3.29692 2.12634,-3.37042 0,-0.0735 -0.81133,-1.37798 -1.80295,-2.89882 -0.99163,-1.52084 -1.74103,-2.86535 -1.66537,-2.98779 0.0757,-0.12241 0.92426,-0.22261 1.88574,-0.22261 1.98818,0 2.03501,0.0319 3.257,2.21937 0.42389,0.75878 0.86619,1.3796 0.98288,1.3796 0.11673,0 0.52956,-0.56682 0.91745,-1.25964 1.334,-2.38257 1.27373,-2.33933 3.26036,-2.33933 0.97578,0 1.83188,0.0934 1.90246,0.20764 0.0706,0.11423 -0.68584,1.47564 -1.68095,3.02541 -0.99511,1.54978 -1.75299,2.96452 -1.68416,3.14387 0.0688,0.17935 0.86857,1.43618 1.7772,2.79295 0.90864,1.35675 1.78088,2.70976 1.93832,3.00668 l 0.28626,0.53985 -2.13233,0 -2.13232,0 -1.05674,-1.73651 c -0.58121,-0.95509 -1.21802,-1.76721 -1.41512,-1.80471 -0.22498,-0.0428 -0.76024,0.60163 -1.43807,1.73139 l -1.07969,1.79956 -2.18633,0.006 -2.18632,0.006 2.12634,-3.23678 z m -40.53658,-9.83682 c -0.25832,-0.32841 -0.82842,-1.28901 -1.26687,-2.13465 -0.66708,-1.28663 -0.75471,-1.62967 -0.53695,-2.10213 0.17281,-0.37493 1.94264,-1.52918 5.26832,-3.43595 2.75445,-1.57927 6.16875,-3.55392 7.58735,-4.38815 l 2.57927,-1.51677 0,-8.9509 c 0,-8.36676 0.0287,-8.9768 0.43878,-9.34797 0.66728,-0.60388 4.84504,-0.57416 5.39941,0.0384 0.34821,0.38477 0.40146,1.47818 0.45706,9.3868 l 0.0629,8.9513 7.40901,4.28577 c 4.07496,2.35718 7.55698,4.40856 7.73782,4.55864 0.5266,0.43704 0.38447,1.37605 -0.42747,2.82418 -1.32656,2.366 -1.94314,2.78703 -3.15841,2.1567 -0.28823,-0.1495 -3.67612,-2.09296 -7.52863,-4.31878 -3.85253,-2.22583 -7.11249,-4.04695 -7.24438,-4.04695 -0.13184,0 -3.60204,1.94345 -7.71148,4.31877 -4.10942,2.37533 -7.72467,4.31878 -8.03388,4.31878 -0.31325,0 -0.77023,-0.26442 -1.03191,-0.5971 z m 15.23067,-36.75234 c -0.088,-0.088 -0.15995,-1.28171 -0.15995,-2.65276 l 0,-2.49279 -2.30657,-3.39686 c -1.26862,-1.86827 -2.36156,-3.54011 -2.42875,-3.71521 -0.097,-0.25283 0.31404,-0.30402 1.99658,-0.24862 l 2.11875,0.0697 1.08978,1.85126 c 0.59936,1.01819 1.22051,1.90392 1.3803,1.9683 0.17002,0.0685 0.79873,-0.72428 1.51568,-1.91123 l 1.22514,-2.0283 2.02333,0 c 1.11282,0 2.02318,0.081 2.02302,0.17995 -1.7e-4,0.099 -1.07973,1.7995 -2.39903,3.77894 l -2.39872,3.59897 -2.3e-4,2.57927 -4.9e-4,2.57927 -1.7595,0 c -0.96772,0 -1.83148,-0.0719 -1.91945,-0.15995 z"
       style="fill:#000000" />
  </g>
</svg>
