<?xml version="1.0" encoding="UTF-8" standalone="no"?>
<!-- Created with Inkscape (http://www.inkscape.org/) -->

<svg
   xmlns:dc="http://purl.org/dc/elements/1.1/"
   xmlns:cc="http://creativecommons.org/ns#"
   xmlns:rdf="http://www.w3.org/1999/02/22-rdf-syntax-ns#"
   xmlns:svg="http://www.w3.org/2000/svg"
   xmlns="http://www.w3.org/2000/svg"
   xmlns:sodipodi="http://sodipodi.sourceforge.net/DTD/sodipodi-0.dtd"
   xmlns:inkscape="http://www.inkscape.org/namespaces/inkscape"
   width="69.277"
   height="69.723999"
   id="svg2"
   version="1.1"
   inkscape:version="0.48.4 r9939"
   sodipodi:docname="calc.svg">
  <defs
     id="defs4" />
  <sodipodi:namedview
     id="base"
     pagecolor="#ffffff"
     bordercolor="#666666"
     borderopacity="1.0"
     inkscape:pageopacity="0.0"
     inkscape:pageshadow="2"
     inkscape:zoom="2.8"
     inkscape:cx="29.289012"
     inkscape:cy="71.053375"
     inkscape:document-units="px"
     inkscape:current-layer="layer1"
     showgrid="false"
     fit-margin-top="0"
     fit-margin-left="0"
     fit-margin-right="0"
     fit-margin-bottom="0"
     inkscape:window-width="1280"
     inkscape:window-height="962"
     inkscape:window-x="-8"
     inkscape:window-y="-8"
     inkscape:window-maximized="1" />
  <metadata
     id="metadata7">
    <rdf:RDF>
      <cc:Work
         rdf:about="">
        <dc:format>image/svg+xml</dc:format>
        <dc:type
           rdf:resource="http://purl.org/dc/dcmitype/StillImage" />
        <dc:title></dc:title>
      </cc:Work>
    </rdf:RDF>
  </metadata>
  <g
     inkscape:label="Layer 1"
     inkscape:groupmode="layer"
     id="layer1"
     transform="translate(-295.3615,-151.7859)">
    <path
       inkscape:connector-curvature="0"
       id="path3014"
       d="m 280.11823,201.24188 c 0,-12.98626 0.003,-14.26676 0.0377,-14.27991 0.0207,-0.008 1.10869,-0.0145 2.4177,-0.0145 l 2.38003,0 0,-2.35815 0,-2.35815 -2.38003,0 c -1.30901,0 -2.39697,-0.007 -2.4177,-0.0145 -0.0343,-0.0131 -0.0377,-1.09424 -0.0377,-12.01706 l 0,-12.00259 19.11278,0 c 17.40637,0 19.11407,0.003 19.12724,0.0377 0.008,0.0207 0.0145,1.11405 0.0145,2.42961 l 0,2.39193 2.35814,0 2.35816,0 0,-2.39193 c 0,-1.31556 0.007,-2.40889 0.0145,-2.42961 0.0131,-0.0343 1.29487,-0.0377 14.29355,-0.0377 12.88477,0 14.28269,0.004 14.31611,0.037 0.0334,0.0334 0.0353,0.5102 0.0192,4.82349 l -0.0178,4.78646 2.3452,0 2.34519,0 0.0159,-3.55509 c 0.009,-1.9553 0.0159,-4.10892 0.0159,-4.78582 0,-0.6769 0.007,-1.24768 0.0145,-1.2684 0.0131,-0.0343 0.87066,-0.0377 9.48024,-0.0377 l 9.4658,0 0,2.45089 c 0,2.21291 -0.004,2.45229 -0.0377,2.46534 -0.0207,0.008 -1.05509,0.0145 -2.2986,0.0145 l -2.26092,0 0,2.34624 0,2.34626 2.26457,0 c 1.93087,0 2.26959,0.005 2.2986,0.034 0.0514,0.0514 0.0514,28.63095 0,28.68235 -0.029,0.029 -0.36773,0.034 -2.2986,0.034 l -2.26457,0 0,2.35814 0,2.35816 2.26092,0 c 1.24351,0 2.27788,0.007 2.2986,0.0145 0.0342,0.0131 0.0377,0.66179 0.0377,7.1102 l 0,7.09573 -9.45813,0 c -8.16529,0 -9.46278,-0.005 -9.49216,-0.034 -0.029,-0.029 -0.034,-0.36772 -0.034,-2.29859 l 0,-2.26459 -2.34624,0 -2.34624,0 0,2.26093 c 0,1.24351 -0.007,2.27788 -0.0145,2.2986 -0.0131,0.0342 -0.45607,0.0377 -4.77586,0.0377 l -4.76139,0 0,-2.29384 c 0,-1.75235 -0.007,-2.30059 -0.0286,-2.32242 -0.0415,-0.0415 -4.66532,-0.0415 -4.70677,0 -0.0218,0.0218 -0.0286,0.57007 -0.0286,2.32242 l 0,2.29384 -16.67382,0 -16.6738,0 0,-2.29861 0,-2.29861 -2.35816,0 -2.35814,0 0,2.26459 c 0,1.93087 -0.005,2.26958 -0.034,2.29859 -0.029,0.029 -0.38065,0.034 -2.39558,0.034 -2.01492,0 -2.36655,-0.005 -2.39558,-0.034 -0.029,-0.029 -0.034,-0.36772 -0.034,-2.29859 l 0,-2.26459 -2.34625,0 -2.34624,0 0,2.26093 c 0,1.24351 -0.007,2.27788 -0.0145,2.2986 -0.0131,0.0342 -0.46129,0.0377 -4.83541,0.0377 l -4.82093,0 0,-14.26548 z m 28.66703,7.23866 0,-2.37007 -2.34028,-0.006 -2.34029,-0.006 0,2.38221 0,2.3822 2.34029,-0.006 2.34028,-0.006 0,-2.37006 z m 52.40947,-0.0179 -0.006,-2.3522 -2.34029,-0.006 -2.34029,-0.006 0,2.35827 0,2.35826 2.34636,0 2.34637,0 -0.006,-2.35219 z m -61.93128,-4.77597 0.006,-2.35231 -2.35231,0.006 -2.35232,0.006 -0.006,2.32243 c -0.003,1.27733 -0.001,2.33588 0.005,2.35232 0.009,0.0238 0.49217,0.0286 2.35239,0.0238 l 2.34098,-0.006 0.006,-2.35232 z m 47.62146,0.006 0,-2.35827 -2.34028,0.006 -2.34028,0.006 -0.006,2.32242 c -0.003,1.27734 -0.001,2.33583 0.005,2.3522 0.009,0.0235 0.50031,0.0298 2.34643,0.0298 l 2.33508,0 0,-2.35827 z m 23.84356,0.012 0,-2.34624 -2.34624,0 -2.34624,0 0,2.34624 0,2.34624 2.34624,0 2.34624,0 0,-2.34624 z m -47.6453,-0.0298 -0.006,-2.3522 -2.3403,-0.006 -2.34028,-0.006 0,2.35828 0,2.35826 2.34636,0 2.34635,0 -0.006,-2.3522 z m -19.07376,-4.75811 0,-2.37018 -2.34029,0.006 -2.34029,0.006 -0.006,2.33434 c -0.003,1.28388 -0.001,2.34773 0.005,2.3641 0.009,0.0236 0.50029,0.0298 2.34641,0.0298 l 2.3351,0 0,-2.37018 z m 38.12348,0 0,-2.35816 -2.35816,0 -2.35816,0 -0.006,2.33434 c -0.003,1.28388 -0.001,2.34779 0.005,2.36423 0.009,0.0237 0.49455,0.0286 2.36429,0.0238 l 2.35291,-0.006 0,-2.35816 z m 22.63269,2.34624 1.17513,0 0,-2.34326 0,-2.34328 -4.70194,-0.0178 c -2.58606,-0.01 -4.71376,-0.0105 -4.72821,-0.002 -0.0304,0.0188 -0.0387,4.68464 -0.008,4.71713 0.01,0.0105 1.60872,0.0123 3.55309,0.004 1.94438,-0.008 4.06403,-0.0152 4.71035,-0.0152 z m -13.09289,-2.34612 0,-2.34624 -2.35816,0 -2.35815,0 0,2.34624 0,2.34624 2.35815,0 2.35816,0 0,-2.34624 z m -19.06163,-4.7699 0.006,-2.34028 -2.34635,0 -2.34636,0 0,2.34635 0,2.34636 2.34028,-0.006 2.3403,-0.006 0.006,-2.34029 z m 14.27385,0.006 0,-2.34624 -2.34624,0 -2.34624,0 0,2.34624 0,2.34624 2.34624,0 2.34624,0 0,-2.34624 z m -38.08774,-0.0119 0,-2.33432 -2.35815,0 -2.35816,0 0,2.33432 0,2.33434 2.35816,0 2.35815,0 0,-2.33434 z m 61.90748,0 0,-2.33432 -2.33434,0 -2.33432,0 0,2.33432 0,2.33434 2.33432,0 2.33434,0 0,-2.33434 z m -71.44728,-4.76394 0,-2.37006 -2.35814,0 -2.35816,0 -0.006,2.34366 c -0.004,1.71688 10e-4,2.35235 0.0209,2.37614 0.0225,0.0271 0.41441,0.0315 2.36422,0.0264 l 2.33728,-0.006 0,-2.37006 z m 61.93736,-0.006 0.006,-2.3522 -2.35828,0 -2.35826,0 0,2.35828 0,2.35826 2.3522,-0.006 2.3522,-0.006 0.006,-2.3522 z m -33.36559,-0.018 0,-2.35827 -2.34029,0.006 -2.34029,0.006 -0.006,2.35219 -0.006,2.3522 2.34635,0 2.34637,0 0,-2.35828 z m -14.27994,-4.76383 0,-2.34624 -4.74011,0 -4.74013,0 -0.006,2.34018 -0.006,2.34017 2.38805,0.006 c 1.31342,0.003 3.44921,0.006 4.74619,0.006 l 2.35815,0 0,-2.34624 z m 28.5897,-2.38793 0.006,-4.73417 -2.34332,0 -2.34331,0 -0.0178,4.71387 c -0.01,2.59262 -0.0105,4.72573 -0.001,4.74024 0.0118,0.0191 0.66437,0.0247 2.35511,0.0203 l 2.33881,-0.006 0.006,-4.73417 z m 28.58957,2.38793 0,-2.33433 -2.34624,0 -2.34624,0 0,2.33433 0,2.33433 2.34624,0 2.34624,0 0,-2.33433 z m -42.85754,-4.78181 0.006,-2.3641 -2.37017,0 -2.37018,0 0,2.35418 c 0,1.2948 0.007,2.36138 0.016,2.37018 0.009,0.009 1.07265,0.0132 2.36411,0.01 l 2.34811,-0.006 0.006,-2.36411 z m -38.13537,0 -0.006,-2.3522 -2.34624,0 -2.34624,0 -0.006,2.3522 -0.006,2.3522 2.35839,0 2.35839,0 -0.006,-2.3522 z m 61.9133,0.006 0,-2.34624 -2.34624,0 -2.34624,0 0,2.34624 0,2.34624 2.34624,0 2.34624,0 0,-2.34624 z m -28.55985,-4.76394 0,-2.34625 -2.34624,0 -2.34624,0 0,2.34625 0,2.34624 2.34624,0 2.34624,0 0,-2.34624 z m 23.7959,0 0,-2.34625 -2.33432,0 -2.33434,0 0,2.34625 0,2.34624 2.33434,0 2.33432,0 0,-2.34624 z m 14.30375,-0.0119 0,-2.34624 -2.34624,0 -2.34624,0 -0.006,2.32242 c -0.003,1.27734 -0.001,2.33587 0.005,2.35232 0.009,0.0238 0.49216,0.0286 2.35238,0.0238 l 2.34099,-0.006 0,-2.34626 z m 9.51599,-4.75203 0,-2.37006 -2.35815,0 -2.35816,0 0,2.35418 c 0,1.2948 0.007,2.36133 0.0159,2.37006 0.009,0.009 1.0699,0.0159 2.35815,0.0159 l 2.34228,0 0,-2.37006 z m -71.43537,-0.0358 0,-2.3821 -2.35219,0.006 -2.3522,0.006 -0.006,2.34624 c -0.003,1.29043 -0.001,2.35965 0.005,2.37602 0.009,0.0235 0.50267,0.0298 2.35834,0.0298 l 2.34699,0 0,-2.38208 z m 28.55986,0 0,-2.38199 -2.33433,0 -2.33434,0 0,2.38199 0,2.38197 2.33434,0 2.33433,0 0,-2.38197 z m 23.8377,0.006 -0.006,-2.3522 -2.34028,-0.006 -2.3403,-0.006 0,2.35826 0,2.35827 2.34636,0 2.34637,0 -0.006,-2.3522 z m -33.36559,-4.7699 0,-2.35816 -2.33434,0 -2.33433,0 0,2.35816 0,2.35815 2.33433,0 2.33434,0 0,-2.35815 z"
       style="fill:#999999" />
    <path
       inkscape:connector-curvature="0"
       id="path3010"
       d="m 280.11823,213.18653 0,-2.32081 0.0521,-0.0165 c 0.0286,-0.009 2.18849,-0.008 4.79968,0.001 l 4.7476,0.0178 0,-2.38115 c 0,-2.27659 0.002,-2.38291 0.0436,-2.42059 0.0399,-0.0361 0.23926,-0.0394 2.37875,-0.0394 2.29914,0 2.33614,0.001 2.39577,0.0476 0.0596,0.0469 0.0966,0.0476 2.38103,0.0476 l 2.32047,0 0.0518,-0.0551 0.0518,-0.0551 0,-2.32685 0,-2.32684 2.34368,0 c 2.11517,0 2.34511,-0.004 2.35816,-0.0377 0.008,-0.0207 0.0145,-1.10874 0.0145,-2.41781 l 0,-2.38015 2.38793,0.006 2.38793,0.006 -0.006,2.38197 c -0.003,1.31009 -0.0113,3.44582 -0.0181,4.74607 l -0.0122,2.36412 -2.35536,0 c -2.12583,0 -2.35679,0.004 -2.36984,0.0377 -0.008,0.0207 -0.0145,1.10864 -0.0145,2.41759 l 0,2.37991 -2.37601,0.006 -2.37602,0.006 -0.006,2.31648 -0.006,2.31646 -2.38174,0 -2.38174,0 -0.006,-2.31646 -0.006,-2.31648 -2.39387,0 -2.39389,0 -0.006,2.29265 c -0.004,1.52419 0.002,2.29265 0.0179,2.29265 0.0131,0 0.0239,0.0108 0.0239,0.0238 0,0.0158 -1.62371,0.0238 -4.82349,0.0238 l -4.8235,0 0,-2.32082 z m 28.72099,0.0171 c 0.003,-1.26705 0.0142,-2.3111 0.0238,-2.32011 0.01,-0.009 2.14253,-0.0242 4.73978,-0.0337 l 4.72225,-0.0173 0,-2.36702 0,-2.36701 -2.35523,0 c -1.96022,0 -2.35977,-0.005 -2.3822,-0.0325 -0.0199,-0.0239 -0.0238,-0.65374 -0.015,-2.38793 0.0148,-2.90728 0.047,-7.14112 0.0544,-7.14915 0.003,-0.003 1.05596,-0.006 2.33984,-0.006 l 2.33434,0 0,-2.35816 0,-2.35814 -2.35816,0 -2.35815,0 0,2.33387 0,2.33388 -0.0536,0.013 c -0.0295,0.007 -1.08796,0.01 -2.35219,0.006 l -2.29861,-0.007 -0.006,-2.3449 c -0.005,-1.83965 -0.0124,-2.34897 -0.0357,-2.36374 -0.0163,-0.0104 -2.16002,-0.019 -4.76382,-0.0192 l -4.73417,0 0,-2.37804 0,-2.37802 3.51936,-0.0159 c 4.88471,-0.022 5.979,-0.0205 5.99662,0.008 0.01,0.0156 0.81482,0.0238 2.33793,0.0238 2.28716,0 2.32416,-0.001 2.38379,-0.0477 0.0596,-0.0469 0.0966,-0.0476 2.40068,-0.0476 2.05104,0 2.34377,0.004 2.36975,0.0357 0.026,0.0313 0.31909,0.0357 2.37299,0.0357 l 2.34333,0 0,2.35731 c 0,2.30623 0.001,2.35786 0.0461,2.38197 0.0309,0.0165 0.82024,0.0247 2.39133,0.0247 2.11661,0 2.34667,-0.004 2.35972,-0.0377 0.0251,-0.0654 0.0166,-4.66998 -0.009,-4.73663 l -0.0232,-0.0611 -2.34683,0 -2.34683,0 0,-2.33434 0,-2.33433 2.34029,-0.001 c 2.02004,0 2.34661,-0.006 2.38652,-0.0357 0.0399,-0.0302 0.36729,-0.035 2.39984,-0.035 l 2.3536,0 0,-2.3653 c 0,-1.80792 0.007,-2.37204 0.0286,-2.39389 0.0219,-0.0218 0.58333,-0.0286 2.38197,-0.0286 l 2.35339,0 0,-2.3822 0,-2.3822 -2.37601,0.0122 c -1.30681,0.007 -3.44255,0.0149 -4.74608,0.0181 l -2.37007,0.006 -0.006,-2.39388 c -0.003,-1.31663 0,-2.4087 0.006,-2.4268 0.007,-0.0181 0.0123,-1.08366 0.0119,-2.3679 0,-1.67858 -0.008,-2.34396 -0.0272,-2.36691 -0.0218,-0.0263 -0.43949,-0.0319 -2.36983,-0.0319 l -2.34333,0 0,-2.4177 c 0,-1.59591 -0.008,-2.41771 -0.0238,-2.41771 -0.0131,0 -0.0238,-0.0106 -0.0238,-0.0238 0,-0.0158 1.60046,-0.0238 4.75373,-0.0238 4.08816,0 4.75851,0.005 4.78778,0.034 0.0526,0.0527 0.051,4.82911 -0.002,4.87284 -0.0313,0.026 -0.0357,0.32009 -0.0357,2.38198 0,1.93785 0.006,2.35698 0.0319,2.37882 0.023,0.0191 0.69072,0.0267 2.37602,0.0272 l 2.34407,0 -0.009,-4.81084 c -0.008,-4.32039 -0.005,-4.81459 0.0281,-4.84773 0.0332,-0.0332 0.76035,-0.0369 7.17262,-0.0369 l 7.13571,0 0,2.44867 c 0,1.87276 -0.007,2.45539 -0.0286,2.47725 -0.0219,0.0218 -0.58002,0.0286 -2.36714,0.0286 -2.05302,0 -2.3422,-0.004 -2.36831,-0.0359 -0.0262,-0.0316 -0.31149,-0.0351 -2.37894,-0.0298 l -2.34918,0.006 -0.006,2.37589 -0.006,2.37591 2.36422,0.006 2.36422,0.006 0.006,2.38064 c 0.005,1.86822 0.0124,2.38469 0.0357,2.39947 0.0163,0.0104 2.14932,0.019 4.74002,0.0192 l 4.71034,0 0,2.354 0,2.354 0.0551,0.0518 0.0551,0.0518 2.33863,0 2.33865,0 0.006,2.3522 0.006,2.35218 2.37591,0.006 2.3759,0.006 0.006,-2.38804 0.006,-2.38805 2.4058,-0.0122 c 1.32318,-0.007 2.40579,-0.0147 2.40579,-0.0179 0,-0.0528 -0.0174,-3.53624 -0.0305,-6.12735 l -0.0171,-3.3705 -2.39387,-0.0119 -2.39389,-0.0119 -0.006,-2.3522 -0.006,-2.3522 -2.33422,0 -2.33421,0 0,2.34333 c 0,2.0539 -0.004,2.34698 -0.0357,2.37298 -0.0313,0.026 -0.0357,0.32041 -0.0357,2.38489 l 0,2.35523 -2.37007,0 -2.37006,0 0,-4.76254 c 0,-3.14933 0.008,-4.76752 0.0238,-4.77725 0.0156,-0.01 0.0238,-0.84188 0.0238,-2.41911 0,-1.58705 -0.008,-2.40438 -0.0238,-2.40438 -0.0131,0 -0.0238,-0.0108 -0.0238,-0.0238 0,-0.0158 2.39783,-0.0238 7.14586,-0.0238 l 7.14586,0 0.006,4.82945 0.006,4.82945 2.31646,0.006 2.31647,0.006 0,9.54564 0,9.54564 -2.26883,-0.006 c -1.24785,-0.003 -2.28223,-0.0111 -2.2986,-0.0171 -0.0235,-0.009 -0.0298,-0.50002 -0.0298,-2.34676 l 0,-2.33567 -0.0611,-0.0232 c -0.0666,-0.0253 -4.64742,-0.0339 -4.71281,-0.009 -0.034,0.013 -0.0377,0.24256 -0.0377,2.35338 0,1.7874 0.007,2.34567 0.0286,2.36752 0.0219,0.0218 0.58597,0.0286 2.39389,0.0286 l 2.36529,0 0,2.38197 0,2.38197 2.27284,0 c 1.25006,0 2.28979,0.007 2.31051,0.0145 0.034,0.0131 0.0377,0.24613 0.0377,2.39378 l 0,2.37931 -2.31647,0.006 -2.31646,0.006 -0.006,2.38793 -0.006,2.38793 -2.36739,0 c -2.13679,0 -2.36881,0.004 -2.38186,0.0377 -0.0188,0.0491 -0.0183,4.65001 0,4.7203 l 0.0144,0.0536 2.35572,0 2.35571,0 -10e-4,2.34956 c -0.001,2.07568 0.003,2.35425 0.0354,2.3898 0.0321,0.0355 0.0364,0.30676 0.0364,2.3089 0,1.93441 -0.005,2.27366 -0.034,2.30268 -0.0293,0.0293 -1.01718,0.034 -7.16961,0.034 l -7.1356,0 -0.006,-2.31647 -0.006,-2.31647 -2.39389,0 -2.39389,0 -0.006,2.29265 c -0.004,1.52419 0.002,2.29265 0.0179,2.29265 0.0131,0 0.0239,0.0107 0.0239,0.0238 0,0.0157 -0.80788,0.0238 -2.37602,0.0238 l -2.37601,1e-5 0.006,-2.26884 c 0.003,-1.24786 0.0113,-2.29295 0.0183,-2.32242 l 0.0127,-0.0536 2.33388,0 2.33389,0 0,-2.37006 0,-2.37006 -2.35805,0 -2.35803,0 -0.006,2.3522 -0.006,2.3522 -2.35814,0 -2.35816,0 -0.006,-2.3522 -0.006,-2.3522 2.35549,0 2.35549,0 0.0144,-0.0536 c 0.008,-0.0295 0.0145,-1.11209 0.0147,-2.40579 l 0,-2.3522 2.39388,0 2.39388,0 0,2.36995 0,2.36995 2.3641,0.006 2.36412,0.006 0.0119,2.39389 0.0119,2.39389 2.36749,0.006 c 1.72956,0.005 2.37619,-0.001 2.39983,-0.0208 0.0269,-0.0223 0.0324,-0.42423 0.0324,-2.36602 l 0,-2.33918 -0.0551,-0.0518 -0.0551,-0.0518 -2.33875,0 -2.33875,0 0,-2.33434 0,-2.33433 2.34483,0 c 1.53754,0 2.3499,-0.008 2.35956,-0.0238 0.01,-0.0156 0.82838,-0.0239 2.37743,-0.0242 1.29948,0 2.37615,-0.009 2.39259,-0.0193 0.0237,-0.015 0.0286,-0.50843 0.0238,-2.38756 l -0.006,-2.36859 -2.38089,-0.006 c -1.53952,-0.004 -2.38928,-0.0144 -2.4046,-0.0298 -0.0154,-0.0154 -0.84359,-0.0237 -2.36519,-0.0237 l -2.34148,0 0,-2.33432 0,-2.33434 2.34209,0 2.3421,0 0.0518,-0.0551 0.0518,-0.0551 0,-2.33934 0,-2.33934 -0.0611,-0.0232 c -0.072,-0.0274 -5.34608,-0.031 -10.67764,-0.007 l -3.57691,0.0159 0,2.36612 0,2.36611 2.35523,0 c 1.95534,0 2.35979,0.005 2.38209,0.0324 0.0196,0.0236 0.0252,0.66718 0.0208,2.38793 l -0.006,2.35557 -2.3878,0.006 -2.38781,0.006 -0.006,-2.37614 -0.006,-2.37614 -4.7257,-0.006 c -3.47324,-0.004 -4.73427,0.001 -4.758,0.0208 -0.0268,0.0222 -0.0323,0.42501 -0.0323,2.35567 0,2.10164 -0.004,2.33027 -0.0377,2.34332 -0.0207,0.008 -1.08189,0.0145 -2.35816,0.0145 l -2.32047,0 0,-2.34684 0,-2.34683 -0.0611,-0.0232 c -0.074,-0.0281 -4.67641,-0.0317 -4.72058,-0.004 -0.0233,0.0148 -0.031,0.52886 -0.0357,2.38757 l -0.006,2.36872 -4.77288,0.006 -4.77287,0.006 0.0175,4.7341 c 0.0116,3.14054 0.0256,4.74416 0.0417,4.76394 0.0192,0.0238 0.98361,0.0286 4.73156,0.0238 l 4.70738,-0.006 0.006,-2.35641 c 0.005,-2.08617 0.0103,-2.36106 0.0429,-2.39707 0.0327,-0.0361 0.0367,-0.30339 0.0356,-2.38966 l -0.001,-2.34902 2.35807,0 2.35807,0 0.006,2.3522 0.006,2.3522 2.38197,0.0119 c 1.31691,0.007 2.39659,0.0213 2.41467,0.033 0.0276,0.0178 0.03,0.75636 0.0152,4.76393 -0.0126,3.42984 -0.0248,4.75195 -0.044,4.77564 -0.0225,0.0277 -0.75511,0.03 -4.74939,0.0149 l -4.72281,-0.0178 0,2.2913 c 0,1.95404 -0.005,2.29631 -0.034,2.32534 -0.029,0.029 -0.38168,0.034 -2.40324,0.034 -2.13845,0 -2.37063,-0.004 -2.38368,-0.0377 -0.008,-0.0207 -0.0144,-1.06046 -0.0144,-2.31051 l 0,-2.27284 -2.35816,0 -2.35815,0 0,2.27284 c 0,1.25005 -0.007,2.28978 -0.0145,2.31051 -0.0131,0.0342 -0.45553,0.0377 -4.7699,0.0377 l -4.75543,1e-5 0.006,-2.30373 z m 61.90723,-19.04919 c 0.005,-1.8696 0,-2.3606 -0.0238,-2.37566 -0.0345,-0.0219 -4.63982,-0.027 -4.69662,-0.005 -0.034,0.013 -0.0377,0.24368 -0.0377,2.36609 0,1.29341 0.007,2.35883 0.016,2.36763 0.009,0.009 1.07801,0.0133 2.37601,0.01 l 2.36002,-0.006 0.006,-2.35667 z m -28.58534,-7.18728 0.0551,-0.0518 0,-4.72407 0,-4.72406 2.33434,0 2.33432,0 0,2.35769 0,2.35771 0.0536,0.013 c 0.0295,0.007 1.10939,0.01 2.39983,0.006 l 2.34624,-0.007 0.006,-2.36858 c 0.005,-1.87912 0,-2.37252 -0.0238,-2.38756 -0.0164,-0.0104 -1.08837,-0.0191 -2.38208,-0.0193 l -2.3522,0 0,-2.3522 c 0,-1.2937 -0.009,-2.36564 -0.0193,-2.38209 -0.0151,-0.0237 -0.50605,-0.0286 -2.37564,-0.0238 l -2.35668,0.006 -0.006,2.37591 -0.006,2.37591 -2.37589,0.006 -2.3759,0.006 -0.006,2.37966 c -0.004,1.71024 -0.0135,2.3887 -0.0327,2.41175 -0.022,0.0265 -0.43275,0.0321 -2.35803,0.0321 l -2.33142,0 0,2.33433 0,2.33434 2.33169,0 c 2.28361,0 2.33285,0.001 2.38793,0.0468 0.055,0.0459 0.10486,0.0469 2.37712,0.0476 l 2.32088,10e-4 0.0551,-0.0518 z m -0.0401,-16.70538 0,-2.34624 -2.35816,0 -2.35814,0 0,2.34624 0,2.34624 2.35814,0 2.35816,0 0,-2.34624 z m -61.97297,35.82099 c -0.0235,-0.01 -0.0298,-0.50979 -0.0298,-2.38944 0,-2.14594 0.004,-2.37886 0.0377,-2.39191 0.0207,-0.008 1.114,-0.0145 2.42949,-0.0145 l 2.39183,0 0.006,-2.38793 0.006,-2.38793 2.39389,-0.0119 2.39389,-0.0119 0.0119,-2.34624 0.0119,-2.34624 2.34624,0 2.34625,0 0.006,2.34937 c 0.005,2.05087 0.0105,2.35314 0.0417,2.37894 0.0312,0.0259 0.0356,0.32371 0.0356,2.3848 l 0,2.35523 -0.0505,0.0505 -0.0505,0.0505 -4.72532,-0.0178 -4.72531,-0.0178 0,2.35638 c 0,1.801 -0.007,2.36313 -0.0286,2.38498 -0.0219,0.0219 -0.59046,0.0281 -2.42365,0.0267 -1.31729,-10e-4 -2.40848,-0.007 -2.42485,-0.0139 z m 62.06627,-4.80572 c -0.005,-0.005 -0.007,-1.06663 -0.004,-2.35816 l 0.006,-2.34822 2.29642,0 c 1.26304,0 2.31338,-0.007 2.33411,-0.0145 0.0342,-0.0131 0.0377,0.20444 0.0377,2.35815 l 0,2.37262 -2.33037,0 c -1.28169,0 -2.33483,-0.005 -2.34028,-0.01 z m 9.52987,-2.36014 0,-2.37007 2.33434,0 2.33432,0 0,2.37007 0,2.37006 -2.33432,0 -2.33434,0 0,-2.37006 z m -71.62591,-7.16719 c 0,-3.16973 0.008,-4.7784 0.0238,-4.7784 0.0131,0 0.0238,0.0108 0.0238,0.0239 0,0.0159 0.80816,0.0219 2.41175,0.0179 l 2.41174,-0.006 0.006,-2.39995 0.006,-2.39996 2.3878,0.006 2.38782,0.006 0.006,2.35355 c 0.004,1.59525 -0.002,2.36846 -0.0187,2.39983 -0.0243,0.0454 -0.0721,0.0463 -2.39107,0.0463 l -2.3663,0 -0.0178,4.74013 -0.0178,4.74013 -2.38895,0 c -1.31392,0 -2.4059,0.007 -2.42663,0.0145 -0.0343,0.0131 -0.0377,-0.41645 -0.0377,-4.76395 z m 14.44921,-4.86372 c -0.008,-0.0207 -0.0145,-1.0744 -0.0145,-2.34149 0,-1.76008 -0.007,-2.31054 -0.0286,-2.33238 -0.0218,-0.0218 -0.58067,-0.0286 -2.37006,-0.0286 l -2.34147,0 0,-2.35399 0,-2.354 -0.0551,-0.0518 -0.0551,-0.0518 -2.35065,0 -2.35067,0 0,-2.32957 c 0,-1.78013 -0.007,-2.3363 -0.0286,-2.35815 -0.0219,-0.0219 -0.59655,-0.0286 -2.44152,-0.0286 l -2.41293,0 -2e-5,-2.38793 0,-2.38791 1.43514,0.006 c 0.78933,0.003 1.87719,0.009 2.41746,0.0119 0.80021,0.005 0.98456,0 0.99448,-0.0258 0.007,-0.0174 0.0122,-1.09201 0.0122,-2.38793 l 0,-2.3562 -2.39193,0 c -1.31557,0 -2.40889,-0.007 -2.42962,-0.0145 -0.034,-0.013 -0.0377,-0.25243 -0.0377,-2.46534 l 0,-2.45089 4.82349,0 4.82349,0 0,2.42962 0,2.4296 2.35816,0 2.35815,0 0,-2.39558 c 0,-2.0444 0.005,-2.40057 0.034,-2.4296 0.0293,-0.0293 0.69883,-0.034 4.78181,-0.034 l 4.74778,0 -0.006,2.41175 c -0.003,1.32647 -0.0109,2.42504 -0.017,2.4413 -0.009,0.0231 -0.52462,0.0322 -2.37596,0.0417 -1.30071,0.007 -3.42878,0.0176 -4.72904,0.0243 l -2.36412,0.0122 0,2.35336 c 0,2.03237 -0.005,2.35969 -0.035,2.39962 -0.0302,0.0399 -0.0351,0.36599 -0.0357,2.38236 l -10e-4,2.33615 0.0551,0.0518 0.0551,0.0518 2.33875,0 2.33875,0 0,2.34148 c 0,1.78939 0.007,2.34822 0.0286,2.37007 0.0218,0.0218 0.58332,0.0286 2.38198,0.0286 l 2.35339,0 0,-2.37906 c 0,-1.97539 0.005,-2.38361 0.0324,-2.40591 0.0236,-0.0196 0.67028,-0.0252 2.39984,-0.0208 l 2.36748,0.006 0.006,2.39811 c 0.006,2.21901 0.009,2.39868 0.0459,2.40579 0.0219,0.004 1.08034,0.002 2.35209,-0.004 l 2.31227,-0.0119 0.006,-2.39983 c 0.006,-2.27434 0.004,-2.39987 -0.0357,-2.40031 -0.023,0 -1.07273,0 -2.33276,0 -1.82574,0.001 -2.29493,-0.005 -2.31051,-0.0293 -0.0108,-0.0166 -0.0249,-1.08067 -0.0315,-2.36456 l -0.0119,-2.33433 -2.3732,-0.006 c -1.96077,-0.005 -2.37785,-0.0118 -2.39996,-0.0383 -0.0195,-0.0235 -0.0251,-0.67511 -0.0207,-2.39972 l 0.006,-2.36749 2.4058,-0.0122 c 1.32318,-0.007 2.40579,-0.0147 2.40579,-0.0179 0,-0.16008 -0.0137,-3.08514 -0.0179,-3.8228 l -0.006,-1.04212 2.37601,1e-5 2.37602,0 0,4.83065 c 0,3.7254 0.007,4.83717 0.0286,4.85923 0.0218,0.0218 0.57784,0.0286 2.35731,0.0286 2.27798,0 2.32927,-0.001 2.35339,-0.0461 0.0165,-0.0309 0.0247,-0.82473 0.0247,-2.40581 l 0,-2.35971 2.38057,0 c 1.71034,0 2.38514,0.007 2.39681,0.0263 0.009,0.0145 0.008,2.16359 -0.002,4.77584 l -0.0178,4.74958 -2.34133,0 c -1.28772,0 -2.35828,0.007 -2.37899,0.0144 -0.034,0.013 -0.0377,0.24312 -0.0377,2.35973 0,1.5711 0.008,2.36046 0.0247,2.39133 0.0241,0.0451 0.0755,0.0461 2.35814,0.0461 l 2.33351,0 0,2.35815 0,2.35814 -2.34333,0 c -2.0539,0 -2.347,0.004 -2.37299,0.0357 -0.026,0.0313 -0.31872,0.0357 -2.36977,0.0357 -2.30404,0 -2.34104,-0.001 -2.40067,-0.0476 -0.0596,-0.0469 -0.0966,-0.0476 -2.409,-0.0476 l -2.34844,0 0,-2.34624 0,-2.34624 -2.38187,0 -2.38185,0 -0.006,2.35219 -0.006,2.3522 -2.35585,0.006 c -1.69262,0.004 -2.36488,0.0135 -2.38793,0.0327 -0.0265,0.022 -0.0321,0.43472 -0.0321,2.36994 l 0,2.34333 -2.3437,0 c -2.11517,0 -2.3451,-0.004 -2.35815,-0.0377 z m -14.44921,-7.07252 0,-2.39388 2.4177,0 2.4177,0 0,2.37007 0,2.37005 -2.39388,0 c -1.58005,0 -2.39389,0.008 -2.39389,0.0238 0,0.0131 -0.0107,0.0238 -0.0238,0.0238 -0.0157,0 -0.0238,-0.81384 -0.0238,-2.39389 z m 81.14983,-4.7281 c -0.002,-1.27085 -0.005,-2.32938 -0.006,-2.35231 -0.002,-0.0394 0.12486,-0.0417 2.34426,-0.0417 l 2.34624,0 0,2.34624 0,2.34626 -2.34028,0.006 -2.3403,0.006 -0.004,-2.31063 z"
       style="fill:#000000" />
  </g>
</svg>
