<?xml version="1.0" encoding="UTF-8" standalone="no"?>
<!-- Created with Inkscape (http://www.inkscape.org/) -->

<svg
   xmlns:dc="http://purl.org/dc/elements/1.1/"
   xmlns:cc="http://creativecommons.org/ns#"
   xmlns:rdf="http://www.w3.org/1999/02/22-rdf-syntax-ns#"
   xmlns:svg="http://www.w3.org/2000/svg"
   xmlns="http://www.w3.org/2000/svg"
   xmlns:sodipodi="http://sodipodi.sourceforge.net/DTD/sodipodi-0.dtd"
   xmlns:inkscape="http://www.inkscape.org/namespaces/inkscape"
   width="69.277"
   height="69.723999"
   id="svg2"
   version="1.1"
   inkscape:version="0.48.4 r9939"
   sodipodi:docname="filter.svg">
  <defs
     id="defs4" />
  <sodipodi:namedview
     id="base"
     pagecolor="#ffffff"
     bordercolor="#666666"
     borderopacity="1.0"
     inkscape:pageopacity="0.0"
     inkscape:pageshadow="2"
     inkscape:zoom="5.6"
     inkscape:cx="-0.55174844"
     inkscape:cy="29.284431"
     inkscape:document-units="px"
     inkscape:current-layer="layer1"
     showgrid="false"
     fit-margin-top="0"
     fit-margin-left="0"
     fit-margin-right="0"
     fit-margin-bottom="0"
     inkscape:window-width="1280"
     inkscape:window-height="962"
     inkscape:window-x="-8"
     inkscape:window-y="-8"
     inkscape:window-maximized="1" />
  <metadata
     id="metadata7">
    <rdf:RDF>
      <cc:Work
         rdf:about="">
        <dc:format>image/svg+xml</dc:format>
        <dc:type
           rdf:resource="http://purl.org/dc/dcmitype/StillImage" />
        <dc:title></dc:title>
      </cc:Work>
    </rdf:RDF>
  </metadata>
  <g
     inkscape:label="Layer 1"
     inkscape:groupmode="layer"
     id="layer1"
     transform="translate(-295.3615,-151.7859)">
    <path
       style="fill:#020202"
       d="m 307.33466,221.44544 c -1.64464,-0.32365 -3.07166,-1.78168 -3.3908,-3.4645 -0.14233,-0.75052 -0.14233,-61.92411 0,-62.67463 0.33084,-1.74452 1.7452,-3.15608 3.47987,-3.47299 0.37489,-0.0685 8.15385,-0.0945 22.95042,-0.0767 l 22.38328,0.0269 0.57785,0.23363 c 1.12785,0.456 2.10592,1.43163 2.55827,2.55189 l 0.23744,0.58803 0.0266,31.12588 c 0.0174,20.47663 -0.008,31.31552 -0.0759,31.68017 -0.32256,1.74491 -1.73398,3.1657 -3.46591,3.48893 -0.68353,0.12756 -44.63183,0.12114 -45.28104,-0.006 z m 13.86468,-8.70275 c 0.17627,-0.17627 0.17627,-8.37006 0,-8.54634 -0.0914,-0.0914 -1.18132,-0.12268 -4.27317,-0.12268 -3.09187,0 -4.18179,0.0313 -4.27318,0.12268 -0.17628,0.17628 -0.17628,8.37007 0,8.54634 0.0914,0.0914 1.18131,0.12267 4.27318,0.12267 3.09185,0 4.18178,-0.0312 4.27317,-0.12267 z m 13.08531,0 c 0.0914,-0.0914 0.12268,-1.18131 0.12268,-4.27317 0,-3.09186 -0.0313,-4.18179 -0.12268,-4.27317 -0.0914,-0.0914 -1.18132,-0.12268 -4.27317,-0.12268 -3.09186,0 -4.18179,0.0313 -4.27317,0.12268 -0.0914,0.0914 -0.12268,1.18131 -0.12268,4.27317 0,3.09186 0.0312,4.18179 0.12268,4.27317 0.0914,0.0914 1.18131,0.12267 4.27317,0.12267 3.09185,0 4.18178,-0.0312 4.27317,-0.12267 z m 13.08531,0 c 0.0914,-0.0914 0.12268,-1.18131 0.12268,-4.27317 0,-3.09186 -0.0312,-4.18179 -0.12268,-4.27317 -0.0914,-0.0914 -1.18131,-0.12268 -4.27317,-0.12268 -3.09186,0 -4.18179,0.0313 -4.27317,0.12268 -0.0914,0.0914 -0.12268,1.18131 -0.12268,4.27317 0,3.09186 0.0312,4.18179 0.12268,4.27317 0.0914,0.0914 1.18131,0.12267 4.27317,0.12267 3.09186,0 4.18178,-0.0312 4.27317,-0.12267 z m -26.17062,-13.08531 c 0.17627,-0.17628 0.17627,-8.37007 0,-8.54635 -0.17628,-0.17628 -8.37007,-0.17628 -8.54635,0 -0.17628,0.17628 -0.17628,8.37007 0,8.54635 0.0914,0.0914 1.18131,0.12267 4.27318,0.12267 3.09185,0 4.18178,-0.0313 4.27317,-0.12267 z m 13.08531,0 c 0.0914,-0.0914 0.12268,-1.18131 0.12268,-4.27317 0,-3.09187 -0.0313,-4.1818 -0.12268,-4.27318 -0.17628,-0.17628 -8.37007,-0.17628 -8.54634,0 -0.0914,0.0914 -0.12268,1.18131 -0.12268,4.27318 0,3.09186 0.0312,4.18179 0.12268,4.27317 0.0914,0.0914 1.18131,0.12267 4.27317,0.12267 3.09185,0 4.18178,-0.0313 4.27317,-0.12267 z m 13.08531,0 c 0.0914,-0.0914 0.12268,-1.18131 0.12268,-4.27317 0,-3.09187 -0.0312,-4.1818 -0.12268,-4.27318 -0.17628,-0.17628 -8.37007,-0.17628 -8.54634,0 -0.0914,0.0914 -0.12268,1.18131 -0.12268,4.27318 0,3.09186 0.0312,4.18179 0.12268,4.27317 0.0914,0.0914 1.18131,0.12267 4.27317,0.12267 3.09186,0 4.18178,-0.0313 4.27317,-0.12267 z m -26.24569,-13.06847 c 0.19049,-0.10194 0.19774,-0.25722 0.19774,-4.23414 0,-2.27058 -0.028,-4.20108 -0.062,-4.29002 -0.0552,-0.14388 -0.53283,-0.1617 -4.3338,-0.1617 -3.80097,0 -4.27858,0.0178 -4.3338,0.1617 -0.0342,0.089 -0.062,2.01878 -0.062,4.28854 0,3.82247 0.0132,4.13452 0.1789,4.23104 0.24649,0.14356 8.14732,0.14788 8.41506,0.005 z m 13.08532,0 c 0.19048,-0.10194 0.19774,-0.25722 0.19774,-4.23414 0,-2.27058 -0.028,-4.20108 -0.062,-4.29002 -0.0552,-0.14388 -0.53283,-0.1617 -4.33379,-0.1617 -3.80098,0 -4.27859,0.0178 -4.33381,0.1617 -0.0342,0.089 -0.062,2.01878 -0.062,4.28854 0,3.82247 0.0132,4.13452 0.17889,4.23104 0.2465,0.14356 8.14733,0.14788 8.41506,0.005 z m 13.08531,0 c 0.19048,-0.10194 0.19774,-0.25722 0.19774,-4.23414 0,-2.27058 -0.028,-4.20108 -0.062,-4.29002 -0.0552,-0.14388 -0.53283,-0.1617 -4.33379,-0.1617 -3.80097,0 -4.27858,0.0178 -4.3338,0.1617 -0.0342,0.089 -0.062,2.01878 -0.062,4.28854 0,3.82247 0.0131,4.13452 0.1789,4.23104 0.24649,0.14356 8.14732,0.14788 8.41505,0.005 z m 4.46655,-23.94354 0.0263,-6.51711 -21.77554,0 -21.77553,0 0,6.47451 c 0,3.56098 0.0308,6.50528 0.0684,6.54289 0.0376,0.0376 9.82476,0.0568 21.74921,0.0426 l 21.68084,-0.0258 0.0263,-6.51709 z"
       id="path3105"
       inkscape:connector-curvature="0" />
  </g>
</svg>
