<?xml version="1.0" encoding="UTF-8" standalone="no"?>
<!-- Created with Inkscape (http://www.inkscape.org/) -->

<svg
   xmlns:dc="http://purl.org/dc/elements/1.1/"
   xmlns:cc="http://creativecommons.org/ns#"
   xmlns:rdf="http://www.w3.org/1999/02/22-rdf-syntax-ns#"
   xmlns:svg="http://www.w3.org/2000/svg"
   xmlns="http://www.w3.org/2000/svg"
   xmlns:sodipodi="http://sodipodi.sourceforge.net/DTD/sodipodi-0.dtd"
   xmlns:inkscape="http://www.inkscape.org/namespaces/inkscape"
   width="69.277"
   height="69.723999"
   id="svg2"
   version="1.1"
   inkscape:version="0.91 r13725"
   sodipodi:docname="camCalFile.svg">
  <defs
     id="defs4" />
  <sodipodi:namedview
     id="base"
     pagecolor="#ffffff"
     bordercolor="#666666"
     borderopacity="1.0"
     inkscape:pageopacity="0.0"
     inkscape:pageshadow="2"
     inkscape:zoom="2.8"
     inkscape:cx="64.965828"
     inkscape:cy="54.063914"
     inkscape:document-units="px"
     inkscape:current-layer="g4152"
     showgrid="false"
     fit-margin-top="0"
     fit-margin-left="0"
     fit-margin-right="0"
     fit-margin-bottom="0"
     inkscape:window-width="1280"
     inkscape:window-height="1002"
     inkscape:window-x="1272"
     inkscape:window-y="-8"
     inkscape:window-maximized="1" />
  <metadata
     id="metadata7">
    <rdf:RDF>
      <cc:Work
         rdf:about="">
        <dc:format>image/svg+xml</dc:format>
        <dc:type
           rdf:resource="http://purl.org/dc/dcmitype/StillImage" />
        <dc:title />
      </cc:Work>
    </rdf:RDF>
  </metadata>
  <g
     inkscape:label="Layer 1"
     inkscape:groupmode="layer"
     id="layer1"
     transform="translate(-295.3615,-151.7859)">
    <g
       id="g5572"
       transform="translate(0.04922171,-0.23700219)">
      <path
         id="path4143"
         d="m 329.07775,177.18318 c 0,4.76173 -3.8633,8.62503 -8.62503,8.62503 -4.76317,0 -8.62503,-3.8633 -8.62503,-8.62503 0,-4.76173 3.86186,-8.62503 8.62503,-8.62503 4.76173,0 8.62503,3.8633 8.62503,8.62503 z m 14.37505,-11.50004 0,23.00008 c 0,3.17545 -2.57457,5.75002 -5.75002,5.75002 l -34.50012,0 c -3.17545,0 -5.75002,-2.57457 -5.75002,-5.75002 l 0,-23.00008 c 0,-3.17545 2.57457,-5.75002 5.75002,-5.75002 l 8.62503,0 0,-2.87501 c 0,-1.58916 1.28729,-2.87501 2.87501,-2.87501 l 11.50004,0 c 1.58915,0 2.87501,1.28593 2.87501,2.87501 l 0,2.87501 8.62503,0 c 3.17545,0 5.75002,2.57457 5.75002,5.75002 z m -11.50004,11.50004 c 0,-6.33966 -5.16046,-11.50004 -11.50004,-11.50004 -6.34102,0 -11.50004,5.16046 -11.50004,11.50004 0,6.33958 5.15902,11.50004 11.50004,11.50004 6.33967,0 11.50004,-5.16037 11.50004,-11.50004 z m 8.62503,-14.37505 -8.62503,0 0,5.75002 8.62503,0 0,-5.75002 z"
         inkscape:connector-curvature="0" />
      <g
         id="g4152"
         transform="matrix(0.61138959,0,0,0.61138959,140.32497,85.75848)">
        <path
           sodipodi:nodetypes="ccscccssscccccsccscc"
           inkscape:connector-curvature="0"
           id="path4153"
           d="m 301.28659,220.00148 c -0.20034,-0.12091 -0.4442,-0.44244 -0.54191,-0.71452 -0.12305,-0.34266 -0.17764,-10.30274 -0.17764,-32.4098 l 0,-31.91514 0.43959,-0.65515 0.4396,-0.65514 10.99052,0 c 9.31811,0 11.06229,0.0553 11.46212,0.36345 0.50661,0.39044 0.93793,1.29888 2.86189,6.02773 l 1.23537,3.0364 15.88977,0.008 15.88977,0.008 0.40928,0.60995 0.40927,0.60997 0,27.31913 c 0,26.5277 -0.009,27.33612 -0.31874,27.90579 l -0.31874,0.58666 -29.15294,0.0475 c -16.59849,0.027 -29.30981,-0.0472 -29.51721,-0.17236 z"
           style="fill:#c8ab37;stroke:#000000;stroke-opacity:1" />
        <rect
           ry="1.1603104"
           y="167.93597"
           x="328.64731"
           height="4.2931485"
           width="8.586297"
           id="rect2990"
           style="fill:#ffffff;fill-opacity:1;fill-rule:evenodd;stroke:#000000;stroke-opacity:1" />
        <rect
           style="fill:#ffffff;fill-opacity:1;fill-rule:evenodd;stroke:#000000;stroke-opacity:1"
           id="rect3760"
           width="8.586297"
           height="4.2931485"
           x="324.64731"
           y="173.93597"
           ry="1.1603104" />
        <rect
           ry="1.1603104"
           y="179.93597"
           x="328.64731"
           height="4.2931485"
           width="8.586297"
           id="rect3762"
           style="fill:#ffffff;fill-opacity:1;fill-rule:evenodd;stroke:#000000;stroke-opacity:1" />
        <rect
           style="fill:#ffffff;fill-opacity:1;fill-rule:evenodd;stroke:#000000;stroke-opacity:1"
           id="rect3764"
           width="8.586297"
           height="4.2931485"
           x="324.64731"
           y="185.93597"
           ry="1.1603104" />
        <rect
           ry="1.1603104"
           y="191.93597"
           x="328.64731"
           height="4.2931485"
           width="8.586297"
           id="rect3766"
           style="fill:#ffffff;fill-opacity:1;fill-rule:evenodd;stroke:#000000;stroke-opacity:1" />
        <rect
           transform="matrix(0,-1,1,0,0,0)"
           ry="2.0134797"
           y="329.05087"
           x="-216.15933"
           height="7.4498754"
           width="16.41498"
           id="rect3768"
           style="fill:#ffffff;fill-opacity:1;fill-rule:evenodd;stroke:#000000;stroke-opacity:1" />
        <rect
           style="fill:#000000;fill-opacity:1;fill-rule:evenodd;stroke:none"
           id="rect3770"
           width="3.7880733"
           height="4.7982249"
           x="-215.0229"
           y="330.43985"
           ry="1.2968175"
           transform="matrix(0,-1,1,0,0,0)" />
      </g>
    </g>
  </g>
</svg>
