<?xml version="1.0" encoding="UTF-8" standalone="no"?>
<!-- Created with Inkscape (http://www.inkscape.org/) -->

<svg
   xmlns:dc="http://purl.org/dc/elements/1.1/"
   xmlns:cc="http://creativecommons.org/ns#"
   xmlns:rdf="http://www.w3.org/1999/02/22-rdf-syntax-ns#"
   xmlns:svg="http://www.w3.org/2000/svg"
   xmlns="http://www.w3.org/2000/svg"
   xmlns:sodipodi="http://sodipodi.sourceforge.net/DTD/sodipodi-0.dtd"
   xmlns:inkscape="http://www.inkscape.org/namespaces/inkscape"
   width="69.277"
   height="69.723999"
   id="svg2"
   version="1.1"
   inkscape:version="0.48.4 r9939"
   sodipodi:docname="chasePixel.svg">
  <defs
     id="defs4" />
  <sodipodi:namedview
     id="base"
     pagecolor="#ffffff"
     bordercolor="#666666"
     borderopacity="1.0"
     inkscape:pageopacity="0.0"
     inkscape:pageshadow="2"
     inkscape:zoom="3.959798"
     inkscape:cx="75.807324"
     inkscape:cy="27.735181"
     inkscape:document-units="px"
     inkscape:current-layer="g3824"
     showgrid="false"
     fit-margin-top="0"
     fit-margin-left="0"
     fit-margin-right="0"
     fit-margin-bottom="0"
     inkscape:window-width="1280"
     inkscape:window-height="962"
     inkscape:window-x="-8"
     inkscape:window-y="-8"
     inkscape:window-maximized="1" />
  <metadata
     id="metadata7">
    <rdf:RDF>
      <cc:Work
         rdf:about="">
        <dc:format>image/svg+xml</dc:format>
        <dc:type
           rdf:resource="http://purl.org/dc/dcmitype/StillImage" />
        <dc:title></dc:title>
      </cc:Work>
    </rdf:RDF>
  </metadata>
  <g
     inkscape:label="Layer 1"
     inkscape:groupmode="layer"
     id="layer1"
     transform="translate(-295.3615,-151.7859)">
    <g
       id="g5572"
       transform="translate(0.04922171,-0.23700219)">
      <g
         id="g3887"
         transform="translate(-0.00359877,7.0287522)">
        <path
           sodipodi:nodetypes="cscsssccc"
           inkscape:connector-curvature="0"
           id="path3832"
           d="m 322.06075,180.21581 c 0,0 5.1093,0.74504 6.8841,0.74504 1.77481,0 5.59333,-1.22401 5.59333,-1.22401 0,0 0.96807,0 1.50589,0.79828 0.53783,0.79826 -0.37647,1.86262 -1.72102,2.448 -1.34455,0.5854 -3.44205,1.27723 -6.02358,1.1708 -2.58154,-0.10645 -9.62699,-0.9047 -9.62699,-0.9047 l 2.4202,-3.77846 z"
           style="fill:#000000;stroke:#000000;stroke-width:1px;stroke-linecap:butt;stroke-linejoin:miter;stroke-opacity:1" />
        <path
           sodipodi:nodetypes="sssscsssscsssssssccsccscccssssssscssscscs"
           inkscape:connector-curvature="0"
           id="path3019"
           d="m 296.13207,196.39052 c -0.45721,-0.45243 -0.6345,-0.82969 -0.6345,-1.35018 0,-0.97001 0.3752,-1.97776 0.8135,-2.18499 0.1968,-0.0931 1.60367,-0.21919 3.12637,-0.28031 l 2.76856,-0.11114 0.10652,-4.42535 c 0.11181,-4.64716 0.21461,-5.15915 1.21588,-6.05579 0.53792,-0.48171 12.22207,-6.01661 13.56529,-6.42602 0.92482,-0.28189 1.17439,-0.28281 2.17194,-0.008 l 1.12707,0.31042 -0.11468,-1.28588 c -0.17897,-2.00688 0.58574,-3.35713 2.35037,-4.15011 2.23065,-1.00239 4.67672,0.13175 5.36942,2.4896 0.2937,0.99966 0.2937,1.22472 0,2.22439 -0.67194,2.28715 -3.16482,3.49142 -5.35389,2.58636 -0.85479,-0.35341 -0.84744,-0.37069 -0.38726,0.91139 0.5354,1.49162 0.26672,2.77961 -0.82408,3.95058 -0.47621,0.51121 -1.09174,0.98558 -1.36785,1.05414 -0.49456,0.17097 -0.24106,1.91156 -0.25996,3.29639 0.10034,1.947 0.13765,2.48416 0.79753,4.33318 0.43211,1.21077 0.51674,2.01373 0.51674,2.20713 -0.0526,0.85707 -0.28793,1.60226 -1.0731,1.76108 -1.47432,0.60955 -1.95607,0.087 -3.23712,-3.51099 -0.71987,-2.02185 -0.86315,-2.69197 -0.86467,-4.04415 -10e-4,-0.8914 -0.0993,-1.6804 -0.21863,-1.75331 -0.29182,-0.17847 -3.22243,1.17237 -3.13117,1.44329 0.0396,0.1176 0.43532,0.31563 0.87935,0.44008 0.89789,0.25166 2.20845,1.44191 2.39426,2.17446 0.24834,0.97909 -0.12768,1.44659 -2.95379,3.67245 -3.87245,3.04996 -4.40114,3.38706 -5.05783,3.22498 -0.29652,-0.0732 -0.70684,-0.28264 -0.91182,-0.46543 -0.34072,-0.30382 -0.4111,-0.29789 -0.82047,0.0691 -0.4049,0.36301 -0.87423,0.40762 -4.9026,0.46598 l -4.45484,0.0646 z m 11.81005,-4.36012 c 0.92229,-0.80575 0.87299,-0.99216 -0.34868,-1.31839 l -0.78856,-0.21058 -0.13846,0.91359 c -0.13248,0.87418 -0.0251,1.37503 0.29063,1.35621 0.0809,-0.004 0.52423,-0.33819 0.98507,-0.74083 z"
           style="fill:#5b5b5b" />
        <path
           sodipodi:nodetypes="ssssssssssssssscsscsssssscscssssssscscsscscssccssssssss"
           inkscape:connector-curvature="0"
           id="path3017"
           d="m 296.18971,196.1636 c -0.37171,-0.30684 -0.47917,-0.61671 -0.47917,-1.38165 0,-1.59001 0.38074,-1.77569 3.65844,-1.78421 2.16391,-0.006 2.76657,-0.0728 3.03477,-0.33815 0.28188,-0.27894 0.33466,-0.99468 0.33466,-4.53913 0,-3.75051 0.045,-4.2952 0.41366,-5.01031 0.22751,-0.44129 0.63482,-0.94355 0.90511,-1.11612 0.2703,-0.17257 3.27064,-1.62159 6.66744,-3.22004 6.98755,-3.28814 7.6138,-3.46331 9.26103,-2.59039 1.73309,0.91844 2.6163,3.45286 1.84216,5.28619 -0.32236,0.76342 -1.55288,1.89701 -1.8572,1.7109 -0.10718,-0.0656 -0.19493,-0.83107 -0.19493,-1.70111 0,-1.79881 -0.18076,-2.26085 -1.06057,-2.71104 -0.75022,-0.38389 -1.29028,-0.40156 -2.03339,-0.0665 -0.96024,0.43292 -1.16536,1.14834 -1.16536,4.06447 l 0,2.65133 -3.14125,1.49406 c -1.72768,0.82173 -3.76417,1.71512 -4.52552,1.98528 l -1.38427,0.49124 -0.10652,3.29385 c -0.0953,2.94763 -0.14994,3.32522 -0.51988,3.59238 -0.3257,0.23522 -1.3422,0.29706 -4.79173,0.29154 -3.9644,-0.007 -4.42364,-0.0444 -4.85751,-0.40256 z m 11.18071,0.18196 c -0.29773,-0.1716 -0.37269,-0.50608 -0.37269,-1.66315 l 0,-1.44836 1.1588,-0.97961 c 0.63734,-0.53878 1.11358,-1.09619 1.05833,-1.2387 -0.0552,-0.14249 -0.5417,-0.37585 -1.08097,-0.51858 -0.53927,-0.14271 -0.92591,-0.31351 -0.85919,-0.37952 0.0667,-0.066 1.15777,-0.58966 2.42453,-1.16364 2.03722,-0.92309 2.4129,-1.02786 3.25312,-0.90728 1.21748,0.17471 2.56401,1.40938 2.56401,2.35102 0,0.75584 -0.29888,1.04755 -4.04635,3.94922 -2.81216,2.17745 -3.3415,2.43551 -4.09959,1.9986 z m 11.07727,-1.61629 c -0.18104,-0.20283 -0.74374,-1.50673 -1.25045,-2.89756 l -0.92127,-2.52878 -0.007,-4.60008 c -0.007,-4.31472 0.0185,-4.61867 0.40629,-4.89951 0.52884,-0.38305 1.41218,-0.38338 1.94176,-6.3e-4 0.37975,0.27438 0.42325,0.66458 0.53437,4.79414 l 0.12098,4.49543 0.8054,2.2725 c 0.879,2.48013 0.88122,3.09487 0.0126,3.48649 -0.76475,0.34479 -1.25866,0.30813 -1.64252,-0.12192 z m 3.76065,-17.64099 c -1.16526,-0.69121 -1.66893,-1.7982 -1.5366,-3.37715 0.10475,-1.24979 0.51292,-1.97848 1.52859,-2.72882 0.45818,-0.33851 0.90588,-0.43448 2.02659,-0.43448 1.2235,0 1.5474,0.0824 2.16728,0.55109 0.84949,0.64234 1.68715,2.08531 1.68715,2.9063 0,0.72931 -0.66621,2.0969 -1.3116,2.69246 -1.14286,1.05461 -3.15197,1.22665 -4.56141,0.3906 z"
           style="fill:#050505" />
        <g
           transform="matrix(0.49916793,0,0,0.49393096,63.86028,-0.0281902)"
           id="g3824"
           style="fill:#ff0000">
          <rect
             style="fill:#800000;fill-opacity:1;stroke:none"
             id="rect3044"
             width="12.525059"
             height="12.591"
             x="519.18866"
             y="375.02625" />
          <rect
             y="328.19742"
             x="531.09979"
             height="12.591"
             width="12.525059"
             id="rect3814"
             style="fill:#800000;fill-opacity:1;stroke:none" />
          <rect
             style="fill:#800000;fill-opacity:1;stroke:none"
             id="rect3816"
             width="12.525059"
             height="12.591"
             x="576.78644"
             y="328.19742" />
          <rect
             y="387.59006"
             x="531.58929"
             height="12.591"
             width="57.722206"
             id="rect3818"
             style="fill:#800000;fill-opacity:1;stroke:none" />
          <rect
             style="fill:#800000;fill-opacity:1;stroke:none"
             id="rect3820"
             width="12.525059"
             height="12.591"
             x="589.57874"
             y="374.79779" />
          <rect
             y="361.4834"
             x="546.89435"
             height="12.591"
             width="12.525059"
             id="rect3822"
             style="fill:#008000;fill-opacity:1;stroke:none" />
        </g>
      </g>
    </g>
  </g>
</svg>
