<?xml version="1.0" encoding="UTF-8" standalone="no"?>
<!-- Created with Inkscape (http://www.inkscape.org/) -->

<svg
   xmlns:dc="http://purl.org/dc/elements/1.1/"
   xmlns:cc="http://creativecommons.org/ns#"
   xmlns:rdf="http://www.w3.org/1999/02/22-rdf-syntax-ns#"
   xmlns:svg="http://www.w3.org/2000/svg"
   xmlns="http://www.w3.org/2000/svg"
   xmlns:sodipodi="http://sodipodi.sourceforge.net/DTD/sodipodi-0.dtd"
   xmlns:inkscape="http://www.inkscape.org/namespaces/inkscape"
   width="69.277"
   height="69.723999"
   id="svg2"
   version="1.1"
   inkscape:version="0.48.4 r9939"
   sodipodi:docname="calcNoise.svg">
  <defs
     id="defs4">
    <inkscape:perspective
       id="perspective2391"
       inkscape:persp3d-origin="800 : 400 : 1"
       inkscape:vp_z="1600 : 600 : 1"
       inkscape:vp_y="0 : 1000 : 0"
       inkscape:vp_x="0 : 600 : 1"
       sodipodi:type="inkscape:persp3d" />
  </defs>
  <sodipodi:namedview
     id="base"
     pagecolor="#ffffff"
     bordercolor="#666666"
     borderopacity="1.0"
     inkscape:pageopacity="0.0"
     inkscape:pageshadow="2"
     inkscape:zoom="3.959798"
     inkscape:cx="4.9410186"
     inkscape:cy="55.39038"
     inkscape:document-units="px"
     inkscape:current-layer="layer1"
     showgrid="false"
     fit-margin-top="0"
     fit-margin-left="0"
     fit-margin-right="0"
     fit-margin-bottom="0"
     inkscape:window-width="1280"
     inkscape:window-height="962"
     inkscape:window-x="-8"
     inkscape:window-y="-8"
     inkscape:window-maximized="1" />
  <metadata
     id="metadata7">
    <rdf:RDF>
      <cc:Work
         rdf:about="">
        <dc:format>image/svg+xml</dc:format>
        <dc:type
           rdf:resource="http://purl.org/dc/dcmitype/StillImage" />
        <dc:title></dc:title>
      </cc:Work>
    </rdf:RDF>
  </metadata>
  <g
     inkscape:label="Layer 1"
     inkscape:groupmode="layer"
     id="layer1"
     transform="translate(-295.3615,-151.7859)">
    <rect
       style="fill:#000000;fill-opacity:1;stroke:none"
       id="rect3948"
       width="13.213668"
       height="14.101591"
       x="399.62411"
       y="208.23676"
       transform="matrix(1,0,-0.34923849,0.93703387,0,0)" />
    <rect
       y="222.33832"
       x="412.83325"
       height="14.101591"
       width="13.213668"
       id="rect3950"
       style="fill:#000000;fill-opacity:1;stroke:none"
       transform="matrix(1,0,-0.34923849,0.93703387,0,0)" />
    <rect
       y="180.03038"
       x="399.62411"
       height="14.101591"
       width="13.213668"
       id="rect3952"
       style="fill:#000000;fill-opacity:1;stroke:none"
       transform="matrix(1,0,-0.34923849,0.93703387,0,0)" />
    <rect
       style="fill:#000000;fill-opacity:1;stroke:none"
       id="rect3954"
       width="13.213668"
       height="14.101591"
       x="412.83325"
       y="194.13191"
       transform="matrix(1,0,-0.34923849,0.93703387,0,0)" />
    <rect
       y="208.23676"
       x="373.20126"
       height="14.101591"
       width="13.213668"
       id="rect3956"
       style="fill:#000000;fill-opacity:1;stroke:none"
       transform="matrix(1,0,-0.34923849,0.93703387,0,0)" />
    <rect
       style="fill:#000000;fill-opacity:1;stroke:none"
       id="rect3958"
       width="13.213668"
       height="14.101591"
       x="386.4104"
       y="222.33832"
       transform="matrix(1,0,-0.34923849,0.93703387,0,0)" />
    <rect
       style="fill:#000000;fill-opacity:1;stroke:none"
       id="rect3960"
       width="13.213668"
       height="14.101591"
       x="373.20126"
       y="180.03038"
       transform="matrix(1,0,-0.34923849,0.93703387,0,0)" />
    <rect
       y="194.13191"
       x="386.4104"
       height="14.101591"
       width="13.213668"
       id="rect3962"
       style="fill:#000000;fill-opacity:1;stroke:none"
       transform="matrix(1,0,-0.34923849,0.93703387,0,0)" />
    <path
       sodipodi:type="star"
       style="fill:#808080;fill-opacity:1;stroke:none"
       id="path3980"
       sodipodi:sides="8"
       sodipodi:cx="-83.571426"
       sodipodi:cy="-92.418861"
       sodipodi:r1="61.652416"
       sodipodi:r2="30.291527"
       sodipodi:arg1="0.81817331"
       sodipodi:arg2="1.2108724"
       inkscape:flatsided="false"
       inkscape:rounded="0"
       inkscape:randomized="0"
       d="m -41.428569,-47.418861 -31.47409,-16.649445 -12.689073,33.26875 -10.482606,-34.028477 -32.497092,14.552029 16.64945,-31.47409 -33.26875,-12.689073 34.02848,-10.482603 -14.55203,-32.49709 31.474086,16.64944 12.689073,-33.26875 10.482607,34.02848 32.497088,-14.55203 -16.649445,31.47409 33.26875,12.689074 -34.028477,10.482607 z"
       transform="matrix(0.33634794,0,0,0.33634794,371.56406,203.70101)"
       inkscape:transform-center-x="3.0102681"
       inkscape:transform-center-y="-2.3538944" />
  </g>
</svg>
