<?xml version="1.0" encoding="UTF-8" standalone="no"?>
<!-- Created with Inkscape (http://www.inkscape.org/) -->

<svg
   xmlns:dc="http://purl.org/dc/elements/1.1/"
   xmlns:cc="http://creativecommons.org/ns#"
   xmlns:rdf="http://www.w3.org/1999/02/22-rdf-syntax-ns#"
   xmlns:svg="http://www.w3.org/2000/svg"
   xmlns="http://www.w3.org/2000/svg"
   xmlns:sodipodi="http://sodipodi.sourceforge.net/DTD/sodipodi-0.dtd"
   xmlns:inkscape="http://www.inkscape.org/namespaces/inkscape"
   width="69.277"
   height="69.723999"
   id="svg2"
   version="1.1"
   inkscape:version="0.91 r13725"
   sodipodi:docname="correctCamera.svg">
  <defs
     id="defs4" />
  <sodipodi:namedview
     id="base"
     pagecolor="#ffffff"
     bordercolor="#666666"
     borderopacity="1.0"
     inkscape:pageopacity="0.0"
     inkscape:pageshadow="2"
     inkscape:zoom="5.6"
     inkscape:cx="36.14681"
     inkscape:cy="15.74064"
     inkscape:document-units="px"
     inkscape:current-layer="g4152"
     showgrid="false"
     fit-margin-top="0"
     fit-margin-left="0"
     fit-margin-right="0"
     fit-margin-bottom="0"
     inkscape:window-width="1280"
     inkscape:window-height="1002"
     inkscape:window-x="1272"
     inkscape:window-y="-8"
     inkscape:window-maximized="1" />
  <metadata
     id="metadata7">
    <rdf:RDF>
      <cc:Work
         rdf:about="">
        <dc:format>image/svg+xml</dc:format>
        <dc:type
           rdf:resource="http://purl.org/dc/dcmitype/StillImage" />
        <dc:title></dc:title>
      </cc:Work>
    </rdf:RDF>
  </metadata>
  <g
     inkscape:label="Layer 1"
     inkscape:groupmode="layer"
     id="layer1"
     transform="translate(-295.3615,-151.7859)">
    <g
       id="g5572"
       transform="translate(0.04922171,-0.23700219)">
      <path
         id="path4143"
         d="m 329.07775,177.18318 c 0,4.76173 -3.8633,8.62503 -8.62503,8.62503 -4.76317,0 -8.62503,-3.8633 -8.62503,-8.62503 0,-4.76173 3.86186,-8.62503 8.62503,-8.62503 4.76173,0 8.62503,3.8633 8.62503,8.62503 z m 14.37505,-11.50004 0,23.00008 c 0,3.17545 -2.57457,5.75002 -5.75002,5.75002 l -34.50012,0 c -3.17545,0 -5.75002,-2.57457 -5.75002,-5.75002 l 0,-23.00008 c 0,-3.17545 2.57457,-5.75002 5.75002,-5.75002 l 8.62503,0 0,-2.87501 c 0,-1.58916 1.28729,-2.87501 2.87501,-2.87501 l 11.50004,0 c 1.58915,0 2.87501,1.28593 2.87501,2.87501 l 0,2.87501 8.62503,0 c 3.17545,0 5.75002,2.57457 5.75002,5.75002 z m -11.50004,11.50004 c 0,-6.33966 -5.16046,-11.50004 -11.50004,-11.50004 -6.34102,0 -11.50004,5.16046 -11.50004,11.50004 0,6.33958 5.15902,11.50004 11.50004,11.50004 6.33967,0 11.50004,-5.16037 11.50004,-11.50004 z m 8.62503,-14.37505 -8.62503,0 0,5.75002 8.62503,0 0,-5.75002 z"
         inkscape:connector-curvature="0" />
      <g
         id="g4152"
         transform="matrix(0.61138959,0,0,0.61138959,140.32497,85.75848)">
        <g
           id="g4173"
           transform="matrix(0.6817583,0,0,0.6817583,-371.18078,167.19798)">
          <path
             style="fill:#a1cf77"
             d="m 1030.0954,-19.778067 c -4.3385,0.0211 -8.6957,0.60356 -12.9341,1.7686 -16.3621,4.49752 -29.61583,17.75165023 -34.11333,34.11365 -2.1403,7.78654 -2.3557,16.24651 -0.6113,24.02442 4.0171,17.91096 17.99683,32.29064 35.76093,36.78442 2.5454,0.64389 5.8958,1.22278 8.3743,1.44738 2.0204,0.18309 8.5128,-0.0577 10.8509,-0.40268 15.7572,-2.32445 29.4528,-12.12021 36.6685,-26.22685 2.3977,-4.68748 3.9234,-9.35036 4.8537,-14.83362 0.6271,-3.69637 0.6792,-10.88125 0.1055,-14.56641 -2.2281,-14.3126498 -10.0275,-26.4483698 -22.0534,-34.31436 -7.9026,-5.16896 -17.3571,-7.84085 -26.9017,-7.79455 z m -0.217,6.93269 c 11.5584,-0.12114 22.1578,4.1923102 30.3209,12.38351023 6.188,6.20919997 10.1045,13.64486977 11.7178,22.24791977 0.5632,3.00301 0.7733,9.22241 0.4114,12.17241 -1.2067,9.83801 -5.3149,18.3662 -12.1308,25.18215 -6.731,6.73095 -15.3513,10.92282 -24.8971,12.10716 -1.6739,0.20768 -7.8068,0.26103 -9.2606,0.0806 -8.067,-1.00103 -14.8489,-3.67842 -21.0989,-8.32978 -2.3314,-1.73504 -6.36583,-5.73992 -8.11543,-8.05592 -6.22,-8.23373 -9.166,-18.06168 -8.5297,-28.45755 0.3315,-5.41513 1.6939,-10.55755 4.1186,-15.54505 2.3019,-4.7349098 4.8326,-8.2198098 8.65563,-11.92098977 3.5833,-3.46918003 6.4821,-5.49986003 10.9274,-7.65534003 5.0335,-2.4406902 10.1348,-3.7937602 15.5567,-4.1256202 0.7786,-0.0477 1.5536,-0.0754 2.3241,-0.0835 z m 0.6753,4.1518002 c -5.9161,-0.0319 -11.7744,1.34991 -17.2795,4.10858 -3.8396,1.92405 -6.305,3.73521003 -9.6858,7.11595 -3.3807,3.38074 -5.19233,5.84614 -7.11633,9.6857298 -7.2906,14.54876 -4.7292,31.68702 6.48223,43.37552 8.5937,8.95937 20.9326,13.15183 33.1907,11.2773 17.556,-2.6847 30.8646,-17.1423 32.1227,-34.89614 1.328,-18.73838 -11.2633,-35.6223598 -29.6385,-39.7435798 -2.6852,-0.60225 -5.3863,-0.90885 -8.0755,-0.92336 z m 23.9426,16.33584 c 0.1132,0 0.1589,0.12267 0.1014,0.2726 -0.058,0.14993 -6.5388,9.9397198 -14.4023,21.7550798 -7.8635,11.81536 -14.4279,21.51265 -14.588,21.54938 -0.3442,0.079 -0.1342,0.39299 -11.3575,-16.97828 -4.7998,-7.42898 -8.6466,-13.58717 -8.5488,-13.68503 0.098,-0.0979 4.2338,1.65493 9.1912,3.89499 5.2014,2.35028 9.1949,4.0363 9.4422,3.98682 0.2358,-0.0471 7.0724,-4.74517 15.1923,-10.44037 8.1198,-5.69521 14.8562,-10.3551898 14.9695,-10.3551898 z"
             id="path4177"
             inkscape:connector-curvature="0" />
        </g>
      </g>
    </g>
  </g>
</svg>
