<?xml version="1.0" encoding="UTF-8" standalone="no"?>
<!-- Created with Inkscape (http://www.inkscape.org/) -->

<svg
   xmlns:dc="http://purl.org/dc/elements/1.1/"
   xmlns:cc="http://creativecommons.org/ns#"
   xmlns:rdf="http://www.w3.org/1999/02/22-rdf-syntax-ns#"
   xmlns:svg="http://www.w3.org/2000/svg"
   xmlns="http://www.w3.org/2000/svg"
   xmlns:sodipodi="http://sodipodi.sourceforge.net/DTD/sodipodi-0.dtd"
   xmlns:inkscape="http://www.inkscape.org/namespaces/inkscape"
   width="69.277"
   height="69.723999"
   id="svg2"
   version="1.1"
   inkscape:version="0.48.4 r9939"
   sodipodi:docname="ruler.svg">
  <defs
     id="defs4" />
  <sodipodi:namedview
     id="base"
     pagecolor="#ffffff"
     bordercolor="#666666"
     borderopacity="1.0"
     inkscape:pageopacity="0.0"
     inkscape:pageshadow="2"
     inkscape:zoom="5.6"
     inkscape:cx="58.099368"
     inkscape:cy="17.524253"
     inkscape:document-units="px"
     inkscape:current-layer="layer1"
     showgrid="false"
     fit-margin-top="0"
     fit-margin-left="0"
     fit-margin-right="0"
     fit-margin-bottom="0"
     inkscape:window-width="1280"
     inkscape:window-height="962"
     inkscape:window-x="-8"
     inkscape:window-y="-8"
     inkscape:window-maximized="1" />
  <metadata
     id="metadata7">
    <rdf:RDF>
      <cc:Work
         rdf:about="">
        <dc:format>image/svg+xml</dc:format>
        <dc:type
           rdf:resource="http://purl.org/dc/dcmitype/StillImage" />
        <dc:title></dc:title>
      </cc:Work>
    </rdf:RDF>
  </metadata>
  <g
     inkscape:label="Layer 1"
     inkscape:groupmode="layer"
     id="layer1"
     transform="translate(-295.3615,-151.7859)">
    <path
       style="fill:#000000"
       d="m 328.76981,220.92451 c -0.82106,-0.25293 -1.77726,-1.11624 -2.20526,-1.99104 -0.3293,-0.67306 -0.34849,-0.83303 -0.37796,-3.14947 -0.0171,-1.34221 -0.0721,-2.48137 -0.1223,-2.53145 -0.0502,-0.0501 -0.80135,-0.24096 -1.66925,-0.42415 -10.08005,-2.12767 -18.01434,-9.89505 -20.47269,-20.04202 -0.18023,-0.74394 -0.32777,-1.48467 -0.32787,-1.64606 0,-0.62581 -0.22757,-0.68277 -2.78022,-0.697 -2.28179,-0.0127 -2.4219,-0.029 -3.10009,-0.36084 -2.32021,-1.13518 -2.90525,-4.05476 -1.19393,-5.95816 0.98214,-1.09237 1.50307,-1.24578 4.39541,-1.29444 2.55773,-0.043 2.67172,-0.0719 2.6766,-0.67686 0.005,-0.61057 0.8855,-3.77775 1.44547,-5.19885 0.7769,-1.9716 1.36402,-3.14391 2.29358,-4.57959 2.17506,-3.35928 4.65665,-5.88291 7.96766,-8.10261 1.659,-1.11219 2.88537,-1.74365 5.03209,-2.59103 1.49985,-0.59203 4.52861,-1.42881 5.17168,-1.42881 0.60899,0 0.66344,-0.21709 0.68682,-2.73872 0.0262,-2.82263 0.1817,-3.35062 1.27695,-4.33534 1.48168,-1.33215 3.57393,-1.33215 5.0556,0 1.09525,0.98472 1.25077,1.51271 1.27695,4.33534 0.0156,1.6866 0.0704,2.4191 0.1897,2.53842 0.0922,0.0922 0.45862,0.20977 0.81419,0.26117 1.02258,0.14783 3.10231,0.70042 4.35054,1.15593 8.36948,3.05431 14.82623,10.28463 16.83555,18.85259 0.23454,1.0001 0.45179,1.94938 0.48277,2.10951 0.073,0.37723 0.49637,0.43749 3.03836,0.43249 2.3816,-0.005 2.99652,0.19118 3.95819,1.2608 1.33216,1.48168 1.33216,3.57393 0,5.05561 -0.99036,1.10154 -1.52224,1.25724 -4.28578,1.25464 -1.27427,-0.001 -2.39724,0.0477 -2.49549,0.10873 -0.0983,0.061 -0.32371,0.79582 -0.50101,1.63294 -2.19909,10.38337 -10.28072,18.46781 -20.65852,20.66573 -0.8321,0.17623 -1.55374,0.36119 -1.60369,0.41103 -0.0499,0.0499 -0.10466,1.17762 -0.12163,2.50617 -0.0366,2.87026 -0.1874,3.38456 -1.28013,4.36701 -1.04526,0.9398 -2.3748,1.22266 -3.75229,0.79833 z m -2.68789,-15.80762 c 0.0768,-0.14352 0.12936,-1.02532 0.11861,-1.99032 -0.028,-2.51547 0.41798,-3.59269 1.83012,-4.42026 1.70709,-1.00041 3.91303,-0.55307 5.05646,1.0254 0.58789,0.81155 0.71609,1.44207 0.69733,3.42978 -0.0221,2.33985 -0.0332,2.32564 1.47529,1.8885 6.24706,-1.81032 11.32225,-6.86591 13.11308,-13.06241 0.26212,-0.90699 0.30912,-1.24163 0.19387,-1.3805 -0.11574,-0.13946 -0.59278,-0.18033 -1.99408,-0.17086 -1.01308,0.007 -2.08737,-0.0537 -2.38733,-0.1344 -1.222,-0.32905 -2.31191,-1.53633 -2.61675,-2.89854 -0.2918,-1.30389 0.31168,-2.94269 1.38515,-3.76146 0.83151,-0.63423 1.49013,-0.78316 3.56764,-0.80675 1.14935,-0.0131 1.97019,-0.0792 2.05674,-0.16581 0.10225,-0.1023 0.043,-0.49302 -0.20436,-1.34694 -1.81783,-6.2763 -6.82116,-11.26173 -13.11361,-13.0667 -1.01543,-0.29127 -1.27648,-0.32583 -1.36608,-0.18085 -0.0609,0.0986 -0.10886,1.01249 -0.10652,2.03092 0.003,1.37017 -0.0535,2.02574 -0.21805,2.52101 -0.94414,2.84252 -4.89905,3.38774 -6.68547,0.92166 -0.56439,-0.77913 -0.68753,-1.40397 -0.68279,-3.46493 0.002,-1.00619 -0.0445,-1.90826 -0.10406,-2.00461 -0.0869,-0.14057 -0.3177,-0.11772 -1.16856,0.11571 -6.4596,1.77217 -11.61968,6.93225 -13.39185,13.39184 -0.22466,0.81894 -0.25304,1.08368 -0.12467,1.16303 0.0914,0.0565 1.05896,0.10273 2.15008,0.10273 1.67815,0 2.0759,0.0407 2.58119,0.26423 2.73499,1.20981 3.15046,4.90521 0.74724,6.6461 -0.7762,0.56228 -1.36174,0.67703 -3.44015,0.67415 -1.0136,-0.001 -1.9261,0.0489 -2.0278,0.11172 -0.15266,0.0943 -0.1224,0.33212 0.17374,1.3645 0.94099,3.28042 2.60187,6.01638 5.15013,8.48379 2.21732,2.14695 4.99701,3.7783 7.90162,4.63731 1.35138,0.39965 1.26697,0.39477 1.43384,0.083 z"
       id="path3078"
       inkscape:connector-curvature="0" />
  </g>
</svg>
