<?xml version="1.0" encoding="UTF-8" standalone="no"?>
<!-- Created with Inkscape (http://www.inkscape.org/) -->

<svg
   xmlns:dc="http://purl.org/dc/elements/1.1/"
   xmlns:cc="http://creativecommons.org/ns#"
   xmlns:rdf="http://www.w3.org/1999/02/22-rdf-syntax-ns#"
   xmlns:svg="http://www.w3.org/2000/svg"
   xmlns="http://www.w3.org/2000/svg"
   xmlns:sodipodi="http://sodipodi.sourceforge.net/DTD/sodipodi-0.dtd"
   xmlns:inkscape="http://www.inkscape.org/namespaces/inkscape"
   width="69.277"
   height="69.723999"
   id="svg2"
   version="1.1"
   inkscape:version="0.48.4 r9939"
   sodipodi:docname="sliceZ.svg">
  <defs
     id="defs4" />
  <sodipodi:namedview
     id="base"
     pagecolor="#ffffff"
     bordercolor="#666666"
     borderopacity="1.0"
     inkscape:pageopacity="0.0"
     inkscape:pageshadow="2"
     inkscape:zoom="3.959798"
     inkscape:cx="24.427403"
     inkscape:cy="23.060163"
     inkscape:document-units="px"
     inkscape:current-layer="layer1"
     showgrid="false"
     fit-margin-top="0"
     fit-margin-left="0"
     fit-margin-right="0"
     fit-margin-bottom="0"
     inkscape:window-width="1280"
     inkscape:window-height="962"
     inkscape:window-x="-8"
     inkscape:window-y="-8"
     inkscape:window-maximized="1" />
  <metadata
     id="metadata7">
    <rdf:RDF>
      <cc:Work
         rdf:about="">
        <dc:format>image/svg+xml</dc:format>
        <dc:type
           rdf:resource="http://purl.org/dc/dcmitype/StillImage" />
        <dc:title></dc:title>
      </cc:Work>
    </rdf:RDF>
  </metadata>
  <g
     inkscape:label="Layer 1"
     inkscape:groupmode="layer"
     id="layer1"
     transform="translate(-295.3615,-151.7859)">
    <g
       id="g3805"
       transform="matrix(1.2791365,0,0,1.2791365,-206.41525,-106.74197)">
      <path
         sodipodi:nodetypes="ccccsssssccccssscscscccccscscsccssscccssc"
         style="fill:#000000"
         d="m 397.71318,256.21439 c -0.29923,-0.1609 -0.59085,-0.39885 -0.64804,-0.52877 -0.0572,-0.12991 -0.0785,-0.74544 -0.0475,-1.36782 0.0633,-1.26631 0.21154,-1.4944 1.1335,-1.74385 0.46597,-0.12606 2.64624,-0.14045 21.27702,-0.14045 22.64293,0 21.2415,-0.0317 21.97124,0.49721 0.29496,0.21379 0.32435,0.35113 0.32435,1.51565 0,1.40425 -0.11466,1.63842 -0.93809,1.91574 -0.39239,0.13215 -2.27238,0.14483 -21.47926,0.14483 l -21.04922,0 -0.54405,-0.29254 z m 0.27653,-8.28697 c -0.80088,-0.27845 -0.99713,-0.64527 -0.99713,-1.86383 0,-1.23842 0.18274,-1.59259 0.96139,-1.86326 0.50891,-0.1769 0.72543,-0.17871 21.38075,-0.17904 18.99206,-2.7e-4 20.9147,0.0127 21.40172,0.14444 0.86383,0.23371 0.98736,0.47391 0.98736,1.91988 0,1.16039 -0.0295,1.29786 -0.32435,1.51158 -0.72985,0.52901 0.68142,0.49724 -22.07237,0.49688 -20.1342,-2.7e-4 -20.87561,-0.006 -21.33737,-0.16665 z m 0.14791,-8.41543 c -0.97428,-0.25224 -1.18429,-0.64908 -1.11898,-2.11452 0.051,-1.14478 0.0569,-1.16121 0.51015,-1.4307 0.25221,-0.14994 0.71863,-0.31254 1.03651,-0.36135 0.37609,-0.0577 7.75643,-0.0804 21.13047,-0.065 19.31014,0.0223 20.58288,0.0332 21.05467,0.18018 0.84589,0.26358 0.97336,0.51927 0.97336,1.95247 0,1.17534 -0.0267,1.29581 -0.33671,1.52053 -0.70817,0.5133 0.41641,0.48843 -21.98508,0.48631 -19.82705,-0.002 -20.64804,-0.008 -21.26439,-0.16792 z m 0.50493,-8.33972 c -0.71047,-0.0659 -1.2931,-0.36999 -1.51396,-0.79029 -0.26446,-0.50328 -0.12079,-2.47167 0.19922,-2.7293 0.66998,-0.53939 -1.01264,-0.49853 21.71975,-0.5274 13.90783,-0.0177 20.91683,0.004 21.28769,0.0649 0.3041,0.0502 0.72346,0.19464 0.9319,0.32099 0.36108,0.21889 0.38134,0.29182 0.4288,1.54346 0.0562,1.48095 -0.0683,1.74688 -0.93757,2.00317 -0.45084,0.13292 -2.29532,0.14665 -21.02027,0.15646 -11.28933,0.006 -20.78234,-0.013 -21.09556,-0.042 z"
         id="path3789"
         inkscape:connector-curvature="0" />
      <path
         sodipodi:nodetypes="ccccccc"
         inkscape:connector-curvature="0"
         id="path3795"
         d="m 403.3615,223.65276 2.22208,17.34899 7.54705,8.44451 7.55384,0 9.86693,-7.8497 3.08059,-17.05095 z"
         style="fill:#ffffff;fill-opacity:1;stroke:none" />
      <g
         transform="matrix(0.70155853,0,0,0.70155853,120.10692,109.9623)"
         id="g3797">
        <path
           style="fill:none;stroke:#000000;stroke-width:5;stroke-linecap:butt;stroke-linejoin:miter;stroke-miterlimit:4;stroke-opacity:1;stroke-dasharray:none"
           d="m 424.29007,188.83135 -7.76786,-7.76786 0,-47.05357 16.16072,0 0,46.96429 z"
           id="path2996"
           inkscape:connector-curvature="0" />
        <path
           style="fill:none;stroke:#000000;stroke-width:1px;stroke-linecap:butt;stroke-linejoin:miter;stroke-opacity:1"
           d="m 412.50436,140.36704 22.67857,8.39286"
           id="path2998"
           inkscape:connector-curvature="0" />
        <path
           inkscape:connector-curvature="0"
           id="path3000"
           d="m 411.07579,140.0099 27.32143,9.82143"
           style="fill:#666666;stroke:#000000;stroke-width:5;stroke-linecap:butt;stroke-linejoin:miter;stroke-miterlimit:4;stroke-opacity:1;stroke-dasharray:none"
           sodipodi:nodetypes="cc" />
        <path
           sodipodi:nodetypes="cc"
           style="fill:#666666;stroke:#000000;stroke-width:5;stroke-linecap:butt;stroke-linejoin:miter;stroke-miterlimit:4;stroke-opacity:1;stroke-dasharray:none"
           d="m 411.07579,150.0099 27.32143,9.82143"
           id="path3770"
           inkscape:connector-curvature="0" />
        <path
           inkscape:connector-curvature="0"
           id="path3772"
           d="m 411.07579,160.0099 27.32143,9.82143"
           style="fill:#666666;stroke:#000000;stroke-width:5;stroke-linecap:butt;stroke-linejoin:miter;stroke-miterlimit:4;stroke-opacity:1;stroke-dasharray:none"
           sodipodi:nodetypes="cc" />
        <path
           sodipodi:nodetypes="cc"
           style="fill:#666666;stroke:#000000;stroke-width:5;stroke-linecap:butt;stroke-linejoin:miter;stroke-miterlimit:4;stroke-opacity:1;stroke-dasharray:none"
           d="m 411.07579,170.0099 27.32143,9.82143"
           id="path3774"
           inkscape:connector-curvature="0" />
      </g>
    </g>
  </g>
</svg>
