<?xml version="1.0" encoding="UTF-8" standalone="no"?>
<!-- Created with Inkscape (http://www.inkscape.org/) -->

<svg
   xmlns:dc="http://purl.org/dc/elements/1.1/"
   xmlns:cc="http://creativecommons.org/ns#"
   xmlns:rdf="http://www.w3.org/1999/02/22-rdf-syntax-ns#"
   xmlns:svg="http://www.w3.org/2000/svg"
   xmlns="http://www.w3.org/2000/svg"
   xmlns:sodipodi="http://sodipodi.sourceforge.net/DTD/sodipodi-0.dtd"
   xmlns:inkscape="http://www.inkscape.org/namespaces/inkscape"
   width="69.277"
   height="69.723999"
   id="svg2"
   version="1.1"
   inkscape:version="0.91 r13725"
   sodipodi:docname="edgeDetection.svg">
  <defs
     id="defs4" />
  <sodipodi:namedview
     id="base"
     pagecolor="#ffffff"
     bordercolor="#666666"
     borderopacity="1.0"
     inkscape:pageopacity="0.0"
     inkscape:pageshadow="2"
     inkscape:zoom="5.6"
     inkscape:cx="10.116363"
     inkscape:cy="23.686444"
     inkscape:document-units="px"
     inkscape:current-layer="layer1"
     showgrid="false"
     fit-margin-top="0"
     fit-margin-left="0"
     fit-margin-right="0"
     fit-margin-bottom="0"
     inkscape:window-width="1280"
     inkscape:window-height="962"
     inkscape:window-x="-8"
     inkscape:window-y="-8"
     inkscape:window-maximized="1" />
  <metadata
     id="metadata7">
    <rdf:RDF>
      <cc:Work
         rdf:about="">
        <dc:format>image/svg+xml</dc:format>
        <dc:type
           rdf:resource="http://purl.org/dc/dcmitype/StillImage" />
        <dc:title></dc:title>
      </cc:Work>
    </rdf:RDF>
  </metadata>
  <g
     inkscape:label="Layer 1"
     inkscape:groupmode="layer"
     id="layer1"
     transform="translate(-295.3615,-151.7859)">
    <path
       inkscape:connector-curvature="0"
       id="path5707"
       d="m 299.25125,197.16269 c -0.42301,-0.15474 -0.5404,-4.82111 -0.5404,-21.48148 0,-19.04654 0.0719,-21.30882 0.68382,-21.52168 0.37609,-0.13088 6.34441,-0.23788 13.26292,-0.23788 l 12.57909,0 6.08266,5.47526 6.08265,5.47527 0.12223,15.64641 c 0.10882,13.93154 0.0461,15.71529 -0.57124,16.27501 -0.61558,0.55804 -2.74077,0.62515 -18.92737,0.59768 -10.02868,-0.0169 -18.47712,-0.11983 -18.77431,-0.22859 z m 33.07726,-17.08191 0.1141,-12.44274 -4.49232,0 c -3.16924,0 -4.63034,-0.15074 -4.96089,-0.51182 -0.25772,-0.2815 -0.52471,-2.26548 -0.59332,-4.40885 l -0.1248,-3.89701 -9.29451,0 -9.29453,0 -0.11288,16.45955 c -0.0621,9.05277 -0.0187,16.68248 0.0968,16.95493 0.16434,0.38821 3.27444,0.473 14.37891,0.39202 l 14.16922,-0.10334 0.1141,-12.44274 z m -23.24238,5.54755 c 0,-0.66136 5.18402,-7.01716 5.72343,-7.01716 0.26229,0 0.85105,0.30696 1.30837,0.68215 0.91868,0.75366 0.95878,0.72593 3.84771,-2.66164 1.01993,-1.19598 1.22525,-1.28396 1.78288,-0.7638 1.13609,1.05973 6.36803,9.46706 6.11888,9.83254 -0.36396,0.53385 -18.78127,0.46315 -18.78127,-0.0721 z m 0.54039,-9.18319 c -1.83031,-1.16986 -0.79637,-4.11447 1.43903,-4.09832 1.09184,0.008 1.66525,0.38124 2.323,1.51255 0.46193,0.79448 0.41758,1.08128 -0.30288,1.95948 -1.02489,1.24926 -2.16229,1.4552 -3.45915,0.62629 z"
       style="fill:#191919" />
    <path
       style="fill:none;stroke:#000000;stroke-width:1.35838437;stroke-opacity:1"
       d="m 324.81645,218.88055 c -0.42301,-0.15473 -0.5404,-4.82111 -0.5404,-21.48148 0,-19.04654 0.0719,-21.30882 0.68382,-21.52168 0.37609,-0.13087 6.34441,-0.23788 13.26292,-0.23788 l 12.57909,0 6.08266,5.47526 6.08265,5.47527 0.12223,15.64641 c 0.10882,13.93154 0.0462,15.71529 -0.57124,16.27502 -0.61558,0.55803 -2.74077,0.62515 -18.92737,0.59768 -10.02868,-0.0169 -18.47712,-0.11984 -18.77431,-0.2286 z m 33.07726,-17.08191 0.1141,-12.44274 -4.49232,0 c -3.16924,0 -4.63034,-0.15074 -4.96089,-0.51182 -0.25772,-0.2815 -0.52472,-2.26548 -0.59332,-4.40885 l -0.1248,-3.89701 -9.29451,0 -9.29453,0 -0.11288,16.45956 c -0.0621,9.05276 -0.0187,16.68247 0.0968,16.95493 0.16434,0.38821 3.27444,0.47299 14.37891,0.39201 l 14.16922,-0.10334 0.1141,-12.44274 z m -23.24238,5.54755 c 0,-0.66135 5.18402,-7.01716 5.72343,-7.01716 0.26229,0 0.85105,0.30696 1.30837,0.68215 0.91868,0.75367 0.95878,0.72594 3.84771,-2.66164 1.01993,-1.19598 1.22525,-1.28395 1.78288,-0.76379 1.13609,1.05972 6.36803,9.46705 6.11888,9.83253 -0.36396,0.53385 -18.78127,0.46315 -18.78127,-0.0721 z m 0.54039,-9.18319 c -1.83031,-1.16986 -0.79637,-4.11446 1.43903,-4.09832 1.09184,0.008 1.66525,0.38124 2.323,1.51255 0.46193,0.79448 0.41758,1.08128 -0.30288,1.95948 -1.02489,1.24926 -2.16229,1.4552 -3.45915,0.62629 z"
       id="path4711"
       inkscape:connector-curvature="0" />
  </g>
</svg>
