<?xml version="1.0" encoding="UTF-8" standalone="no"?>
<!-- Created with Inkscape (http://www.inkscape.org/) -->

<svg
   xmlns:dc="http://purl.org/dc/elements/1.1/"
   xmlns:cc="http://creativecommons.org/ns#"
   xmlns:rdf="http://www.w3.org/1999/02/22-rdf-syntax-ns#"
   xmlns:svg="http://www.w3.org/2000/svg"
   xmlns="http://www.w3.org/2000/svg"
   xmlns:sodipodi="http://sodipodi.sourceforge.net/DTD/sodipodi-0.dtd"
   xmlns:inkscape="http://www.inkscape.org/namespaces/inkscape"
   width="69.277"
   height="69.723999"
   id="svg2"
   version="1.1"
   inkscape:version="0.48.4 r9939"
   sodipodi:docname="filter.svg">
  <defs
     id="defs4" />
  <sodipodi:namedview
     id="base"
     pagecolor="#ffffff"
     bordercolor="#666666"
     borderopacity="1.0"
     inkscape:pageopacity="0.0"
     inkscape:pageshadow="2"
     inkscape:zoom="5.6"
     inkscape:cx="58.099368"
     inkscape:cy="17.524253"
     inkscape:document-units="px"
     inkscape:current-layer="layer1"
     showgrid="false"
     fit-margin-top="0"
     fit-margin-left="0"
     fit-margin-right="0"
     fit-margin-bottom="0"
     inkscape:window-width="1280"
     inkscape:window-height="962"
     inkscape:window-x="-8"
     inkscape:window-y="-8"
     inkscape:window-maximized="1" />
  <metadata
     id="metadata7">
    <rdf:RDF>
      <cc:Work
         rdf:about="">
        <dc:format>image/svg+xml</dc:format>
        <dc:type
           rdf:resource="http://purl.org/dc/dcmitype/StillImage" />
        <dc:title />
      </cc:Work>
    </rdf:RDF>
  </metadata>
  <g
     inkscape:label="Layer 1"
     inkscape:groupmode="layer"
     id="layer1"
     transform="translate(-295.3615,-151.7859)">
    <path
       style="fill:#808080;fill-opacity:1"
       d="m 325.53033,220.21863 c -4.2413,-1.51264 -4.13453,-1.12917 -4.13453,-14.84762 l 0,-12.23192 -3.63206,-2.93731 c -3.80741,-3.07914 -17.34326,-15.81435 -19.29529,-18.154 -6.84446,-8.20356 -1.34358,-14.77057 15.39418,-18.37775 8.19884,-1.76694 24.08618,-1.76694 32.285,0 14.76713,3.18248 20.80925,8.63407 17.26633,15.57876 -1.34393,2.63434 -14.94888,15.99775 -22.24359,21.84869 l -2.5559,2.05003 0,12.22771 c 0,11.40481 -0.07,12.29107 -1.04055,13.16937 -1.50825,1.36495 -4.78387,2.40638 -7.56878,2.40638 -1.33177,0 -3.34542,-0.32955 -4.47481,-0.73234 z m 17.77034,-45.83874 c 7.3482,-1.5189 12.53247,-4.51241 12.53247,-7.23654 0,-2.06928 -3.41305,-4.63772 -8.15219,-6.13481 -14.8957,-4.70555 -41.09791,-1.62748 -43.22612,5.07792 -1.23893,3.9035 6.05144,7.71205 17.50814,9.14639 5.28863,0.66213 16.0985,0.23 21.3377,-0.85296 z"
       id="path3092"
       inkscape:connector-curvature="0" />
  </g>
</svg>
