<?xml version="1.0" encoding="UTF-8" standalone="no"?>
<!-- Created with Inkscape (http://www.inkscape.org/) -->

<svg
   xmlns:dc="http://purl.org/dc/elements/1.1/"
   xmlns:cc="http://creativecommons.org/ns#"
   xmlns:rdf="http://www.w3.org/1999/02/22-rdf-syntax-ns#"
   xmlns:svg="http://www.w3.org/2000/svg"
   xmlns="http://www.w3.org/2000/svg"
   xmlns:sodipodi="http://sodipodi.sourceforge.net/DTD/sodipodi-0.dtd"
   xmlns:inkscape="http://www.inkscape.org/namespaces/inkscape"
   width="69.277"
   height="69.723999"
   id="svg2"
   version="1.1"
   inkscape:version="0.48.4 r9939"
   sodipodi:docname="axes.svg">
  <defs
     id="defs4" />
  <sodipodi:namedview
     id="base"
     pagecolor="#ffffff"
     bordercolor="#666666"
     borderopacity="1.0"
     inkscape:pageopacity="0.0"
     inkscape:pageshadow="2"
     inkscape:zoom="3.959798"
     inkscape:cx="48.240906"
     inkscape:cy="17.870874"
     inkscape:document-units="px"
     inkscape:current-layer="layer1"
     showgrid="false"
     fit-margin-top="0"
     fit-margin-left="0"
     fit-margin-right="0"
     fit-margin-bottom="0"
     inkscape:window-width="1280"
     inkscape:window-height="962"
     inkscape:window-x="-8"
     inkscape:window-y="-8"
     inkscape:window-maximized="1" />
  <metadata
     id="metadata7">
    <rdf:RDF>
      <cc:Work
         rdf:about="">
        <dc:format>image/svg+xml</dc:format>
        <dc:type
           rdf:resource="http://purl.org/dc/dcmitype/StillImage" />
        <dc:title></dc:title>
      </cc:Work>
    </rdf:RDF>
  </metadata>
  <g
     inkscape:label="Layer 1"
     inkscape:groupmode="layer"
     id="layer1"
     transform="translate(-295.3615,-151.7859)">
    <path
       inkscape:connector-curvature="0"
       id="path5707"
       d="m 302.81921,220.78326 c -0.60872,-0.24562 -0.77764,-7.65313 -0.77764,-34.10016 0,-30.23487 0.10344,-33.82608 0.98404,-34.16398 0.54122,-0.20769 9.12992,-0.37762 19.086,-0.37762 l 18.10195,0 8.75325,8.69156 8.75325,8.69156 0.17582,24.83744 c 0.15656,22.11525 0.0664,24.94681 -0.82206,25.83533 -0.88585,0.88584 -3.9441,0.99237 -27.23744,0.94877 -14.43175,-0.027 -26.58948,-0.19031 -27.01717,-0.3629 z m 47.59985,-27.11618 0.16426,-19.75187 -6.46468,0 c -4.56067,0 -6.66327,-0.23929 -7.13897,-0.81247 -0.37086,-0.44687 -0.75508,-3.59628 -0.85381,-6.9987 l -0.17951,-6.18621 -13.37528,0 -13.37528,0 -0.16248,26.12826 c -0.0894,14.37055 -0.0267,26.48212 0.13927,26.91461 0.23649,0.61626 4.71208,0.75086 20.69198,0.6223 l 20.39023,-0.16405 0.16427,-19.75187 z m -33.44694,8.80631 c 0,-1.04985 7.46004,-11.13921 8.23629,-11.13921 0.37746,0 1.22472,0.48729 1.88282,1.08286 1.32201,1.1964 1.37972,1.15237 5.53704,-4.22514 1.46773,-1.89852 1.7632,-2.03816 2.56565,-1.21246 1.63489,1.68223 9.16392,15.02821 8.80537,15.60839 -0.52375,0.84744 -27.02717,0.73522 -27.02717,-0.11444 z m 0.77763,-14.5776 c -2.6339,-1.85706 -1.14603,-6.53141 2.07083,-6.50578 1.57122,0.0125 2.39639,0.6052 3.34292,2.40107 0.66473,1.26117 0.60094,1.71645 -0.43585,3.11052 -1.47487,1.98311 -3.11165,2.31001 -4.9779,0.99419 z"
       style="fill:#191919" />
  </g>
</svg>
