<?xml version="1.0" encoding="UTF-8" standalone="no"?>
<!-- Created with Inkscape (http://www.inkscape.org/) -->

<svg
   xmlns:dc="http://purl.org/dc/elements/1.1/"
   xmlns:cc="http://creativecommons.org/ns#"
   xmlns:rdf="http://www.w3.org/1999/02/22-rdf-syntax-ns#"
   xmlns:svg="http://www.w3.org/2000/svg"
   xmlns="http://www.w3.org/2000/svg"
   xmlns:sodipodi="http://sodipodi.sourceforge.net/DTD/sodipodi-0.dtd"
   xmlns:inkscape="http://www.inkscape.org/namespaces/inkscape"
   width="69.277"
   height="69.723999"
   id="svg2"
   version="1.1"
   inkscape:version="0.48.4 r9939"
   sodipodi:docname="perspective.svg">
  <defs
     id="defs4" />
  <sodipodi:namedview
     id="base"
     pagecolor="#ffffff"
     bordercolor="#666666"
     borderopacity="1.0"
     inkscape:pageopacity="0.0"
     inkscape:pageshadow="2"
     inkscape:zoom="2.8"
     inkscape:cx="37.420889"
     inkscape:cy="62.858906"
     inkscape:document-units="px"
     inkscape:current-layer="layer1"
     showgrid="false"
     fit-margin-top="0"
     fit-margin-left="0"
     fit-margin-right="0"
     fit-margin-bottom="0"
     inkscape:window-width="1280"
     inkscape:window-height="962"
     inkscape:window-x="-8"
     inkscape:window-y="-8"
     inkscape:window-maximized="1" />
  <metadata
     id="metadata7">
    <rdf:RDF>
      <cc:Work
         rdf:about="">
        <dc:format>image/svg+xml</dc:format>
        <dc:type
           rdf:resource="http://purl.org/dc/dcmitype/StillImage" />
        <dc:title></dc:title>
      </cc:Work>
    </rdf:RDF>
  </metadata>
  <g
     inkscape:label="Layer 1"
     inkscape:groupmode="layer"
     id="layer1"
     transform="translate(-295.3615,-151.7859)">
    <g
       id="g3892"
       transform="matrix(0.13468024,0,0,0.13468024,235.10672,159.72814)">
      <path
         inkscape:connector-curvature="0"
         style="fill:#cccccc;fill-opacity:1;stroke:none"
         d="m 721.45713,21.207057 0,365.718753 206.40625,0 0,-365.718753 -206.40625,0 z m 17.21875,104.281253 c 6.8277,0 12.34375,5.44995 12.34375,12.15625 0,6.7063 -5.51605,12.15625 -12.34375,12.15625 -6.8277,0 -12.375,-5.44995 -12.375,-12.15625 0,-6.7063 5.5473,-12.15625 12.375,-12.15625 z m 0,133.3125 c 6.8277,0 12.34375,5.4187 12.34375,12.125 0,6.7064 -5.51605,12.15625 -12.34375,12.15625 -6.8277,0 -12.375,-5.44985 -12.375,-12.15625 0,-6.7063 5.5473,-12.125 12.375,-12.125 z"
         id="path3883" />
      <path
         inkscape:connector-curvature="0"
         style="fill:#cccccc;fill-opacity:1;stroke:none"
         d="m 484.73838,14.800807 0,372.125003 206.40625,0 0,-372.125003 -206.40625,0 z m 178.78125,53.84375 c 6.8277,0 12.375,5.44995 12.375,12.15625 0,6.7064 -5.5473,12.125 -12.375,12.125 -6.8277,0 -12.375,-5.4186 -12.375,-12.125 0,-6.7063 5.5473,-12.15625 12.375,-12.15625 z m 2,118.000003 c 6.8277,0 12.375,5.44995 12.375,12.15625 0,6.7064 -5.5473,12.125 -12.375,12.125 -6.8277,0 -12.375,-5.4186 -12.375,-12.125 0,-6.7063 5.5473,-12.15625 12.375,-12.15625 z m -2.84375,128 c 6.8277,0 12.34375,5.44995 12.34375,12.15625 0,6.7064 -5.51605,12.125 -12.34375,12.125 -6.8277,0 -12.375,-5.4186 -12.375,-12.125 0,-6.7063 5.5473,-12.15625 12.375,-12.15625 z"
         id="path3885" />
      <path
         inkscape:connector-curvature="0"
         style="fill:#000000"
         d="m 472.08208,-22.199193 -5,2.65625 c -6.8916,3.64768 -12.3132,9.18626 -15.4062,15.7812497 l -2.5938,5.5625 0,198.0000033 0,198 2.625,5.59375 c 4.2839,9.1347 12.0673,15.5545 21.5938,17.8125 1.9467,0.4614 84.60421,0.7599 196.90625,0.75 11.99556,-3.0139 20.8125,-13.8583 20.8125,-26.8125 l 0,-21.15625 c -162.77595,0.1757 -169.20561,0.1351 -174.09375,-1.75 -7.03293,-2.7123 -13.65275,-8.83875 -17.03125,-15.71875 l -2.8125,-5.71875 -0.3125,-147.5 c -0.22876,-112.779183 0.009,-148.875903 0.9375,-153.375003 1.45073,-7.02985 5.77773,-13.85293 11.65625,-18.3125 8.63525,-6.5509 -2.00035,-6.32945 181.65625,-6.3125 l 0,-19.1875003 c 0,-15.30024 -12.32476,-27.6249997 -27.625,-27.6249997 l -38.09375,0 0,-0.6875 -153.2188,0 z m 128.50005,79.40625 c -6.21066,0 -12.426,0.79435 -17.0625,2.375 -34.88951,11.89429 -49.54753,52.135223 -30.0625,82.500003 7.29317,11.3654 21.76491,21.59645 34.125,24.09375 3.025,0.6113 6.4,1.29005 7.5,1.53125 3.1588,0.6927 14.4319,-0.4084 21,-2.0625 9.00292,-2.2672 15.18964,-6.03725 23.53125,-14.34375 8.65355,-8.617 12.20926,-14.68204 15,-25.59375 2.347,-9.17666 2.46299,-15.42517 0.46875,-24.90625 -3.99796,-19.007193 -18.21932,-34.667023 -37.4375,-41.218753 -4.6365,-1.58065 -10.85184,-2.375 -17.0625,-2.375 z m 8.15625,160.281253 c -1.79205,0.2925 -6.59332,6.483 -40.1875,51.125 -15.65568,20.8043 -34.20625,45.42735 -41.21875,54.71875 -7.0125,9.2914 -12.75,17.343 -12.75,17.875 0,0.532 1.4625,1.10895 3.25,1.28125 1.31847,0.1272 85.54182,0.17275 173.1875,0.15625 l 0,-53.3125 c -1.5758,3.001 -2.70169,5.1147 -2.8125,5.1875 -1.35213,0.8884 -12.81412,1.0383 -15.03125,0.1875 -1.31946,-0.5063 -24.36058,-28.6568 -55.9375,-68.3125 -3.76862,-4.7328 -7.46681,-8.73775 -8.1875,-8.90625 -0.10029,-0.024 -0.19303,-0.019 -0.3125,0 z m 53.9375,97.15625 c 6.8277,0 12.34375,5.44994 12.34375,12.15625 0,6.70631 -5.51605,12.125 -12.34375,12.125 -6.8277,0 -12.375,-5.41869 -12.375,-12.125 0,-6.70631 5.5473,-12.15625 12.375,-12.15625 z"
         id="path3887" />
      <path
         inkscape:connector-curvature="0"
         style="fill:#000000"
         d="m 787.30088,-22.199193 0,0.6875 -38.09375,0 c -15.30024,0 -27.625,12.3247597 -27.625,27.6249997 l 0,19.1875003 c 159.58288,0.004 165.16447,0.0934 170.34375,2.03125 7.22485,2.70317 13.55779,8.46136 17.1875,15.625 l 2.96875,5.84375 0,151.000003 0,151 -2.4375,4.96875 c -2.95236,5.9997 -9.30897,12.56485 -15.21875,15.71875 l -4.34375,2.3125 -168.5,0.15625 0,21.1875 c 0,12.90954 8.78631,23.72414 20.71875,26.78125 l 0.0312,0 193.75,-0.125 5.59375,-2.625 c 7.101,-3.3301 12.4512,-8.68025 15.78125,-15.78125 l 2.625,-5.59375 0,-198 0,-198.0000033 -2.625,-5.5 c -3.32358,-6.9961997 -8.8788,-12.5514197 -15.875,-15.8749997 l -5.5,-2.625 -148.78125,0 z m -48.625,15.6874997 c 6.8277,0 12.34375,5.44994 12.34375,12.15625 0,6.7063103 -5.51605,12.1562503 -12.34375,12.1562503 -6.8277,0 -12.375,-5.44994 -12.375,-12.1562503 0,-6.70631 5.5473,-12.15625 12.375,-12.15625 z m 62.125,81.9375003 c -0.42649,-0.003 -1.0725,0.3433 -1.625,0.9375 -0.73668,0.79227 -25.74601,50.037503 -55.59375,109.437503 -7.82048,15.56354 -15.20424,30.21472 -22,43.65625 l 0,113.1875 c 84.30158,-0.0306 165.21267,-0.12597 170.3125,-0.25 3.75761,-0.0914 3.83097,-0.14675 3.15625,-3.21875 -0.37819,-1.72189 -3.08459,-9.70939 -6,-17.75 -2.91541,-8.0406 -23.73423,-66.51142 -46.28125,-129.9375 -22.54701,-63.42609 -41.28382,-115.596323 -41.625,-115.937503 -0.0853,-0.0853 -0.20159,-0.124 -0.34375,-0.125 z m -62.125,183.375003 c 6.8277,0 12.34375,5.41869 12.34375,12.125 0,6.70631 -5.51605,12.15625 -12.34375,12.15625 -6.8277,0 -12.375,-5.44994 -12.375,-12.15625 0,-6.70631 5.5473,-12.125 12.375,-12.125 z m 0,128.5625 c 6.8277,0 12.34375,5.41869 12.34375,12.125 0,6.70631 -5.51605,12.15625 -12.34375,12.15625 -6.8277,0 -12.375,-5.44994 -12.375,-12.15625 0,-6.70631 5.5473,-12.125 12.375,-12.125 z"
         id="path3889" />
      <path
         style="fill:none;stroke:#000000;stroke-width:5;stroke-linecap:butt;stroke-linejoin:miter;stroke-miterlimit:4;stroke-opacity:1;stroke-dasharray:none"
         d="m 740.44374,4.0739067 -76.78571,76.7857203 76.07143,56.785713 -72.85715,60.71429 72.85715,72.14285 -75.35715,55.35714 72.14286,72.85715"
         id="path3042"
         inkscape:connector-curvature="0"
         sodipodi:nodetypes="ccccccc" />
    </g>
  </g>
</svg>
