<?xml version="1.0" encoding="UTF-8" standalone="no"?>
<!-- Created with Inkscape (http://www.inkscape.org/) -->

<svg
   xmlns:dc="http://purl.org/dc/elements/1.1/"
   xmlns:cc="http://creativecommons.org/ns#"
   xmlns:rdf="http://www.w3.org/1999/02/22-rdf-syntax-ns#"
   xmlns:svg="http://www.w3.org/2000/svg"
   xmlns="http://www.w3.org/2000/svg"
   xmlns:sodipodi="http://sodipodi.sourceforge.net/DTD/sodipodi-0.dtd"
   xmlns:inkscape="http://www.inkscape.org/namespaces/inkscape"
   width="69.277"
   height="69.723999"
   id="svg2"
   version="1.1"
   inkscape:version="0.48.4 r9939"
   sodipodi:docname="basicOperations.svg">
  <defs
     id="defs4" />
  <sodipodi:namedview
     id="base"
     pagecolor="#ffffff"
     bordercolor="#666666"
     borderopacity="1.0"
     inkscape:pageopacity="0.0"
     inkscape:pageshadow="2"
     inkscape:zoom="3.959798"
     inkscape:cx="82.082295"
     inkscape:cy="47.842491"
     inkscape:document-units="px"
     inkscape:current-layer="g5572"
     showgrid="false"
     fit-margin-top="0"
     fit-margin-left="0"
     fit-margin-right="0"
     fit-margin-bottom="0"
     inkscape:window-width="1280"
     inkscape:window-height="962"
     inkscape:window-x="-8"
     inkscape:window-y="-8"
     inkscape:window-maximized="1" />
  <metadata
     id="metadata7">
    <rdf:RDF>
      <cc:Work
         rdf:about="">
        <dc:format>image/svg+xml</dc:format>
        <dc:type
           rdf:resource="http://purl.org/dc/dcmitype/StillImage" />
        <dc:title></dc:title>
      </cc:Work>
    </rdf:RDF>
  </metadata>
  <g
     inkscape:label="Layer 1"
     inkscape:groupmode="layer"
     id="layer1"
     transform="translate(-295.3615,-151.7859)">
    <g
       id="g5572"
       transform="translate(0.04922171,-0.23700219)">
      <path
         inkscape:connector-curvature="0"
         id="path3082"
         d="m 309.64995,220.62562 c -5.91792,-0.81212 -10.79498,-4.82953 -12.75505,-10.5068 -0.5582,-1.61684 -0.76392,-2.97365 -0.76023,-5.01431 0.006,-3.5494 0.8999,-6.43499 2.96146,-9.56428 0.78393,-1.18994 1.7726,-2.23608 8.46533,-8.95738 4.16777,-4.18555 8.05973,-7.98755 8.64882,-8.44889 4.02211,-3.14984 9.06058,-4.41203 13.85703,-3.4713 2.90063,0.56889 5.64453,1.978 7.62471,3.91561 0.89914,0.87981 1.29523,1.58648 1.44687,2.58146 0.28936,1.89861 -0.58031,3.59628 -2.31042,4.51019 -0.57996,0.30635 -0.83044,0.35365 -1.87438,0.35388 -1.40916,2.7e-4 -1.8374,-0.17738 -3.26468,-1.35465 -1.05579,-0.87087 -1.99725,-1.33934 -3.20687,-1.59571 -1.1583,-0.2455 -1.9396,-0.24161 -3.20725,0.016 -1.43467,0.2915 -2.9765,1.06874 -4.17823,2.10625 -1.57157,1.35682 -14.36769,14.27704 -14.85292,14.99699 -0.98328,1.45886 -1.60769,3.36556 -1.61252,4.92393 -0.003,0.94752 0.42266,2.62711 0.87744,3.46269 0.44697,0.82122 1.44125,1.86402 2.35517,2.47008 2.45167,1.62582 5.77491,1.46886 8.64634,-0.40837 0.42393,-0.27715 2.6121,-2.32908 4.86259,-4.55985 2.25048,-2.23077 4.18993,-4.05595 4.30987,-4.05595 0.11993,0 0.2506,0.0527 0.29038,0.11702 0.1159,0.18754 1.42745,0.77153 2.42396,1.07932 2.09303,0.64647 4.96589,0.85909 6.55562,0.48518 0.4412,-0.10377 0.83019,-0.1607 0.8644,-0.12649 0.10408,0.10409 -12.17046,12.3296 -13.26849,13.2155 -3.01819,2.43509 -6.54323,3.77162 -10.2882,3.90081 -0.92046,0.0317 -2.09529,-1.4e-4 -2.61075,-0.0709 z m 21.43895,-21.2774 c -3.29214,-0.41376 -6.05801,-1.63588 -8.54357,-3.77501 -1.33726,-1.15088 -1.87491,-2.22171 -1.86774,-3.71993 0.007,-1.56302 0.88089,-2.95505 2.33278,-3.71789 0.60987,-0.32042 0.84872,-0.36647 1.90239,-0.36671 1.41074,-2.6e-4 1.87104,0.19061 3.28017,1.3606 1.38659,1.15125 3.04144,1.77507 4.72507,1.78117 1.91882,0.007 4.21585,-0.90122 5.85179,-2.31361 1.57158,-1.35682 14.3677,-14.27704 14.85292,-14.99699 0.98326,-1.45886 1.60769,-3.36556 1.61252,-4.92392 0.003,-0.96289 -0.42464,-2.63024 -0.89846,-3.50316 -1.12457,-2.07175 -3.71972,-3.58066 -6.15837,-3.58066 -0.94052,0 -2.57502,0.39192 -3.58464,0.85953 -1.35455,0.62735 -2.50366,1.62444 -6.55939,5.69158 -1.98768,1.99326 -3.6766,3.6241 -3.75315,3.6241 -0.0766,0 -0.52884,-0.20683 -1.00506,-0.45961 -1.07584,-0.57108 -2.75846,-1.0645 -4.38147,-1.28484 -1.36091,-0.18474 -3.74426,-0.1146 -4.36868,0.12858 -0.21272,0.0829 -0.42094,0.11643 -0.46274,0.0746 -0.11872,-0.11871 12.38326,-12.57572 13.43462,-13.3863 6.51271,-5.02117 14.94229,-5.03997 20.80626,-0.0464 5.14266,4.37935 6.83263,11.42418 4.30559,17.94834 -0.54589,1.40934 -0.83719,1.9609 -1.85849,3.51897 -0.7768,1.18506 -1.74742,2.21243 -8.4506,8.94465 -4.16515,4.1832 -8.04516,7.97882 -8.62223,8.43471 -2.1327,1.68485 -4.75044,2.91782 -7.28465,3.43112 -1.53617,0.31115 -4.00679,0.44017 -5.30487,0.27703 z"
         style="fill:#000000" />
    </g>
  </g>
</svg>
