<?xml version="1.0" encoding="UTF-8" standalone="no"?>
<!-- Created with Inkscape (http://www.inkscape.org/) -->

<svg
   xmlns:dc="http://purl.org/dc/elements/1.1/"
   xmlns:cc="http://creativecommons.org/ns#"
   xmlns:rdf="http://www.w3.org/1999/02/22-rdf-syntax-ns#"
   xmlns:svg="http://www.w3.org/2000/svg"
   xmlns="http://www.w3.org/2000/svg"
   xmlns:sodipodi="http://sodipodi.sourceforge.net/DTD/sodipodi-0.dtd"
   xmlns:inkscape="http://www.inkscape.org/namespaces/inkscape"
   width="69.277"
   height="69.723999"
   id="svg2"
   version="1.1"
   inkscape:version="0.48.4 r9939"
   sodipodi:docname="media.svg">
  <defs
     id="defs4" />
  <sodipodi:namedview
     id="base"
     pagecolor="#ffffff"
     bordercolor="#666666"
     borderopacity="1.0"
     inkscape:pageopacity="0.0"
     inkscape:pageshadow="2"
     inkscape:zoom="5.6"
     inkscape:cx="39.463728"
     inkscape:cy="30.345507"
     inkscape:document-units="px"
     inkscape:current-layer="g5572"
     showgrid="false"
     fit-margin-top="0"
     fit-margin-left="0"
     fit-margin-right="0"
     fit-margin-bottom="0"
     inkscape:window-width="1280"
     inkscape:window-height="962"
     inkscape:window-x="-8"
     inkscape:window-y="-8"
     inkscape:window-maximized="1" />
  <metadata
     id="metadata7">
    <rdf:RDF>
      <cc:Work
         rdf:about="">
        <dc:format>image/svg+xml</dc:format>
        <dc:type
           rdf:resource="http://purl.org/dc/dcmitype/StillImage" />
        <dc:title></dc:title>
      </cc:Work>
    </rdf:RDF>
  </metadata>
  <g
     inkscape:label="Layer 1"
     inkscape:groupmode="layer"
     id="layer1"
     transform="translate(-295.3615,-151.7859)">
    <g
       id="g5572"
       transform="translate(0.04922171,-0.23700219)">
      <path
         style="fill:none;stroke:#000000;stroke-width:1px;stroke-linecap:butt;stroke-linejoin:miter;stroke-opacity:1"
         d="M 69.28125 0.4375 L 44.78125 24.9375 C 44.699114 25.079157 44.59511 25.228378 44.46875 25.34375 C 44.378483 25.426168 44.270388 25.500688 44.15625 25.5625 L 38.25 31.46875 L 41.96875 31.46875 C 42.680365 31.468764 43.211898 31.649576 43.5625 31.96875 C 43.913065 32.287951 44.093731 32.695504 44.09375 33.21875 C 44.093731 33.74202 43.939082 34.170358 43.59375 34.5 C 43.248381 34.829664 42.69083 35.00001 41.96875 35 L 34.71875 35 L 32.3125 37.40625 L 32.3125 41.53125 L 43.1875 41.53125 C 43.920044 41.531254 44.472217 41.722385 44.84375 42.0625 C 45.215244 42.402621 45.37498 42.841133 45.375 43.40625 C 45.37498 43.950441 45.215244 44.409883 44.84375 44.75 C 44.472217 45.090119 43.920044 45.25 43.1875 45.25 L 30.5 45.25 C 29.484873 45.25 28.757267 45.012503 28.3125 44.5625 C 27.867727 44.112498 27.656247 43.410909 27.65625 42.40625 L 27.65625 42.0625 L 0.1875 69.53125 L 69.28125 69.53125 L 69.28125 0.4375 z M 52 22.25 L 58.09375 22.25 C 59.673979 22.250023 61.025996 22.394498 62.15625 22.6875 C 63.286473 22.980547 64.297796 23.506703 65.21875 24.3125 C 67.615255 26.363694 68.812478 29.501444 68.8125 33.6875 C 68.812478 35.068914 68.709427 36.328054 68.46875 37.46875 C 68.228029 38.609461 67.846057 39.646802 67.34375 40.5625 C 66.841401 41.478207 66.191119 42.277906 65.40625 43 C 64.788786 43.554656 64.138795 44.008865 63.40625 44.34375 C 62.673671 44.678636 61.873682 44.895203 61.03125 45.03125 C 60.188789 45.167297 59.244471 45.25 58.1875 45.25 L 52.09375 45.25 C 51.246066 45.25 50.616568 45.131397 50.1875 44.875 C 49.758424 44.618604 49.474562 44.246952 49.34375 43.78125 C 49.212933 43.315551 49.156247 42.71178 49.15625 41.96875 L 49.15625 25.09375 C 49.156247 24.089114 49.393744 23.356275 49.84375 22.90625 C 50.293749 22.45627 50.995338 22.250023 52 22.25 z M 53.8125 25.9375 L 53.8125 41.53125 L 57.34375 41.53125 C 58.118162 41.531254 58.7167 41.510614 59.15625 41.46875 C 59.595775 41.426893 60.060303 41.323697 60.53125 41.15625 C 61.002169 40.988811 61.404634 40.772245 61.75 40.46875 C 63.309295 39.150143 64.093733 36.879534 64.09375 33.65625 C 64.093733 31.38532 63.747952 29.661505 63.0625 28.53125 C 62.377015 27.401028 61.535892 26.683741 60.53125 26.375 C 59.52658 26.066296 58.329503 25.937519 56.90625 25.9375 L 53.8125 25.9375 z "
         transform="translate(295.31228,152.0229)"
         id="path4837" />
      <path
         style="font-size:32.14903259px;font-style:normal;font-variant:normal;font-weight:normal;font-stretch:normal;line-height:125%;letter-spacing:0px;word-spacing:0px;fill:#000000;fill-opacity:1;stroke:none;font-family:Arial Rounded MT Bold;-inkscape-font-specification:Arial Rounded MT Bold"
         d="m 298.84353,174.2729 c -0.88954,2e-5 -1.60174,0.14944 -2.125,0.5 -0.52326,0.35061 -0.78125,1.02661 -0.78125,2.03125 l 0,18.21875 c 0,0.88954 0.19607,1.5657 0.59375,2 0.39767,0.4343 0.93459,0.65625 1.5625,0.65625 0.64884,0 1.17005,-0.24796 1.5625,-0.6875 0.39244,-0.43954 0.56249,-1.08967 0.5625,-1.96875 l 0,-15.875 3.6875,14.65625 c 0.12557,0.4814 0.25464,0.93023 0.375,1.375 0.12034,0.44477 0.29069,0.85247 0.5,1.21875 0.20929,0.36628 0.49824,0.67078 0.875,0.90625 0.37673,0.23547 0.8308,0.375 1.375,0.375 0.72208,0 1.31059,-0.19622 1.71875,-0.5625 0.40813,-0.36628 0.69199,-0.77398 0.84375,-1.21875 0.15173,-0.44477 0.32178,-1.14142 0.5625,-2.09375 l 3.6875,-14.65625 0,15.875 c -2e-5,0.87908 0.2273,1.52921 0.625,1.96875 0.39766,0.43954 0.88253,0.6875 1.5,0.6875 0.65928,0 1.20128,-0.24796 1.59375,-0.6875 0.39242,-0.43954 0.59372,-1.08967 0.59375,-1.96875 l 0,-18.21875 c -3e-5,-1.00464 -0.28927,-1.68064 -0.8125,-2.03125 -0.52328,-0.35056 -1.20423,-0.49998 -2.09375,-0.5 l -1.46875,0 c -0.86863,2e-5 -1.48257,0.0618 -1.875,0.21875 -0.39246,0.157 -0.68664,0.43563 -0.875,0.84375 -0.18839,0.40816 -0.41557,1.07908 -0.65625,2 l -3.34375,12.59375 -3.34375,-12.59375 c -0.24071,-0.92092 -0.43664,-1.59184 -0.625,-2 -0.18838,-0.40812 -0.48256,-0.68675 -0.875,-0.84375 -0.39245,-0.15696 -1.03765,-0.21873 -1.90625,-0.21875 l -1.4375,0 z m 26.96875,0 c -0.65931,2e-5 -1.20116,0.0877 -1.625,0.28125 -0.42384,0.19363 -0.73867,0.48243 -0.9375,0.90625 -0.19884,0.42386 -0.28125,0.9865 -0.28125,1.65625 l 0,16.96875 4.65625,-4.65625 0,-2.40625 2.40625,0 3.53125,-3.53125 -5.9375,0 0,-5.625 10.5,0 c 0.55726,1e-5 1.00133,-0.0958 1.34375,-0.28125 l 0.625,-0.625 c 0.15254,-0.26308 0.21874,-0.55251 0.21875,-0.90625 -2e-5,-0.5337 -0.17022,-0.98283 -0.53125,-1.3125 -0.36107,-0.32963 -0.91324,-0.46873 -1.65625,-0.46875 l -12.3125,0 z"
         id="text4839"
         inkscape:connector-curvature="0" />
    </g>
  </g>
</svg>
