<?xml version="1.0" encoding="UTF-8" standalone="no"?>
<!-- Created with Inkscape (http://www.inkscape.org/) -->

<svg
   xmlns:dc="http://purl.org/dc/elements/1.1/"
   xmlns:cc="http://creativecommons.org/ns#"
   xmlns:rdf="http://www.w3.org/1999/02/22-rdf-syntax-ns#"
   xmlns:svg="http://www.w3.org/2000/svg"
   xmlns="http://www.w3.org/2000/svg"
   xmlns:sodipodi="http://sodipodi.sourceforge.net/DTD/sodipodi-0.dtd"
   xmlns:inkscape="http://www.inkscape.org/namespaces/inkscape"
   width="69.277"
   height="69.723999"
   id="svg2"
   version="1.1"
   inkscape:version="0.48.4 r9939"
   sodipodi:docname="image.svg">
  <defs
     id="defs4" />
  <sodipodi:namedview
     id="base"
     pagecolor="#ffffff"
     bordercolor="#666666"
     borderopacity="1.0"
     inkscape:pageopacity="0.0"
     inkscape:pageshadow="2"
     inkscape:zoom="2.8"
     inkscape:cx="78.04664"
     inkscape:cy="34.71528"
     inkscape:document-units="px"
     inkscape:current-layer="layer1"
     showgrid="false"
     fit-margin-top="0"
     fit-margin-left="0"
     fit-margin-right="0"
     fit-margin-bottom="0"
     inkscape:window-width="1280"
     inkscape:window-height="962"
     inkscape:window-x="-8"
     inkscape:window-y="-8"
     inkscape:window-maximized="1" />
  <metadata
     id="metadata7">
    <rdf:RDF>
      <cc:Work
         rdf:about="">
        <dc:format>image/svg+xml</dc:format>
        <dc:type
           rdf:resource="http://purl.org/dc/dcmitype/StillImage" />
        <dc:title></dc:title>
      </cc:Work>
    </rdf:RDF>
  </metadata>
  <g
     inkscape:label="Layer 1"
     inkscape:groupmode="layer"
     id="layer1"
     transform="translate(-295.3615,-151.7859)">
    <path
       inkscape:connector-curvature="0"
       id="path5707"
       d="m 297.99436,221.52622 c -0.34137,-0.10265 2.32208,-3.19857 12.26104,-14.2519 11.36246,-12.63644 12.78575,-14.13735 13.54011,-14.27858 0.46364,-0.0868 6.64643,-0.15782 13.73954,-0.15782 l 12.89654,0 2.96982,3.63257 2.96981,3.63257 -9.20881,10.38062 c -8.19951,9.2429 -9.32786,10.42634 -10.29474,10.79768 -0.96402,0.37023 -3.18288,0.41476 -19.76159,0.39653 -10.27159,-0.0113 -18.87188,-0.0796 -19.11172,-0.15167 z m 44.10245,-11.333 7.53991,-8.25515 -4.6057,0 c -3.2492,0 -4.65724,-0.10001 -4.78075,-0.33956 -0.0963,-0.18677 0.81355,-1.50304 2.02187,-2.92506 l 2.19693,-2.58547 -9.52908,0 -9.52908,0 -9.93492,10.9201 c -5.46424,6.00607 -9.97118,11.06801 -10.01547,11.24876 -0.0631,0.25756 3.0749,0.31382 14.50792,0.26008 l 14.58846,-0.0685 7.53991,-8.25514 z m -27.13839,3.68052 c 0.39454,-0.43876 9.50102,-4.65554 10.05405,-4.65554 0.26892,0 0.6894,0.20366 0.93445,0.45257 0.49224,0.50003 0.54989,0.48163 5.53264,-1.76586 1.75914,-0.79347 2.02212,-0.85183 2.28352,-0.50674 0.53257,0.70308 0.88104,6.28093 0.40756,6.5234 -0.69162,0.35419 -19.53153,0.30729 -19.2122,-0.0478 z m 6.03237,-6.09259 c -1.1786,-0.77614 1.63807,-2.72975 3.92026,-2.71904 1.11483,0.005 1.47984,0.25294 1.47928,1.00351 -3.7e-4,0.5271 -0.21691,0.71738 -1.47946,1.30001 -1.79602,0.82883 -3.08498,0.96546 -3.92008,0.41552 z"
       style="fill:#191919" />
    <g
       id="g3818"
       transform="matrix(0.71243953,0,-0.37580644,0.41794241,223.36536,115.17166)"
       style="opacity:0.5442478">
      <path
         style="fill:none;stroke:#ff1313;stroke-width:3;stroke-linecap:butt;stroke-linejoin:miter;stroke-miterlimit:4;stroke-opacity:1;stroke-dasharray:none"
         d="m 222.43257,220.24721 0,-67.68022 54.82108,0 0,67.68022 z"
         id="path3797"
         inkscape:connector-curvature="0"
         sodipodi:nodetypes="ccccc" />
      <path
         inkscape:connector-curvature="0"
         id="path3803"
         d="m 250.674,168.25465 -1.28125,2.25 -18.96875,32.84375 -1.3125,2.25 2.625,0 37.78125,-0.21875 2.59375,-0.0312 -1.3125,-2.21875 -18.8125,-32.625 -1.3125,-2.25 z m 0,6 16.25,28.125 -32.59375,0.21875 16.34375,-28.34375 z"
         style="font-size:medium;font-style:normal;font-variant:normal;font-weight:normal;font-stretch:normal;text-indent:0;text-align:start;text-decoration:none;line-height:normal;letter-spacing:normal;word-spacing:normal;text-transform:none;direction:ltr;block-progression:tb;writing-mode:lr-tb;text-anchor:start;baseline-shift:baseline;color:#000000;fill:none;stroke:#ff1313;stroke-width:3;stroke-opacity:1;marker:none;visibility:visible;display:inline;overflow:visible;enable-background:accumulate;font-family:Sans;-inkscape-font-specification:Sans" />
    </g>
    <g
       id="g3813"
       transform="matrix(0.71243953,0,-0.37580644,0.41794241,165.75954,105.57823)"
       style="opacity:0.5442478">
      <path
         sodipodi:nodetypes="ccccc"
         transform="translate(295.3615,151.7859)"
         inkscape:connector-curvature="0"
         id="path3023"
         d="m 7.0710678,68.461308 0,-67.6802197 54.8210802,0 0,67.6802197 z"
         style="fill:none;stroke:#13ff68;stroke-width:3;stroke-linecap:butt;stroke-linejoin:miter;stroke-miterlimit:4;stroke-opacity:1;stroke-dasharray:none" />
      <path
         id="path3025"
         d="m 35.1028,16.943529 c 0,5.718392 -4.748737,10.354064 -10.606601,10.354064 -5.857865,0 -10.606602,-4.635672 -10.606602,-10.354064 0,-5.718392 4.748737,-10.3540639 10.606602,-10.3540639 5.857864,0 10.606601,4.6356719 10.606601,10.3540639 z"
         style="fill:none;stroke:#13ff66;stroke-width:3;stroke-miterlimit:4;stroke-opacity:1"
         transform="translate(295.3615,151.7859)"
         inkscape:connector-curvature="0" />
      <path
         id="path3027"
         d="m 56.568542,52.551407 c 0,7.810486 -6.557781,14.142135 -14.647213,14.142135 -8.089431,0 -14.647212,-6.331649 -14.647212,-14.142135 0,-7.810486 6.557781,-14.142136 14.647212,-14.142136 8.089432,0 14.647213,6.33165 14.647213,14.142136 z"
         style="fill:none;stroke:#13ff66;stroke-width:3;stroke-miterlimit:4;stroke-opacity:1"
         transform="translate(297.12927,150.27067)"
         inkscape:connector-curvature="0" />
    </g>
    <g
       style="opacity:0.5442478;stroke:#1316ff;stroke-opacity:1"
       transform="matrix(0.71243953,0,-0.37580644,0.41794241,165.75954,90.655107)"
       id="g3822">
      <path
         style="fill:none;stroke:#1316ff;stroke-width:3;stroke-linecap:butt;stroke-linejoin:miter;stroke-miterlimit:4;stroke-opacity:1;stroke-dasharray:none"
         d="m 7.0710678,68.461308 0,-67.6802197 54.8210802,0 0,67.6802197 z"
         id="path3824"
         inkscape:connector-curvature="0"
         transform="translate(295.3615,151.7859)"
         sodipodi:nodetypes="ccccc" />
      <rect
         style="opacity:0.5442478;fill:none;stroke:#1316ff;stroke-width:3.98448181;stroke-linecap:round;stroke-linejoin:round;stroke-miterlimit:4;stroke-opacity:1;stroke-dasharray:none"
         id="rect3830"
         width="23.753204"
         height="26.257666"
         x="316.43729"
         y="162.73845"
         transform="matrix(1,0,-0.02697269,0.99963617,0,0)" />
    </g>
  </g>
</svg>
