<?xml version="1.0" encoding="UTF-8" standalone="no"?>
<!-- Created with Inkscape (http://www.inkscape.org/) -->

<svg
   xmlns:dc="http://purl.org/dc/elements/1.1/"
   xmlns:cc="http://creativecommons.org/ns#"
   xmlns:rdf="http://www.w3.org/1999/02/22-rdf-syntax-ns#"
   xmlns:svg="http://www.w3.org/2000/svg"
   xmlns="http://www.w3.org/2000/svg"
   xmlns:sodipodi="http://sodipodi.sourceforge.net/DTD/sodipodi-0.dtd"
   xmlns:inkscape="http://www.inkscape.org/namespaces/inkscape"
   width="69.277"
   height="69.723999"
   id="svg2"
   version="1.1"
   inkscape:version="0.91 r13725"
   sodipodi:docname="reload.svg">
  <defs
     id="defs4" />
  <sodipodi:namedview
     id="base"
     pagecolor="#ffffff"
     bordercolor="#666666"
     borderopacity="1.0"
     inkscape:pageopacity="0.0"
     inkscape:pageshadow="2"
     inkscape:zoom="5.6"
     inkscape:cx="58.796076"
     inkscape:cy="31.000449"
     inkscape:document-units="px"
     inkscape:current-layer="layer1"
     showgrid="false"
     fit-margin-top="0"
     fit-margin-left="0"
     fit-margin-right="0"
     fit-margin-bottom="0"
     inkscape:window-width="1920"
     inkscape:window-height="1017"
     inkscape:window-x="1358"
     inkscape:window-y="-8"
     inkscape:window-maximized="1" />
  <metadata
     id="metadata7">
    <rdf:RDF>
      <cc:Work
         rdf:about="">
        <dc:format>image/svg+xml</dc:format>
        <dc:type
           rdf:resource="http://purl.org/dc/dcmitype/StillImage" />
        <dc:title></dc:title>
      </cc:Work>
    </rdf:RDF>
  </metadata>
  <g
     inkscape:label="Layer 1"
     inkscape:groupmode="layer"
     id="layer1"
     transform="translate(-295.3615,-151.7859)">
    <path
       style="opacity:1;fill:#007d00;fill-opacity:1;stroke:none;stroke-width:2;stroke-miterlimit:4;stroke-dasharray:none;stroke-dashoffset:0;stroke-opacity:1"
       d="m 329.99989,152.046 a 34.601851,34.601851 0 0 0 -34.60168,34.6019 34.601851,34.601851 0 0 0 34.60168,34.60189 34.601851,34.601851 0 0 0 34.6019,-34.60189 34.601851,34.601851 0 0 0 -34.6019,-34.6019 z m 0.27494,12.94521 c 2.61032,-0.005 4.58449,0.3144 7.06808,1.1418 1.06529,0.3549 4.18548,1.85444 4.40222,2.11559 0.10024,0.12073 -0.0613,0.15943 -0.89392,0.21419 -5.61751,0.36948 -11.3381,3.39455 -15.05843,7.96287 -2.17225,2.66738 -3.91087,6.43332 -4.5136,9.77645 l -0.0641,0.35565 3.50893,0.029 3.50871,0.029 -1.45152,1.66915 c -0.79829,0.91801 -3.65182,4.21553 -6.34135,7.32778 -2.68953,3.11225 -4.94951,5.66189 -5.02205,5.66593 -0.0726,0.004 -0.17145,-0.0607 -0.21978,-0.1438 -0.0483,-0.0831 -1.39821,-1.57713 -2.99984,-3.32006 -1.60163,-1.74293 -4.07132,-4.43176 -5.48801,-5.97521 -1.41668,-1.54345 -3.06089,-3.33198 -3.65379,-3.97446 -0.59292,-0.64246 -1.07787,-1.19796 -1.07787,-1.23453 0,-0.0366 1.47114,-0.0797 3.2692,-0.0957 l 3.2692,-0.029 0.079,-1.33948 c 0.24531,-4.16068 1.88929,-8.45328 4.53743,-11.84717 2.15683,-2.76424 5.38688,-5.27826 8.41079,-6.54632 3.02593,-1.26893 5.51093,-1.77609 8.73079,-1.78163 z m 14.29071,6.87727 c 0.11665,0.0224 13.45622,14.52766 13.45622,14.63218 0,0.0312 -1.47113,0.0699 -3.2692,0.0858 l -3.26918,0.0292 -0.0739,1.31867 c -0.0796,1.42155 -0.36889,3.04019 -0.82461,4.61533 -2.02343,6.99394 -7.71712,12.69677 -14.6957,14.71909 -1.37375,0.3981 -2.92593,0.69554 -4.02103,0.77073 -1.52495,0.1047 -2.54472,0.136 -3.18677,0.0974 -2.1384,-0.12844 -4.01958,-0.48817 -6.02844,-1.15255 -1.05844,-0.35006 -4.18012,-1.84899 -4.39833,-2.11193 -0.1006,-0.1212 0.0668,-0.16103 0.93318,-0.22193 1.2548,-0.0882 2.89513,-0.3937 4.26764,-0.79475 5.82247,-1.70134 10.62048,-5.73847 13.30621,-11.19622 0.97562,-1.98257 1.62444,-3.88389 1.95911,-5.74019 l 0.0641,-0.35563 -3.50228,-0.029 -3.50228,-0.029 5.38347,-6.20873 c 2.96099,-3.41479 5.81185,-6.71319 6.33514,-7.32971 0.52328,-0.61651 1.00317,-1.11101 1.06648,-1.09889 z"
       id="circle4176"
       inkscape:connector-curvature="0" />
  </g>
</svg>
