<?xml version="1.0" encoding="UTF-8" standalone="no"?>
<!-- Created with Inkscape (http://www.inkscape.org/) -->

<svg
   xmlns:dc="http://purl.org/dc/elements/1.1/"
   xmlns:cc="http://creativecommons.org/ns#"
   xmlns:rdf="http://www.w3.org/1999/02/22-rdf-syntax-ns#"
   xmlns:svg="http://www.w3.org/2000/svg"
   xmlns="http://www.w3.org/2000/svg"
   xmlns:sodipodi="http://sodipodi.sourceforge.net/DTD/sodipodi-0.dtd"
   xmlns:inkscape="http://www.inkscape.org/namespaces/inkscape"
   width="69.277"
   height="69.723999"
   id="svg2"
   version="1.1"
   inkscape:version="0.91 r13725"
   sodipodi:docname="seriesResistance.svg">
  <defs
     id="defs4" />
  <sodipodi:namedview
     id="base"
     pagecolor="#ffffff"
     bordercolor="#666666"
     borderopacity="1.0"
     inkscape:pageopacity="0.0"
     inkscape:pageshadow="2"
     inkscape:zoom="5.6"
     inkscape:cx="17.770402"
     inkscape:cy="33.916936"
     inkscape:document-units="px"
     inkscape:current-layer="g5572"
     showgrid="false"
     fit-margin-top="0"
     fit-margin-left="0"
     fit-margin-right="0"
     fit-margin-bottom="0"
     inkscape:window-width="1280"
     inkscape:window-height="1002"
     inkscape:window-x="1272"
     inkscape:window-y="-8"
     inkscape:window-maximized="1" />
  <metadata
     id="metadata7">
    <rdf:RDF>
      <cc:Work
         rdf:about="">
        <dc:format>image/svg+xml</dc:format>
        <dc:type
           rdf:resource="http://purl.org/dc/dcmitype/StillImage" />
        <dc:title />
      </cc:Work>
    </rdf:RDF>
  </metadata>
  <g
     inkscape:label="Layer 1"
     inkscape:groupmode="layer"
     id="layer1"
     transform="translate(-295.3615,-151.7859)">
    <g
       id="g5572"
       transform="translate(0.04922171,-0.23700219)">
      <g
         style="font-style:normal;font-weight:normal;font-size:67.48368073px;line-height:125%;font-family:Sans;letter-spacing:0px;word-spacing:0px;fill:#000000;fill-opacity:1;stroke:none;stroke-width:1px;stroke-linecap:butt;stroke-linejoin:miter;stroke-opacity:1"
         id="text4143">
        <path
           d="m 322.5808,181.69892 q 2.14182,0.72492 4.15183,3.0974 2.04296,2.37247 4.08592,6.5243 l 6.75496,13.44401 -7.15037,0 -6.29364,-12.62024 q -2.43838,-4.94265 -4.74495,-6.55725 -2.27362,-1.6146 -6.22774,-1.6146 l -7.24922,0 0,20.79209 -6.65611,0 0,-49.19586 15.02566,0 q 8.43546,0 12.58729,3.52576 4.15183,3.52575 4.15183,10.64317 0,4.6461 -2.17477,7.71054 -2.14181,3.06445 -6.26069,4.25068 z m -16.67321,-20.66029 0,17.46404 8.36955,0 q 4.81085,0 7.24923,-2.20771 2.47132,-2.24067 2.47132,-6.55726 0,-4.31658 -2.47132,-6.49135 -2.43838,-2.20772 -7.24923,-2.20772 l -8.36955,0 z"
           style=""
           id="path4138" />
        <path
           d="m 358.97684,194.97983 0,3.72676 q -1.67061,-0.85673 -3.46974,-1.28509 -1.79912,-0.42836 -3.72676,-0.42836 -2.93429,0 -4.41214,0.89956 -1.45643,0.89956 -1.45643,2.69869 0,1.37076 1.04949,2.16323 1.04949,0.77105 4.21937,1.47785 l 1.34935,0.29986 q 4.19796,0.89956 5.95425,2.54876 1.7777,1.62778 1.7777,4.56207 0,3.34123 -2.65585,5.29028 -2.63443,1.94906 -7.26076,1.94906 -1.92763,0 -4.02661,-0.38553 -2.07756,-0.36411 -4.39072,-1.11374 l 0,-4.06946 q 2.18465,1.13517 4.30505,1.71346 2.1204,0.55687 4.19796,0.55687 2.78436,0 4.28363,-0.9424 1.49927,-0.96382 1.49927,-2.69869 0,-1.60636 -1.09233,-2.46309 -1.0709,-0.85672 -4.73341,-1.6492 l -1.37076,-0.32127 q -3.66251,-0.77105 -5.29029,-2.356 -1.62778,-1.60636 -1.62778,-4.39072 0,-3.38407 2.39884,-5.22603 2.39883,-1.84196 6.81097,-1.84196 2.18465,0 4.11229,0.32127 1.92763,0.32127 3.55541,0.96382 z"
           style="font-size:43.86439514px;baseline-shift:sub"
           id="path4140" />
      </g>
    </g>
  </g>
</svg>
