<?xml version="1.0" encoding="UTF-8" standalone="no"?>
<!-- Created with Inkscape (http://www.inkscape.org/) -->

<svg
   xmlns:dc="http://purl.org/dc/elements/1.1/"
   xmlns:cc="http://creativecommons.org/ns#"
   xmlns:rdf="http://www.w3.org/1999/02/22-rdf-syntax-ns#"
   xmlns:svg="http://www.w3.org/2000/svg"
   xmlns="http://www.w3.org/2000/svg"
   xmlns:sodipodi="http://sodipodi.sourceforge.net/DTD/sodipodi-0.dtd"
   xmlns:inkscape="http://www.inkscape.org/namespaces/inkscape"
   width="69.277"
   height="69.723999"
   id="svg2"
   version="1.1"
   inkscape:version="0.48.4 r9939"
   sodipodi:docname="sliceZ.svg">
  <defs
     id="defs4" />
  <sodipodi:namedview
     id="base"
     pagecolor="#ffffff"
     bordercolor="#666666"
     borderopacity="1.0"
     inkscape:pageopacity="0.0"
     inkscape:pageshadow="2"
     inkscape:zoom="5.6"
     inkscape:cx="47.412177"
     inkscape:cy="48.031439"
     inkscape:document-units="px"
     inkscape:current-layer="layer1"
     showgrid="false"
     fit-margin-top="0"
     fit-margin-left="0"
     fit-margin-right="0"
     fit-margin-bottom="0"
     inkscape:window-width="1280"
     inkscape:window-height="962"
     inkscape:window-x="-8"
     inkscape:window-y="-8"
     inkscape:window-maximized="1" />
  <metadata
     id="metadata7">
    <rdf:RDF>
      <cc:Work
         rdf:about="">
        <dc:format>image/svg+xml</dc:format>
        <dc:type
           rdf:resource="http://purl.org/dc/dcmitype/StillImage" />
        <dc:title></dc:title>
      </cc:Work>
    </rdf:RDF>
  </metadata>
  <g
     inkscape:label="Layer 1"
     inkscape:groupmode="layer"
     id="layer1"
     transform="translate(-295.3615,-151.7859)">
    <path
       style="fill:#0e0e0e"
       d="m 304.03979,152.01745 c -1.05687,0.20705 -2.7524,1.37363 -3.36881,2.29102 -0.82338,1.16764 -0.75153,2.71604 0.19775,4.28629 0.34273,0.56695 0.196,0.40265 5.01136,5.64737 2.25752,2.45881 4.88702,5.32418 5.84333,6.36709 0.95631,1.04292 1.76904,1.88971 1.80466,1.88127 0.0578,-0.0137 1.16195,-0.92256 5.11648,-4.20613 0.66083,-0.54871 1.2095,-1.03557 1.21855,-1.08315 0.0135,-0.0713 -10.37297,-11.98711 -11.10767,-12.74309 -1.63289,-1.6965 -3.05433,-2.55502 -4.71565,-2.44067 z m 9.30658,12.99429 c 0.28086,8.8e-4 0.47998,0.0363 0.6645,0.11936 1.31411,0.59133 1.36904,2.4433 0.0909,3.06418 -0.77562,0.37677 -1.66108,0.14399 -2.13424,-0.55939 -0.23814,-0.354 -0.32073,-0.6649 -0.28682,-1.09206 0.0702,-0.88549 0.77804,-1.53582 1.6657,-1.53209 z m 7.67293,3.50243 c -0.0484,6.9e-4 -0.44822,0.2999 -0.88718,0.66451 -0.91697,0.76163 -3.6768,3.04912 -4.83145,4.00481 -0.45385,0.37566 -0.78385,0.69125 -0.78385,0.74824 0,0.15326 1.95299,2.9115 3.6699,5.18417 1.1855,1.56925 3.29051,4.20862 3.6877,4.623 0.10765,0.11229 0.4012,0.45443 0.65204,0.7607 1.28969,1.57475 2.50879,2.93557 4.23819,4.73168 0.63203,0.65641 1.14907,1.20965 1.14907,1.22923 0,0.0529 -0.68178,0.49111 -0.91213,0.58612 -0.29424,0.12136 -10.27647,5.56851 -10.37191,5.65983 -0.0705,0.0675 -0.0705,0.0816 0,0.10689 0.0447,0.0161 0.31283,0.1088 0.59502,0.20665 0.657,0.22785 1.52127,0.66006 2.1378,1.06713 0.71044,0.46905 1.65172,1.4333 2.1681,2.22153 0.23108,0.35274 0.45183,0.64134 0.48991,0.64134 0.0381,0 0.12181,-0.0843 0.18527,-0.18706 0.16369,-0.26483 0.8858,-0.94833 1.28981,-1.22033 0.68298,-0.4598 1.36123,-0.74444 2.30883,-0.96913 0.7424,-0.17603 2.45639,-0.24576 3.3332,-0.13539 2.37715,0.29921 4.2216,1.63214 5.38905,3.89079 1.77706,3.4381 1.7979,9.05883 0.0588,16.42012 -0.15733,0.66591 -0.28682,1.24465 -0.28682,1.28446 0,0.0399 0.0213,0.0712 0.0481,0.0712 0.0267,0 1.89303,-1.00234 4.14734,-2.22866 4.99503,-2.71725 8.61792,-4.6871 14.56023,-7.917 2.49268,-1.35487 4.56256,-2.49358 4.59984,-2.52974 0.16294,-0.15799 1.00443,-3.3795 1.40917,-5.39616 1.43651,-7.15759 1.01228,-12.17821 -1.20964,-14.32329 -0.64498,-0.62266 -1.26449,-0.9569 -2.22154,-1.19717 -0.4385,-0.11009 -0.64785,-0.12366 -1.77972,-0.12293 -1.85901,8.8e-4 -1.77396,-0.0266 -4.69782,1.56238 -0.9924,0.53932 -1.8395,0.96735 -1.88127,0.95133 -0.0418,-0.016 -0.23142,-0.30965 -0.42222,-0.65204 -0.44083,-0.79101 -0.7472,-1.19662 -1.30406,-1.72805 -1.00065,-0.95495 -2.25725,-1.58533 -3.82845,-1.91868 -0.59256,-0.12572 -0.86911,-0.15299 -1.54813,-0.15322 -0.9643,-2.2e-4 -1.07626,0.0331 -2.01665,0.58969 -0.3219,0.19051 -0.60143,0.3456 -0.62175,0.3456 -0.0204,0 -0.23942,0.12828 -0.48635,0.28505 -0.24694,0.15677 -0.48854,0.28504 -0.53801,0.28504 -0.0495,0 -0.54017,-0.50666 -1.09028,-1.12591 -0.55013,-0.61926 -1.21357,-1.35794 -1.47331,-1.64254 -0.64323,-0.70482 -1.85625,-2.09761 -2.41038,-2.76668 -1.18536,-1.43127 -10.43698,-11.90881 -10.51443,-11.90757 z m 19.06565,17.0775 c 1.56146,0.006 3.48515,0.74909 4.5945,1.77616 0.49211,0.4556 0.75499,0.83396 1.44658,2.08435 0.34136,0.61716 0.64975,1.12235 0.68588,1.12235 0.0361,0 1.15504,-0.59065 2.4852,-1.31297 1.33014,-0.72233 2.58425,-1.37331 2.78804,-1.44658 0.56134,-0.2018 1.28116,-0.28331 2.13959,-0.24229 1.61325,0.0771 2.58903,0.55775 3.27976,1.61583 1.42063,2.17621 1.56346,6.65184 0.39727,12.50259 -0.4131,2.07251 -1.11706,4.73429 -1.29694,4.90805 -0.056,0.0541 -1.40988,0.80925 -3.00895,1.67817 -1.59908,0.86891 -3.77964,2.05504 -4.8457,2.63484 -1.06605,0.5798 -2.54113,1.38133 -3.27796,1.78151 -1.15922,0.62958 -2.52252,1.37121 -8.18957,4.45375 -1.00002,0.54396 -1.10934,0.59378 -1.16688,0.53623 -0.0146,-0.0146 0.0316,-0.31604 0.10332,-0.66984 0.67908,-3.35017 0.98746,-6.85714 0.82127,-9.33686 -0.23052,-3.43967 -1.03488,-5.81051 -2.61346,-7.69609 -1.49572,-1.78662 -3.46579,-2.69927 -6.08739,-2.82369 -2.19694,-0.10426 -4.2192,0.43238 -5.72576,1.51962 l -0.481,0.3474 -0.13718,-0.16212 c -0.57916,-0.69426 -1.43487,-1.45575 -2.16631,-1.92758 -0.22905,-0.14776 -0.40548,-0.29838 -0.39371,-0.33493 0.0118,-0.0365 0.76219,-0.47328 1.66927,-0.96914 0.90708,-0.49585 1.94468,-1.06321 2.30527,-1.2613 0.36057,-0.19809 1.2841,-0.70038 2.05228,-1.11522 0.76819,-0.41484 1.46944,-0.80515 1.55882,-0.86759 0.0894,-0.0625 0.37157,-0.21496 0.62709,-0.34027 0.25552,-0.12531 0.59324,-0.31265 0.75001,-0.41509 0.50434,-0.32956 0.43986,-0.35296 1.38067,0.50951 0.46389,0.42526 1.01108,0.92571 1.21676,1.11166 0.45323,0.40975 1.46901,1.24679 1.59267,1.31297 0.0532,0.0285 0.41142,-0.006 0.88541,-0.0856 1.99744,-0.33602 3.66964,-0.3895 4.53036,-0.14431 1.57705,0.44927 3.0909,1.70765 4.28986,3.56658 0.53132,0.82379 0.96964,1.83209 1.27021,2.92166 0.10626,0.38522 0.21175,0.72927 0.23337,0.76427 0.0558,0.0902 2.77373,1.40887 4.29699,2.08436 2.20133,0.97617 5.58113,2.26283 5.68121,2.16275 0.045,-0.045 0.44187,0.41232 -5.73109,-6.61116 -2.99796,-3.41104 -5.53794,-6.3099 -5.64381,-6.44192 -0.10585,-0.13202 -0.41713,-0.47551 -0.693,-0.76427 -0.27587,-0.28876 -0.65147,-0.71204 -0.83374,-0.94064 -0.41758,-0.52368 -1.03819,-1.23053 -1.69421,-1.92758 -0.28033,-0.29786 -0.62327,-0.6955 -0.76248,-0.88363 -0.13923,-0.18812 -0.27121,-0.35487 -0.29217,-0.37055 -0.18215,-0.13626 -0.75517,-0.86722 -0.73042,-0.93173 0.017,-0.0445 0.24494,-0.21512 0.50595,-0.37767 0.26101,-0.16256 0.60215,-0.38407 0.75892,-0.49347 0.64064,-0.44712 0.80109,-0.50292 1.4252,-0.50061 z m -26.40722,13.16887 c -1.34714,0.006 -2.20645,0.60314 -2.81478,1.87592 -0.58973,1.23387 -0.83356,2.91201 -0.77495,5.33026 0.0758,3.1258 0.71657,7.11155 1.81179,11.2591 0.35734,1.35322 0.37094,1.3889 0.58255,1.4252 0.0997,0.017 3.93998,0.5572 8.5334,1.20073 4.59343,0.64354 8.74932,1.2295 9.23531,1.30228 1.17565,0.17608 1.17778,0.17557 1.21143,0.0196 0.0152,-0.0705 0.17018,-0.65417 0.34383,-1.29694 0.74423,-2.75483 1.20504,-5.15811 1.50715,-7.86712 0.0743,-0.66614 0.0974,-1.3677 0.098,-2.8504 4.5e-4,-2.23455 -0.0775,-2.97372 -0.45429,-4.28274 -0.85824,-2.98175 -2.69975,-4.26634 -5.92706,-4.13664 -1.90365,0.0765 -3.30817,0.80557 -3.9389,2.04694 -0.0753,0.14821 -0.3942,1.13598 -0.70904,2.19481 -0.31486,1.05884 -0.59644,1.9486 -0.62532,1.97748 -0.0686,0.0686 -0.0305,0.18807 -0.65559,-2.04696 -0.71829,-2.56816 -0.93759,-3.00654 -2.01665,-4.0351 -0.94361,-0.89944 -2.04407,-1.46955 -3.58796,-1.85811 -0.69081,-0.17386 -1.29177,-0.26075 -1.81891,-0.25832 z"
       id="path5600"
       inkscape:connector-curvature="0"
       sodipodi:nodetypes="ccssscssccsssssscssssssssssssssssssssssssscsssssccsssssssssscssssscsssssscsssssscccsssssssssscsssscscscssscccssssssscsscsscsssssssss" />
  </g>
</svg>
