<?xml version="1.0" encoding="UTF-8" standalone="no"?>
<!-- Created with Inkscape (http://www.inkscape.org/) -->

<svg
   xmlns:dc="http://purl.org/dc/elements/1.1/"
   xmlns:cc="http://creativecommons.org/ns#"
   xmlns:rdf="http://www.w3.org/1999/02/22-rdf-syntax-ns#"
   xmlns:svg="http://www.w3.org/2000/svg"
   xmlns="http://www.w3.org/2000/svg"
   xmlns:sodipodi="http://sodipodi.sourceforge.net/DTD/sodipodi-0.dtd"
   xmlns:inkscape="http://www.inkscape.org/namespaces/inkscape"
   width="69.277"
   height="69.723999"
   id="svg2"
   version="1.1"
   inkscape:version="0.48.4 r9939"
   sodipodi:docname="snapOff.svg">
  <defs
     id="defs4">
    <marker
       inkscape:stockid="DotS"
       orient="auto"
       refY="0.0"
       refX="0.0"
       id="DotS"
       style="overflow:visible">
      <path
         id="path3896"
         d="M -2.5,-1.0 C -2.5,1.7600000 -4.7400000,4.0 -7.5,4.0 C -10.260000,4.0 -12.5,1.7600000 -12.5,-1.0 C -12.5,-3.7600000 -10.260000,-6.0 -7.5,-6.0 C -4.7400000,-6.0 -2.5,-3.7600000 -2.5,-1.0 z "
         style="fill-rule:evenodd;stroke:#000000;stroke-width:1.0pt"
         transform="scale(0.2) translate(7.4, 1)" />
    </marker>
    <marker
       inkscape:stockid="DotM"
       orient="auto"
       refY="0.0"
       refX="0.0"
       id="DotM"
       style="overflow:visible">
      <path
         id="path3893"
         d="M -2.5,-1.0 C -2.5,1.7600000 -4.7400000,4.0 -7.5,4.0 C -10.260000,4.0 -12.5,1.7600000 -12.5,-1.0 C -12.5,-3.7600000 -10.260000,-6.0 -7.5,-6.0 C -4.7400000,-6.0 -2.5,-3.7600000 -2.5,-1.0 z "
         style="fill-rule:evenodd;stroke:#000000;stroke-width:1.0pt"
         transform="scale(0.4) translate(7.4, 1)" />
    </marker>
  </defs>
  <sodipodi:namedview
     id="base"
     pagecolor="#ffffff"
     bordercolor="#666666"
     borderopacity="1.0"
     inkscape:pageopacity="0.0"
     inkscape:pageshadow="2"
     inkscape:zoom="2.8"
     inkscape:cx="-8.5950977"
     inkscape:cy="7.8806263"
     inkscape:document-units="px"
     inkscape:current-layer="g5572"
     showgrid="false"
     fit-margin-top="0"
     fit-margin-left="0"
     fit-margin-right="0"
     fit-margin-bottom="0"
     inkscape:window-width="1364"
     inkscape:window-height="706"
     inkscape:window-x="-8"
     inkscape:window-y="-8"
     inkscape:window-maximized="1" />
  <metadata
     id="metadata7">
    <rdf:RDF>
      <cc:Work
         rdf:about="">
        <dc:format>image/svg+xml</dc:format>
        <dc:type
           rdf:resource="http://purl.org/dc/dcmitype/StillImage" />
        <dc:title />
      </cc:Work>
    </rdf:RDF>
  </metadata>
  <g
     inkscape:label="Layer 1"
     inkscape:groupmode="layer"
     id="layer1"
     transform="translate(-295.3615,-151.7859)">
    <g
       id="g5572"
       transform="translate(0.04922171,-0.23700219)">
      <path
         style="fill:#550000"
         d="M 37.8125 6.5 C 37.78592 6.457 37.51307 6.59882 37.21875 6.84375 C 35.7229 8.08861 32.58804 9.64993 29.6875 10.59375 C 26.58916 11.60194 24.31309 13.84597 23.15625 17 C 22.90745 17.67831 22.50495 19.24069 22.40625 19.875 C 22.37769 20.05861 22.32385 20.21875 22.28125 20.21875 C 22.23857 20.21875 21.93031 19.44931 21.625 18.53125 C 20.50101 15.15138 18.93332 11.9375 18.40625 11.9375 C 18.0759 11.9375 16.46875 12.50757 16.46875 12.625 C 16.46875 12.6874 16.86943 13.20529 17.34375 13.78125 C 18.42842 15.09835 19.11961 16.13931 19.78125 17.5 C 20.20749 18.37659 20.84375 20.03571 20.84375 20.25 C 20.84375 20.37051 20.43519 20.29411 20.1875 20.125 C 19.45618 19.62566 17.32187 18.61827 16.09375 18.21875 C 14.54473 17.71484 13.81285 17.61 12.125 17.5625 C 9.51405 17.48898 8.03026 17.84416 6 19.0625 C 3.29208 20.68751 1.5918 23.15833 1.03125 26.28125 C 0.85462 27.26507 0.81107 29.59629 0.96875 30.71875 C 1.55135 34.86627 4.12969 42.31002 6.625 47.09375 C 8.82939 51.31981 10.76659 53.84795 13 55.375 C 14.62789 56.48803 15.80552 56.90631 17.3125 56.90625 C 18.07898 56.90623 18.37858 56.85224 19.375 56.5625 C 20.51833 56.23002 20.55466 56.21871 22.09375 56.21875 C 23.91057 56.2188 24.38176 56.32099 25.625 56.9375 C 26.06755 57.15696 26.6836 57.40015 27 57.46875 C 27.76153 57.63353 28.9196 57.63141 29.6875 57.46875 C 30.188879 57.362538 30.846463 57.082585 31.40625 56.78125 L 41.78125 20.25 C 41.152055 19.574376 40.434032 18.848926 40.0625 18.59375 C 38.78526 17.71649 37.187 17.15303 35.375 16.90625 C 34.81248 16.82964 34.5625 16.73965 34.5625 16.65625 C 34.5625 16.59043 34.75724 16.22349 35 15.8125 C 35.76793 14.51237 36.48816 12.6248 37.03125 10.5625 C 37.37837 9.24447 37.8909 6.62679 37.8125 6.5 z "
         transform="translate(295.31228,152.0229)"
         id="path4639" />
      <path
         style="fill:#2d5016"
         d="M 62.09375 7.125 C 61.539226 7.1722926 60.806706 7.4913812 60.375 7.96875 C 60.1055 8.26676 60.08795 8.30468 60.8125 9.25 C 61.61749 10.30027 62.42546 12.03301 62.65625 13.25 C 62.86448 14.34801 62.63705 15.57198 61.96875 16.84375 C 61.37524 17.97319 60.8052 18.46775 60.09375 18.46875 C 59.8729 18.46906 59.12255 18.25822 58.4375 18 C 57.3677 17.59672 57.00303 17.53625 55.78125 17.53125 C 54.85063 17.52781 54.04888 17.60995 53.46875 17.78125 C 52.299 18.12665 50.0042 19.3064 46.15625 21.5 C 42.25038 23.72661 42.22894 23.73379 39.71875 24.78125 C 39.511901 24.867565 39.320624 24.945153 39.125 25.03125 L 32.375 52.28125 C 32.71906 52.534403 33.04245 52.773929 33.46875 53.0625 C 35.29679 54.29993 36.26618 55.20521 38.9375 58.0625 C 40.44763 59.67775 42.26037 60.67292 45.0625 61.40625 C 47.64294 62.08156 51.01948 61.80265 53.75 60.71875 C 58.32904 58.9011 62.8514 54.72806 65.03125 50.3125 C 66.40755 47.5246 66.67191 45.94852 66.84375 39.375 C 66.958 35.00459 67.02084 34.41207 67.40625 32.5 C 67.76925 30.69924 67.8085 30.0304 67.8125 27.84375 C 67.81582 25.85129 67.76332 25.11337 67.5625 24.46875 C 67.18403 23.25387 66.42879 22.09136 65.5625 21.40625 C 64.19901 20.32795 64.21875 20.4671 64.21875 15.9375 L 64.21875 11.96875 L 63.5625 9.8125 C 63.20171 8.61835 62.85565 7.51911 62.78125 7.375 C 62.68006 7.1791862 62.426464 7.0966245 62.09375 7.125 z "
         transform="translate(295.31228,152.0229)"
         id="path3049" />
      <path
         style="fill:none;stroke:#717700;stroke-width:5;stroke-linecap:butt;stroke-linejoin:miter;stroke-opacity:1;stroke-miterlimit:4;stroke-dasharray:none;marker-start:url(#DotS);marker-end:url(#DotS)"
         d="M 46.428571,-0.27600047 28.571428,69.009713"
         id="path3055"
         inkscape:connector-curvature="0"
         transform="translate(295.31228,152.0229)" />
    </g>
  </g>
</svg>
