<?xml version="1.0" encoding="UTF-8" standalone="no"?>
<!-- Created with Inkscape (http://www.inkscape.org/) -->

<svg
   xmlns:dc="http://purl.org/dc/elements/1.1/"
   xmlns:cc="http://creativecommons.org/ns#"
   xmlns:rdf="http://www.w3.org/1999/02/22-rdf-syntax-ns#"
   xmlns:svg="http://www.w3.org/2000/svg"
   xmlns="http://www.w3.org/2000/svg"
   xmlns:sodipodi="http://sodipodi.sourceforge.net/DTD/sodipodi-0.dtd"
   xmlns:inkscape="http://www.inkscape.org/namespaces/inkscape"
   width="69.277"
   height="69.723999"
   id="svg2"
   version="1.1"
   inkscape:version="0.48.4 r9939"
   sodipodi:docname="squeezeZ.svg">
  <defs
     id="defs4" />
  <sodipodi:namedview
     id="base"
     pagecolor="#ffffff"
     bordercolor="#666666"
     borderopacity="1.0"
     inkscape:pageopacity="0.0"
     inkscape:pageshadow="2"
     inkscape:zoom="7.9195959"
     inkscape:cx="46.676418"
     inkscape:cy="46.071279"
     inkscape:document-units="px"
     inkscape:current-layer="layer1"
     showgrid="false"
     fit-margin-top="0"
     fit-margin-left="0"
     fit-margin-right="0"
     fit-margin-bottom="0"
     inkscape:window-width="1280"
     inkscape:window-height="962"
     inkscape:window-x="-8"
     inkscape:window-y="-8"
     inkscape:window-maximized="1" />
  <metadata
     id="metadata7">
    <rdf:RDF>
      <cc:Work
         rdf:about="">
        <dc:format>image/svg+xml</dc:format>
        <dc:type
           rdf:resource="http://purl.org/dc/dcmitype/StillImage" />
        <dc:title />
      </cc:Work>
    </rdf:RDF>
  </metadata>
  <g
     inkscape:label="Layer 1"
     inkscape:groupmode="layer"
     id="layer1"
     transform="translate(-295.3615,-151.7859)">
    <path
       inkscape:connector-curvature="0"
       id="path3023"
       d="m 334.2433,190.13613 c -3.42425,-1.83454 -6.22591,-3.447 -6.22591,-3.58326 0,-0.13626 1.11238,-0.83166 2.47196,-1.54533 l 2.47197,-1.29759 3.72173,2.01338 c 2.04695,1.10735 3.82921,2.01337 3.96057,2.01337 0.13136,0 0.41438,-0.12103 0.62892,-0.26897 0.67357,-0.46445 6.78894,-3.68617 6.99698,-3.68617 0.39159,0 4.863,2.54593 4.863,2.7689 0,0.12542 -1.15689,0.85145 -2.57084,1.61338 -5.1086,2.75284 -9.92631,5.30782 -10.00852,5.30782 -0.0462,0 -2.88561,-1.50099 -6.30986,-3.33553 z m -0.24825,-7.09209 c -3.34703,-1.80929 -6.05551,-3.37959 -6.01887,-3.48955 0.0782,-0.23451 4.07734,-2.47307 4.44321,-2.4871 0.13701,-0.005 1.97647,0.92484 4.08769,2.06688 2.11122,1.14205 3.94368,2.07646 4.07214,2.07646 0.12847,0 1.95292,-0.93441 4.05435,-2.07646 2.10143,-1.14204 3.93898,-2.07215 4.08342,-2.06688 0.39909,0.0144 4.37933,2.2549 4.46553,2.51356 0.0415,0.1245 -0.48671,0.51001 -1.17382,0.85669 -0.68709,0.34669 -3.44893,1.81934 -6.1374,3.27255 -2.68847,1.45322 -5.09123,2.63799 -5.33944,2.63286 -0.24822,-0.005 -3.18977,-1.48972 -6.53681,-3.29901 z m 0.25167,-6.37359 c -3.42613,-1.84298 -6.22933,-3.45553 -6.22933,-3.58347 0,-0.20618 12.17613,-6.90578 12.55084,-6.90578 0.29469,0 12.5473,6.67274 12.61266,6.86883 0.0367,0.11014 -1.24952,0.91221 -2.85829,1.78239 -4.84786,2.62218 -9.68367,5.19186 -9.76758,5.19032 -0.0434,-5.5e-4 -2.88215,-1.50933 -6.3083,-3.35229 z"
       style="fill:#0b0b0b" />
    <path
       inkscape:connector-curvature="0"
       id="path3015"
       d="m 337.02589,221.29723 c -0.20099,-0.20099 -0.36543,-0.941 -0.36543,-1.64448 0,-1.21006 -0.19406,-1.27903 -3.59907,-1.27903 -1.97949,0 -4.1074,0.27205 -4.72869,0.60455 -0.82427,0.44113 -1.49062,0.44008 -2.46512,-0.004 -1.0713,-0.48812 -1.30157,-0.9492 -1.16401,-2.3308 0.23291,-2.33932 1.52528,-3.07954 3.88616,-2.22583 1.01461,0.36689 3.12835,0.66706 4.69722,0.66706 2.45598,0 2.91662,-0.17144 3.31387,-1.23335 1.31087,-3.50405 1.30019,-3.56745 -0.71249,-4.2317 -1.65154,-0.54505 -2.52857,-0.43001 -6.46208,0.84761 -9.80269,3.18385 -17.71093,2.20426 -22.28763,-2.76088 -3.7631,-4.08249 -3.9981,-5.69723 -3.8071,-26.16004 0.16165,-17.31899 0.19455,-17.77918 1.47315,-20.60852 2.85116,-6.3092 9.29184,-9.93713 16.35651,-9.21333 4.29745,0.44028 10.98952,2.5371 14.739,4.61815 4.55774,2.52964 10.07895,6.85737 10.07896,7.90026 1e-5,0.84541 -0.61021,0.95928 -5.14038,0.95928 -3.90051,0 -5.30498,-0.19832 -5.82278,-0.82224 -0.53945,-0.65 -2.10651,-0.82224 -7.48082,-0.82224 -6.54843,0 -6.81536,0.0453 -7.25863,1.23336 -0.648,1.73671 -0.64742,33.84906 5.5e-4,35.05997 0.46868,0.87578 1.405,0.98145 8.69598,0.98145 4.49391,0 8.31028,-0.22578 8.48084,-0.50174 0.17055,-0.27597 -0.32704,-1.25893 -1.10575,-2.18439 -2.52183,-2.99703 -1.80997,-3.61769 4.14931,-3.61769 4.50855,0 5.21681,0.12629 5.37715,0.95886 0.10155,0.52737 -0.32673,1.609 -0.95178,2.4036 -1.4287,1.81629 -1.44056,2.73396 -0.0402,3.10019 0.97491,0.25494 1.09633,0.7477 1.09633,4.4492 0,3.04996 -0.19047,4.1625 -0.71261,4.1625 -1.49471,0 -1.89963,1.09474 -1.17823,3.18543 l 0.69773,2.02208 3.47438,-0.0775 c 1.91092,-0.0427 4.25415,-0.25247 5.20719,-0.46619 1.4746,-0.33069 1.86839,-0.18166 2.64271,1.00012 0.69785,1.06504 0.77321,1.64412 0.32338,2.48465 -0.75308,1.40713 -2.44207,1.93797 -3.81992,1.20057 -0.59454,-0.3182 -2.70055,-0.57853 -4.68005,-0.57853 l -3.59906,0 0,1.64448 0,1.64447 -3.47167,0 c -1.90943,0 -3.63612,-0.16445 -3.83711,-0.36544 z"
       style="fill:#0e0e0e"
       sodipodi:nodetypes="cssscsssssssssssssssscssssssssssccssssscccscc" />
  </g>
</svg>
