<?xml version="1.0" encoding="UTF-8" standalone="no"?>
<!-- Created with Inkscape (http://www.inkscape.org/) -->

<svg
   xmlns:dc="http://purl.org/dc/elements/1.1/"
   xmlns:cc="http://creativecommons.org/ns#"
   xmlns:rdf="http://www.w3.org/1999/02/22-rdf-syntax-ns#"
   xmlns:svg="http://www.w3.org/2000/svg"
   xmlns="http://www.w3.org/2000/svg"
   xmlns:sodipodi="http://sodipodi.sourceforge.net/DTD/sodipodi-0.dtd"
   xmlns:inkscape="http://www.inkscape.org/namespaces/inkscape"
   width="69.277"
   height="69.723999"
   id="svg2"
   version="1.1"
   inkscape:version="0.91 r13725"
   sodipodi:docname="camera.svg">
  <defs
     id="defs4" />
  <sodipodi:namedview
     id="base"
     pagecolor="#ffffff"
     bordercolor="#666666"
     borderopacity="1.0"
     inkscape:pageopacity="0.0"
     inkscape:pageshadow="2"
     inkscape:zoom="1.979899"
     inkscape:cx="78.342238"
     inkscape:cy="129.47983"
     inkscape:document-units="px"
     inkscape:current-layer="layer1"
     showgrid="false"
     fit-margin-top="0"
     fit-margin-left="0"
     fit-margin-right="0"
     fit-margin-bottom="0"
     inkscape:window-width="1280"
     inkscape:window-height="962"
     inkscape:window-x="-8"
     inkscape:window-y="-8"
     inkscape:window-maximized="1" />
  <metadata
     id="metadata7">
    <rdf:RDF>
      <cc:Work
         rdf:about="">
        <dc:format>image/svg+xml</dc:format>
        <dc:type
           rdf:resource="http://purl.org/dc/dcmitype/StillImage" />
        <dc:title />
      </cc:Work>
    </rdf:RDF>
  </metadata>
  <g
     inkscape:label="Layer 1"
     inkscape:groupmode="layer"
     id="layer1"
     transform="translate(-295.3615,-151.7859)">
    <path
       style="fill:#808080;fill-opacity:1"
       d="m 304.19389,221.02879 c -4.4379,-0.95167 -7.6598,-4.18578 -8.56774,-8.60022 -0.18766,-0.91238 -0.21419,-2.82445 -0.21419,-15.43594 l 0,-14.39456 6.95002,0 c 3.82252,0 6.98207,0.0519 7.02124,0.11523 0.0392,0.0634 0.005,0.50417 -0.0757,0.97954 -0.19999,1.17665 -0.19458,4.67532 0.01,5.99833 1.14501,7.43149 6.17894,13.74939 13.07855,16.41442 2.63445,1.01758 4.68466,1.39323 7.60391,1.39323 2.91925,0 4.96946,-0.37565 7.60392,-1.39323 2.58072,-0.99683 4.85058,-2.46973 6.96431,-4.51913 3.28605,-3.18602 5.40859,-7.31545 6.11423,-11.89529 0.20385,-1.32301 0.20925,-4.82168 0.01,-5.99833 -0.0808,-0.47537 -0.11485,-0.91615 -0.0757,-0.97954 0.0392,-0.0634 3.19872,-0.11523 7.02123,-0.11523 l 6.95002,0 0,14.39456 c 0,15.75876 0.0203,15.31892 -0.80198,17.4421 -1.0044,2.59364 -3.40824,4.99748 -6.00187,6.00187 -2.18881,0.84763 -0.61802,0.80304 -27.8791,0.79125 -20.69183,-0.008 -24.97796,-0.0421 -25.70974,-0.19906 z m 24.04899,-21.62342 c -1.08522,-0.19931 -2.34349,-0.54809 -3.13769,-0.86974 -2.99416,-1.21263 -5.77764,-3.99611 -6.99027,-6.99027 -0.69362,-1.71264 -0.88323,-2.76329 -0.88323,-4.89409 0,-2.13079 0.18961,-3.18145 0.88323,-4.89408 1.21263,-2.99417 3.99611,-5.77764 6.99027,-6.99028 1.71263,-0.69361 2.76329,-0.88322 4.89409,-0.88322 2.13079,0 3.18145,0.18961 4.89408,0.88322 2.99416,1.21264 5.77764,3.99611 6.99027,6.99028 0.69362,1.71263 0.88323,2.76329 0.88323,4.89408 0,2.1308 -0.18961,3.18145 -0.88323,4.89409 -1.20028,2.96365 -3.99934,5.77898 -6.92703,6.96728 -1.5868,0.64405 -2.63142,0.85163 -4.552,0.90453 -1.00317,0.0277 -1.97594,0.0223 -2.16172,-0.0118 z m -32.83092,-31.1343 c 0,-6.97013 0.0415,-7.44558 0.8248,-9.45178 1.01825,-2.60792 3.44937,-5.00696 6.07572,-5.99551 2.12317,-0.79916 0.68993,-0.75983 27.6868,-0.75983 27.14834,0 25.59685,-0.0448 27.78346,0.802 2.59363,1.00439 4.99747,3.40823 6.00187,6.00187 0.75862,1.95899 0.80198,2.4674 0.80198,9.40325 l 0,6.35571 -8.70765,0 -8.70767,0 -0.9312,-1.11463 c -3.79638,-4.54417 -8.69616,-7.14556 -14.47895,-7.68717 -1.38744,-0.12995 -2.13625,-0.12995 -3.52369,0 -5.79133,0.54241 -10.71733,3.16357 -14.52519,7.72895 l -0.89484,1.07285 -8.70272,0 -8.70272,0 0,-6.35571 z m 62.65696,-1.20954 c 0.2422,-0.14766 0.56115,-0.46662 0.70882,-0.70881 0.2488,-0.40806 0.2685,-0.68588 0.26897,-3.79092 5.4e-4,-3.61016 -0.0223,-3.74665 -0.74038,-4.41804 l -0.36124,-0.33777 -3.53592,-0.043 c -3.94719,-0.0479 -4.15037,-0.0106 -4.69385,0.86903 -0.25929,0.41954 -0.2713,0.62619 -0.23324,4.01627 0.0444,3.95302 0.0177,3.8333 0.98586,4.43131 0.3663,0.22626 0.73047,0.25036 3.78299,0.25036 3.13257,0 3.40962,-0.0195 3.81799,-0.26847 z"
       id="path3131"
       inkscape:connector-curvature="0" />
  </g>
</svg>
