<?xml version="1.0" encoding="UTF-8" standalone="no"?>
<!-- Created with Inkscape (http://www.inkscape.org/) -->

<svg
   xmlns:dc="http://purl.org/dc/elements/1.1/"
   xmlns:cc="http://creativecommons.org/ns#"
   xmlns:rdf="http://www.w3.org/1999/02/22-rdf-syntax-ns#"
   xmlns:svg="http://www.w3.org/2000/svg"
   xmlns="http://www.w3.org/2000/svg"
   xmlns:sodipodi="http://sodipodi.sourceforge.net/DTD/sodipodi-0.dtd"
   xmlns:inkscape="http://www.inkscape.org/namespaces/inkscape"
   width="69.277"
   height="69.723999"
   id="svg2"
   version="1.1"
   inkscape:version="0.48.4 r9939"
   sodipodi:docname="linkView.svg">
  <defs
     id="defs4" />
  <sodipodi:namedview
     id="base"
     pagecolor="#ffffff"
     bordercolor="#666666"
     borderopacity="1.0"
     inkscape:pageopacity="0.0"
     inkscape:pageshadow="2"
     inkscape:zoom="3.959798"
     inkscape:cx="42.686346"
     inkscape:cy="47.842491"
     inkscape:document-units="px"
     inkscape:current-layer="g5572"
     showgrid="false"
     fit-margin-top="0"
     fit-margin-left="0"
     fit-margin-right="0"
     fit-margin-bottom="0"
     inkscape:window-width="1280"
     inkscape:window-height="962"
     inkscape:window-x="-8"
     inkscape:window-y="-8"
     inkscape:window-maximized="1" />
  <metadata
     id="metadata7">
    <rdf:RDF>
      <cc:Work
         rdf:about="">
        <dc:format>image/svg+xml</dc:format>
        <dc:type
           rdf:resource="http://purl.org/dc/dcmitype/StillImage" />
        <dc:title></dc:title>
      </cc:Work>
    </rdf:RDF>
  </metadata>
  <g
     inkscape:label="Layer 1"
     inkscape:groupmode="layer"
     id="layer1"
     transform="translate(-295.3615,-151.7859)">
    <g
       id="g5572"
       transform="translate(0.04922171,-0.23700219)">
      <g
         id="g2997"
         transform="matrix(0.8940193,0,0,0.8940193,44.668781,16.079113)">
        <rect
           y="154.58133"
           x="314.64722"
           height="9.2857141"
           width="32.32143"
           id="rect2985"
           style="fill:#000000;fill-opacity:1;stroke:#000000;stroke-width:2;stroke-miterlimit:4;stroke-opacity:1;stroke-dasharray:none" />
        <rect
           style="fill:#333333;fill-opacity:1;stroke:#000000;stroke-width:2;stroke-miterlimit:4;stroke-opacity:1;stroke-dasharray:none"
           id="rect2987"
           width="32.32143"
           height="9.2857141"
           x="314.64722"
           y="164.58133" />
        <rect
           y="174.58133"
           x="314.64722"
           height="9.2857141"
           width="32.32143"
           id="rect2989"
           style="fill:#4d4d4d;fill-opacity:1;stroke:#000000;stroke-width:2;stroke-miterlimit:4;stroke-opacity:1;stroke-dasharray:none" />
        <rect
           style="fill:#808080;fill-opacity:1;stroke:#000000;stroke-width:2;stroke-miterlimit:4;stroke-opacity:1;stroke-dasharray:none"
           id="rect2991"
           width="32.32143"
           height="9.2857141"
           x="314.64722"
           y="184.58133" />
        <rect
           y="194.58133"
           x="314.64722"
           height="9.2857141"
           width="32.32143"
           id="rect2993"
           style="fill:#b3b3b3;fill-opacity:1;stroke:#000000;stroke-width:2;stroke-miterlimit:4;stroke-opacity:1;stroke-dasharray:none" />
        <rect
           style="fill:#cccccc;fill-opacity:1;stroke:#000000;stroke-width:2;stroke-miterlimit:4;stroke-opacity:1;stroke-dasharray:none"
           id="rect2995"
           width="32.32143"
           height="9.2857141"
           x="314.64722"
           y="204.58133" />
      </g>
      <path
         inkscape:connector-curvature="0"
         id="path3082"
         d="m 311.2218,220.0653 c -4.47212,-0.61371 -8.15769,-3.64963 -9.6389,-7.93991 -0.42182,-1.22183 -0.57729,-2.24716 -0.5745,-3.78928 0.004,-2.68225 0.68004,-4.86287 2.23795,-7.22765 0.59241,-0.89923 1.33954,-1.68978 6.3972,-6.76902 3.14953,-3.16299 6.09067,-6.03614 6.53583,-6.38476 3.03949,-2.38032 6.84702,-3.33415 10.47167,-2.62325 2.19198,0.42991 4.26553,1.49476 5.76193,2.959 0.67948,0.66487 0.9788,1.19889 1.09339,1.95079 0.21866,1.43477 -0.43854,2.71768 -1.74598,3.40832 -0.43825,0.2315 -0.62755,0.26724 -1.41644,0.26742 -1.06489,2e-4 -1.38852,-0.13403 -2.46709,-1.0237 -0.79786,-0.6581 -1.50931,-1.01213 -2.42342,-1.20587 -0.87531,-0.18551 -1.46574,-0.18257 -2.42369,0.0121 -1.08416,0.22029 -2.24932,0.80763 -3.15746,1.59167 -1.18762,1.02535 -10.85755,10.78906 -11.22424,11.33312 -0.74305,1.10245 -1.21492,2.54333 -1.21857,3.72098 -0.002,0.71603 0.3194,1.98528 0.66308,2.61673 0.33777,0.62059 1.08914,1.40863 1.77979,1.86662 1.8527,1.22861 4.36405,1.11 6.53397,-0.30861 0.32035,-0.20944 1.97395,-1.76007 3.67462,-3.44585 1.70068,-1.68577 3.16629,-3.06504 3.25693,-3.06504 0.0906,0 0.18938,0.0398 0.21944,0.0884 0.0876,0.14173 1.07872,0.58305 1.83177,0.81565 1.58169,0.48853 3.75269,0.64921 4.95404,0.36664 0.33341,-0.0784 0.62736,-0.12144 0.65322,-0.0956 0.0786,0.0786 -9.19712,9.31738 -10.0269,9.98685 -2.28082,1.84018 -4.94468,2.85019 -7.77472,2.94781 -0.69559,0.024 -1.58339,-1.1e-4 -1.97292,-0.0535 z m 16.20126,-16.07917 c -2.48785,-0.31267 -4.578,-1.23622 -6.45632,-2.85274 -1.01055,-0.86973 -1.41685,-1.67894 -1.41144,-2.81113 0.005,-1.18117 0.66568,-2.23311 1.76287,-2.80958 0.46086,-0.24214 0.64137,-0.27694 1.43762,-0.27712 1.06609,-2e-4 1.41394,0.14404 2.4788,1.0282 1.04783,0.86998 2.2984,1.3414 3.57069,1.34601 1.45005,0.005 3.1859,-0.68105 4.42217,-1.74837 1.18763,-1.02535 10.85756,-10.78906 11.22423,-11.33313 0.74305,-1.10244 1.21493,-2.54333 1.21858,-3.72097 0.002,-0.72764 -0.3209,-1.98765 -0.67897,-2.64731 -0.84983,-1.5656 -2.81096,-2.70588 -4.65383,-2.70588 -0.71075,0 -1.94591,0.29618 -2.70888,0.64955 -1.02363,0.47408 -1.89201,1.22758 -4.95689,4.30108 -1.50207,1.50629 -2.77837,2.73871 -2.83623,2.73871 -0.0579,0 -0.39964,-0.1563 -0.75951,-0.34733 -0.81301,-0.43155 -2.08456,-0.80443 -3.31105,-0.97094 -1.02842,-0.13959 -2.8295,-0.0865 -3.30138,0.0971 -0.16075,0.0627 -0.3181,0.088 -0.34969,0.0564 -0.0897,-0.0897 9.35794,-9.50337 10.15244,-10.11592 4.92162,-3.79447 11.29178,-3.80867 15.72315,-0.0351 3.88627,3.30943 5.16336,8.63315 3.2537,13.56341 -0.41252,1.06503 -0.63266,1.48185 -1.40445,2.65927 -0.58702,0.89553 -1.32052,1.67191 -6.38605,6.75939 -3.14758,3.16122 -6.07968,6.02955 -6.51576,6.37407 -1.61167,1.27321 -3.58987,2.20497 -5.50497,2.59286 -1.16086,0.23514 -3.0279,0.33263 -4.00883,0.20935 z"
         style="fill:#000000;stroke:#ffffff;stroke-width:2;stroke-opacity:1;stroke-miterlimit:4;stroke-dasharray:none" />
    </g>
  </g>
</svg>
