<?xml version="1.0" encoding="UTF-8" standalone="no"?>
<!-- Created with Inkscape (http://www.inkscape.org/) -->

<svg
   xmlns:dc="http://purl.org/dc/elements/1.1/"
   xmlns:cc="http://creativecommons.org/ns#"
   xmlns:rdf="http://www.w3.org/1999/02/22-rdf-syntax-ns#"
   xmlns:svg="http://www.w3.org/2000/svg"
   xmlns="http://www.w3.org/2000/svg"
   xmlns:sodipodi="http://sodipodi.sourceforge.net/DTD/sodipodi-0.dtd"
   xmlns:inkscape="http://www.inkscape.org/namespaces/inkscape"
   width="69.277"
   height="69.723999"
   id="svg2"
   version="1.1"
   inkscape:version="0.48.4 r9939"
   sodipodi:docname="draw.svg">
  <defs
     id="defs4" />
  <sodipodi:namedview
     id="base"
     pagecolor="#ffffff"
     bordercolor="#666666"
     borderopacity="1.0"
     inkscape:pageopacity="0.0"
     inkscape:pageshadow="2"
     inkscape:zoom="2.8"
     inkscape:cx="-4.4553995"
     inkscape:cy="33.824145"
     inkscape:document-units="px"
     inkscape:current-layer="layer1"
     showgrid="false"
     fit-margin-top="0"
     fit-margin-left="0"
     fit-margin-right="0"
     fit-margin-bottom="0"
     inkscape:window-width="1280"
     inkscape:window-height="962"
     inkscape:window-x="-8"
     inkscape:window-y="-8"
     inkscape:window-maximized="1" />
  <metadata
     id="metadata7">
    <rdf:RDF>
      <cc:Work
         rdf:about="">
        <dc:format>image/svg+xml</dc:format>
        <dc:type
           rdf:resource="http://purl.org/dc/dcmitype/StillImage" />
        <dc:title></dc:title>
      </cc:Work>
    </rdf:RDF>
  </metadata>
  <g
     inkscape:label="Layer 1"
     inkscape:groupmode="layer"
     id="layer1"
     transform="translate(-295.3615,-151.7859)">
    <path
       inkscape:connector-curvature="0"
       id="path3931"
       d="m 311.27244,221.04427 c -0.22454,-0.22454 -0.40826,-1.27653 -0.40826,-2.33775 0,-1.63332 -0.37314,-2.16506 -2.43085,-3.46403 -2.42194,-1.5289 -2.4381,-1.53064 -4.4012,-0.47344 -2.56506,1.38138 -3.2468,0.91724 -5.88299,-4.00515 l -2.10134,-3.92371 2.17888,-1.77713 c 1.82767,-1.49068 2.17888,-2.13503 2.17888,-3.99753 0,-1.91083 -0.28352,-2.39561 -2.03362,-3.47724 -1.1185,-0.69126 -2.03363,-1.53722 -2.03363,-1.87991 0,-0.87466 3.96131,-7.86362 4.72436,-8.33521 0.34585,-0.21375 1.65739,-0.0492 2.91454,0.36573 2.06588,0.6818 2.49306,0.63629 4.4411,-0.47326 1.64063,-0.93445 2.22474,-1.68699 2.44587,-3.15119 l 0.29052,-1.92358 5.22932,0 5.22931,0 0.19667,1.74311 c 0.23404,2.07434 0.91685,2.99051 3.05144,4.09434 1.41853,0.73356 1.72933,0.70891 2.88752,-0.22893 l 1.29789,-1.05097 -2.40943,-4.05567 c -1.32519,-2.23063 -2.40943,-4.47221 -2.40943,-4.9813 0,-0.50909 0.91513,-1.46556 2.03362,-2.12549 1.79582,-1.05956 2.03362,-1.47709 2.03362,-3.57063 0,-2.0275 -0.25259,-2.51406 -1.7446,-3.36054 -0.95953,-0.54439 -1.89652,-1.46072 -2.0822,-2.03629 -0.35828,-1.1106 4.02865,-9.12161 4.9951,-9.12161 0.29446,0 1.40572,0.41504 2.46948,0.92231 1.83118,0.87323 2.04887,0.85459 4.09087,-0.35022 2.0044,-1.18262 2.39557,-1.85676 2.86057,-4.92985 0.16082,-1.06281 0.62181,-1.16207 5.39719,-1.16207 l 5.22136,0 0.29052,2.5859 c 0.24463,2.17746 0.59684,2.7642 2.2299,3.71475 1.83395,1.06749 2.04824,1.07695 3.9417,0.17402 1.10127,-0.52516 2.22511,-0.95484 2.49741,-0.95484 0.5455,0 5.27582,7.71338 5.27582,8.60288 0,0.30567 -0.91513,1.25376 -2.03362,2.10687 -1.67807,1.27993 -2.03363,1.9269 -2.03364,3.70043 -3e-5,1.76426 0.38346,2.47128 2.14055,3.94649 l 2.14057,1.79717 -1.91784,3.43214 c -3.04893,5.45633 -3.1675,5.54274 -6.10935,4.45241 -2.38985,-0.88574 -2.55656,-0.87206 -4.27342,0.35045 -1.24711,0.88802 -1.84121,1.83807 -1.96758,3.1464 l -0.18102,1.87426 -5.09355,0.16802 c -5.36741,0.17705 -5.21755,0.24807 -5.87239,-2.78267 -0.34767,-1.6091 -3.65807,-3.72289 -5.31914,-3.39644 -2.24382,0.44099 -2.18,1.8189 0.28062,6.05935 1.31346,2.26353 2.24474,4.48599 2.06951,4.9388 -0.17522,0.45281 -1.0989,1.2687 -2.05261,1.81308 -1.47018,0.8392 -1.734,1.343 -1.734,3.31138 0,1.97044 0.30759,2.55621 2.03362,3.87271 1.11849,0.85312 2.03362,1.83171 2.03362,2.17465 0,1.21868 -4.71356,8.5351 -5.49869,8.5351 -0.43919,0 -1.57484,-0.44555 -2.52368,-0.99011 -1.68618,-0.96773 -1.77182,-0.95453 -3.78892,0.58399 -1.6127,1.23007 -2.10312,2.04966 -2.24391,3.75003 l -0.18015,2.17592 -4.96631,0.16617 c -2.73147,0.0914 -5.15003,-0.0175 -5.37458,-0.2421 z m 8.35495,-4.4335 c 0.19388,-1.20192 0.45856,-2.26661 0.58819,-2.366 0.12962,-0.0994 1.50735,-0.90932 3.06162,-1.79987 2.37898,-1.36308 3.04956,-1.51728 4.23984,-0.97495 2.2642,1.03164 2.86347,0.78254 3.95827,-1.64531 l 1.03244,-2.28953 -1.46837,-1.34194 c -1.14749,-1.0487 -1.53657,-2.08622 -1.78046,-4.74786 -0.297,-3.24108 -0.22525,-3.48526 1.48241,-5.04496 1.68071,-1.53509 1.7482,-1.75084 1.06429,-3.40198 -1.14242,-2.75802 -1.97629,-3.18576 -4.08489,-2.09535 -1.78866,0.92495 -1.87392,0.90543 -4.94251,-1.13138 -2.32699,-1.54457 -3.16914,-2.47814 -3.30574,-3.6646 -0.17248,-1.49817 -0.35422,-1.59203 -3.08276,-1.59203 -2.76512,0 -2.91341,0.0805 -3.20043,1.73755 -0.20805,1.20107 -0.8377,1.9909 -2.03933,2.5581 -0.9561,0.45131 -2.3526,1.29624 -3.10334,1.87763 -1.25638,0.97297 -1.53218,0.98721 -3.4665,0.179 -2.01365,-0.84136 -2.14447,-0.82245 -3.12844,0.45207 -1.85065,2.39709 -1.90693,3.48249 -0.24911,4.80438 1.37278,1.09461 1.52713,1.607 1.52713,5.06939 0,3.4961 -0.14201,3.95514 -1.53818,4.97218 -1.66079,1.2098 -1.63577,2.80011 0.0791,5.02855 0.78229,1.01656 1.05948,1.04642 3.18914,0.34357 2.04131,-0.6737 2.46223,-0.65225 3.37285,0.17185 0.57226,0.51788 2.01139,1.34728 3.19808,1.84311 1.87517,0.7835 2.15761,1.15403 2.15761,2.83049 0,2.53456 0.34054,2.7892 3.45743,2.58523 2.54906,-0.1668 2.63988,-0.23861 2.98164,-2.35734 z m -8.24765,-10.1962 c -1.46977,-1.31323 -1.88181,-2.20357 -2.10767,-4.55416 -0.25422,-2.64571 -0.1076,-3.11903 1.55159,-5.00873 2.11197,-2.40541 4.43882,-3.11398 7.21601,-2.19742 3.32653,1.09785 4.73573,3.12286 4.73573,6.80523 0,2.87607 -0.19024,3.36653 -1.89753,4.89199 -1.55694,1.39113 -2.41569,1.69544 -4.78437,1.69544 -2.34319,0 -3.23089,-0.3074 -4.71376,-1.63235 z m 6.69112,-1.35291 c 0.79805,-0.36362 1.72006,-1.43295 2.04891,-2.37629 1.5816,-4.53697 -4.50554,-7.91626 -7.47031,-4.14717 -1.5867,2.01717 -1.519,3.23514 0.29999,5.3969 1.61019,1.91359 2.81325,2.17822 5.12141,1.12656 z m 29.29421,-18.10167 c 0.23796,-2.07318 4.86373,-5.22689 7.07673,-4.82469 0.79892,0.1452 1.93017,0.34783 2.51389,0.4503 0.72244,0.12682 1.46452,-0.51922 2.32414,-2.02333 l 1.26283,-2.20965 -1.69763,-1.37796 c -1.48643,-1.20652 -1.7123,-1.79659 -1.81555,-4.74293 -0.10761,-3.07063 0.0364,-3.50908 1.64575,-5.01249 1.75923,-1.64336 1.76125,-1.65265 0.79961,-3.66923 -1.06991,-2.24364 -2.4426,-3.06562 -3.4452,-2.06303 -1.06775,1.06776 -2.55143,0.76957 -5.64636,-1.13475 -2.57362,-1.58357 -2.9139,-2.02331 -2.9139,-3.76566 0,-2.17144 -1.20555,-2.84481 -4.43281,-2.476 -1.47163,0.16818 -1.6895,0.45065 -1.85014,2.39874 -0.14477,1.75577 -0.50185,2.34511 -1.7431,2.87684 -0.85856,0.36781 -2.3124,1.17988 -3.23073,1.80462 -1.42747,0.97108 -1.93924,1.03841 -3.52747,0.4641 -2.73042,-0.98733 -2.95032,-0.89581 -4.12929,1.71869 l -1.07795,2.39047 1.57074,1.14421 c 1.44085,1.04958 1.57074,1.47099 1.57074,5.09616 0,3.57426 -0.13883,4.04292 -1.45259,4.90373 -1.80546,1.18298 -1.83483,2.4737 -0.10547,4.63488 1.15612,1.44481 1.51149,1.58522 2.57357,1.01681 1.52976,-0.8187 4.02285,-0.85747 4.50945,-0.0701 0.20033,0.32414 1.39236,1.11385 2.64895,1.75491 1.66447,0.84916 2.28472,1.53043 2.28472,2.50952 0,1.91165 0.48963,2.19433 3.46457,2.00018 2.40435,-0.15691 2.65267,-0.31477 2.8225,-1.79431 z m -6.68525,-8.78489 c -2.28364,-1.03068 -3.66907,-3.58422 -3.66907,-6.76262 0,-1.96732 0.36361,-2.77471 1.97552,-4.38662 1.64233,-1.64233 2.4018,-1.97515 4.50302,-1.97334 4.88208,0.004 8.09601,3.72196 7.2261,8.35893 -0.78131,4.16476 -5.93852,6.61277 -10.03557,4.76365 z m 6.35378,-3.11543 c 1.63345,-1.43436 1.34939,-5.0151 -0.51413,-6.48095 -1.75106,-1.37738 -2.48634,-1.46682 -4.50331,-0.54783 -2.12712,0.96918 -3.12337,3.73254 -2.04093,5.66105 1.62181,2.88946 4.6559,3.47739 7.05837,1.36773 z"
       style="fill:#808080;fill-opacity:1" />
  </g>
</svg>
