<?xml version="1.0" encoding="UTF-8" standalone="no"?>
<!-- Created with Inkscape (http://www.inkscape.org/) -->

<svg
   xmlns:dc="http://purl.org/dc/elements/1.1/"
   xmlns:cc="http://creativecommons.org/ns#"
   xmlns:rdf="http://www.w3.org/1999/02/22-rdf-syntax-ns#"
   xmlns:svg="http://www.w3.org/2000/svg"
   xmlns="http://www.w3.org/2000/svg"
   xmlns:sodipodi="http://sodipodi.sourceforge.net/DTD/sodipodi-0.dtd"
   xmlns:inkscape="http://www.inkscape.org/namespaces/inkscape"
   width="69.277"
   height="69.723999"
   id="svg2"
   version="1.1"
   inkscape:version="0.48.4 r9939"
   sodipodi:docname="view.svg">
  <defs
     id="defs4" />
  <sodipodi:namedview
     id="base"
     pagecolor="#ffffff"
     bordercolor="#666666"
     borderopacity="1.0"
     inkscape:pageopacity="0.0"
     inkscape:pageshadow="2"
     inkscape:zoom="5.6"
     inkscape:cx="44.486421"
     inkscape:cy="48.855369"
     inkscape:document-units="px"
     inkscape:current-layer="layer1"
     showgrid="false"
     fit-margin-top="0"
     fit-margin-left="0"
     fit-margin-right="0"
     fit-margin-bottom="0"
     inkscape:window-width="1280"
     inkscape:window-height="1002"
     inkscape:window-x="1272"
     inkscape:window-y="-8"
     inkscape:window-maximized="1" />
  <metadata
     id="metadata7">
    <rdf:RDF>
      <cc:Work
         rdf:about="">
        <dc:format>image/svg+xml</dc:format>
        <dc:type
           rdf:resource="http://purl.org/dc/dcmitype/StillImage" />
        <dc:title />
      </cc:Work>
    </rdf:RDF>
  </metadata>
  <g
     inkscape:label="Layer 1"
     inkscape:groupmode="layer"
     id="layer1"
     transform="translate(-295.3615,-151.7859)">
    <path
       inkscape:connector-curvature="0"
       id="path5538"
       d="m 327.72446,208.15488 c -3.17398,-0.31611 -4.68166,-0.56274 -6.95393,-1.13752 -9.72574,-2.46018 -18.5916,-8.84451 -23.73249,-17.08985 -1.7031,-2.73155 -1.8341,-3.35073 -1.03108,-4.87332 1.43415,-2.7192 3.86859,-5.91529 6.46238,-8.4842 6.02351,-5.96574 13.78919,-9.86253 22.23142,-11.15565 1.56638,-0.23993 2.55917,-0.29957 5.11663,-0.30735 3.36557,-0.0102 4.71401,0.11171 7.55579,0.6834 7.36057,1.48073 14.34737,5.17007 19.76637,10.43753 2.87576,2.79532 4.78094,5.20875 6.54694,8.29345 1.12096,1.95799 1.08131,2.43836 -0.40486,4.90438 -2.52315,4.18673 -6.3824,8.31194 -10.59853,11.32893 -5.31581,3.8039 -11.60671,6.30769 -17.9372,7.13904 -1.57712,0.20711 -5.93617,0.36925 -7.02144,0.26116 z m 4.74012,-4.38005 c 5.8753,-0.46659 11.6429,-2.48066 16.65474,-5.8159 2.38318,-1.58593 4.0682,-2.98273 5.94887,-4.93126 1.97035,-2.04147 4.72536,-5.78095 4.72536,-6.41393 0,-0.29945 -1.31305,-2.35646 -2.39035,-3.74467 -1.2439,-1.60293 -3.88226,-4.2829 -5.50877,-5.59565 -5.02498,-4.05566 -11.00914,-6.66975 -17.41859,-7.60905 -2.26667,-0.33219 -6.82877,-0.3299 -9.04685,0.005 -2.01866,0.30435 -5.2623,1.11848 -7.03024,1.76452 -3.34246,1.2214 -7.46222,3.55815 -10.32061,5.85391 -2.65743,2.13436 -5.73999,5.59725 -7.34314,8.24917 l -0.65629,1.08562 0.64599,1.03646 c 1.76194,2.82692 4.73538,6.16411 7.42074,8.32856 6.96329,5.61255 15.85485,8.45988 24.31914,7.78768 z m -4.94266,-2.22166 c -3.3937,-0.57575 -6.76873,-2.45235 -8.93298,-4.96694 -5.78886,-6.72597 -4.74595,-16.75747 2.29126,-22.03898 8.26784,-6.20512 20.13499,-2.47213 23.44004,7.37341 1.97319,5.87805 -0.0319,12.58374 -4.93592,16.50744 -1.24921,0.9995 -3.53329,2.22035 -4.9277,2.63389 -2.26079,0.67048 -4.81249,0.85121 -6.9347,0.49118 z m 5.60365,-2.36432 c 1.24794,-0.31696 3.31593,-1.2742 4.3098,-1.99495 2.46656,-1.78874 4.31676,-4.49515 5.09905,-7.45871 0.39109,-1.48159 0.42531,-4.54111 0.067,-5.98894 -0.60611,-2.44899 -1.68453,-4.36737 -3.4671,-6.16749 -1.85064,-1.86885 -3.79162,-2.97781 -6.29731,-3.5979 -1.28147,-0.31713 -4.48769,-0.31713 -5.76915,0 -2.45551,0.60766 -4.4382,1.72911 -6.23661,3.52752 -1.79763,1.79763 -2.91685,3.77582 -3.52854,6.2366 -0.35019,1.40881 -0.31115,4.62546 0.0735,6.05773 0.34057,1.26804 1.30636,3.33697 2.01186,4.3098 2.07926,2.86716 5.19798,4.77769 8.74147,5.35503 1.0926,0.17801 3.79037,0.0275 4.99602,-0.27869 z m -11.36856,-11.80571 c -0.34995,-0.30172 -0.37674,-0.39374 -0.35117,-1.20606 0.13246,-4.2091 3.62196,-7.81083 7.89231,-8.14618 0.98435,-0.0773 1.05028,-0.0645 1.38404,0.26929 0.71135,0.71135 0.22882,1.84803 -0.7845,1.84803 -1.4845,0 -3.24704,0.75037 -4.39037,1.86913 -1.15914,1.13421 -1.75787,2.42951 -1.96865,4.25899 -0.15169,1.31655 -0.95766,1.81723 -1.78166,1.1068 z"
       style="fill:#808080;fill-opacity:1" />
  </g>
</svg>
